<svg width="951" height="696" viewBox="0 0 951 696" fill="none" xmlns="http://www.w3.org/2000/svg">
<g clip-path="url(#clip0_480_1903)">
<path d="M-2 10.2669C-2 2.36514 5.38068 -4.04053 14.4852 -4.04053H1015.96C1025.07 -4.04053 1032.45 2.36514 1032.45 10.2669V589.72C1032.45 597.622 1025.07 604.027 1015.96 604.027H14.4852C5.38068 604.027 -2 597.622 -2 589.72V10.2669Z" fill="#F5F9FF"/>
<path d="M-2 10.2669C-2 2.36514 5.38068 -4.04053 14.4852 -4.04053H1015.96C1025.07 -4.04053 1032.45 2.36514 1032.45 10.2669V46.0356H-2V10.2669Z" fill="white"/>
<g filter="url(#filter0_d_480_1903)">
<path d="M-1.98584 10.0155C-1.98584 2.10926 5.43344 -4.30005 14.5856 -4.30005H56.0142V604.113H14.5856C5.43344 604.113 -1.98584 597.704 -1.98584 589.797V10.0155Z" fill="white"/>
<path fill-rule="evenodd" clip-rule="evenodd" d="M33.4261 15.933C33.2144 16.0724 32.9503 16.2359 32.8395 16.2962C32.7285 16.3564 32.5586 16.4698 32.4616 16.5479C32.3649 16.6261 32.25 16.69 32.2065 16.69C32.1629 16.69 32.047 16.7682 31.949 16.8637C31.851 16.9593 31.6553 17.1227 31.5139 17.2269C31.3727 17.3312 31.1553 17.4946 31.0309 17.5901C30.9065 17.6857 30.7643 17.7638 30.7148 17.7638C30.6655 17.7638 30.5564 17.8349 30.4728 17.9217C30.3891 18.0086 30.2953 18.0796 30.2645 18.0796C30.2337 18.0796 30.0949 18.1791 29.9561 18.3007C29.8173 18.4223 29.675 18.5218 29.6399 18.5218C29.6047 18.5218 29.5744 18.5573 29.5728 18.6008C29.5713 18.6442 29.3658 18.7934 29.1162 18.9324C28.8666 19.0713 28.5609 19.2638 28.4366 19.3601C28.3124 19.4565 28.1162 19.6087 28.0007 19.6984C27.4151 20.1529 27.2922 20.2346 27.1452 20.268C27.0573 20.2879 26.9856 20.339 26.9856 20.3818C26.9856 20.4246 26.9074 20.4917 26.8116 20.5312C26.7159 20.5705 26.4875 20.7316 26.3041 20.889C25.803 21.3193 25.3749 21.6168 25.257 21.6168C25.199 21.6168 25.0664 21.695 24.9622 21.7905C24.5312 22.1859 23.3995 23.0065 23.2854 23.0065C23.253 23.0065 23.0565 23.1475 22.8484 23.3199C22.2581 23.809 21.8709 24.0802 21.7631 24.0802C21.7087 24.0802 21.5956 24.1513 21.512 24.2382C21.4283 24.325 21.3237 24.3961 21.2792 24.3961C21.2349 24.3961 21.1565 24.4671 21.1051 24.554C21.0536 24.6408 20.9838 24.7119 20.95 24.7119C20.9162 24.7119 20.8035 24.7894 20.6994 24.8843C20.4736 25.0899 19.8768 25.4699 19.7795 25.4699C19.7417 25.4699 19.6227 25.5409 19.5152 25.6279C19.0791 25.9807 18.821 26.1476 18.6549 26.1846C18.5586 26.2059 18.3223 26.3549 18.1298 26.5155C17.9373 26.6763 17.701 26.8448 17.6046 26.8903C17.5083 26.9357 17.3696 27.0327 17.2962 27.1056C17.2229 27.1788 17.1042 27.2385 17.0323 27.2385C16.9605 27.2385 16.8688 27.3035 16.8286 27.3831C16.7885 27.4627 16.687 27.5551 16.603 27.5884C16.5192 27.6217 16.4393 27.7059 16.4255 27.7753C16.4119 27.8448 16.3412 27.9599 16.2685 28.0313C15.9528 28.3408 15.9344 29.6681 16.2421 29.936C16.3301 30.0128 16.4227 30.16 16.4479 30.2631C16.4729 30.3662 16.5703 30.496 16.6641 30.5514C16.7579 30.6068 16.8347 30.6953 16.8347 30.7477C16.8347 30.8003 16.9691 30.8952 17.1333 30.9588C17.2974 31.0223 17.4739 31.12 17.5253 31.1759C17.5768 31.2318 17.7338 31.2967 17.8743 31.32C18.0148 31.3433 18.2189 31.4292 18.3278 31.5112C18.4378 31.5939 18.6178 31.6599 18.7336 31.6599C18.8619 31.6599 19.0007 31.7171 19.0957 31.8088C19.1937 31.9036 19.3689 31.9737 19.5767 32.0015C19.7564 32.0255 19.9418 32.0866 19.9885 32.1375C20.035 32.1882 20.2503 32.2753 20.4666 32.3309C20.6831 32.3866 20.9252 32.4858 21.0046 32.5513C21.0841 32.6169 21.1975 32.6706 21.2566 32.6706C21.4658 32.6706 21.8051 32.8105 21.8051 32.8967C21.8051 32.9835 21.88 33.0074 22.3864 33.081C22.5329 33.1023 22.6695 33.1595 22.69 33.2079C22.7255 33.2913 22.9447 33.3725 23.3498 33.4527C23.4487 33.4723 23.6031 33.5459 23.693 33.6163C23.7832 33.6867 23.9421 33.7444 24.0464 33.7444C24.1517 33.7444 24.3535 33.8285 24.5004 33.9339C24.6458 34.0381 24.8487 34.1233 24.9514 34.1233C25.0541 34.1233 25.2407 34.1916 25.366 34.2749C25.4911 34.3583 25.7099 34.4458 25.852 34.4695C25.9941 34.4932 26.1735 34.5641 26.2505 34.6269C26.3275 34.6899 26.5008 34.7613 26.6356 34.7856C26.7703 34.8101 26.9908 34.8957 27.1256 34.9761C27.2604 35.0564 27.4809 35.142 27.6156 35.1665C27.7504 35.1908 27.9286 35.2669 28.0115 35.3356C28.0945 35.4043 28.2915 35.4867 28.4496 35.5188C28.6075 35.5507 28.7947 35.6293 28.8656 35.6933C28.9365 35.7572 29.1299 35.8291 29.2954 35.8529C29.461 35.8769 29.6841 35.963 29.7913 36.0442C29.8982 36.1255 30.1049 36.2122 30.2503 36.2368C30.3956 36.2615 30.6051 36.3502 30.7157 36.4342C30.8263 36.5181 30.9906 36.5867 31.0809 36.5867C31.1712 36.5867 31.3342 36.6534 31.443 36.7349C31.5519 36.8163 31.7465 36.9015 31.8755 36.924C32.0045 36.9466 32.2038 37.0363 32.3185 37.1233C32.437 37.2133 32.6151 37.2816 32.7319 37.2816C32.8631 37.2816 32.9916 37.3381 33.0884 37.4387C33.1717 37.5249 33.3525 37.614 33.4904 37.6364C33.8299 37.6913 33.9162 37.7662 33.9162 38.0049C33.9162 38.2857 32.1267 39.9344 31.822 39.9344C31.7602 39.9344 31.6704 39.9913 31.6223 40.0608C31.5741 40.1303 31.497 40.1871 31.4506 40.1871C31.4042 40.1871 31.2862 40.2591 31.1886 40.3471C30.8459 40.6555 30.5184 40.8645 30.2584 40.941C30.114 40.9833 29.9958 41.0419 29.9958 41.0709C29.9958 41.1301 29.3712 41.4979 29.0562 41.6241C28.9437 41.6692 28.8108 41.7585 28.7613 41.8224C28.7116 41.8864 28.5472 41.9566 28.3959 41.9784C28.2436 42.0004 28.1024 42.062 28.0791 42.1165C28.0562 42.1706 27.8993 42.2699 27.7308 42.3372C27.5621 42.4045 27.3846 42.5025 27.3363 42.555C27.288 42.6076 27.1877 42.6505 27.1137 42.6505C27.0395 42.6505 26.9093 42.7184 26.824 42.8013C26.7388 42.8842 26.5549 42.9805 26.4152 43.0153C26.2754 43.0502 26.0946 43.1386 26.0134 43.2119C25.932 43.2853 25.7937 43.3453 25.7061 43.3453C25.6184 43.3453 25.4432 43.4306 25.3166 43.5348C25.1714 43.6545 25.0118 43.7243 24.8828 43.7243C24.744 43.7243 24.643 43.7732 24.5674 43.8773C24.4953 43.9766 24.3618 44.0449 24.1871 44.0714C24.039 44.094 23.8619 44.1682 23.7937 44.2362C23.7254 44.3043 23.5355 44.3904 23.3717 44.4276C23.2079 44.4649 23.0194 44.5497 22.9527 44.616C22.886 44.6825 22.7121 44.754 22.5658 44.7752C22.3942 44.8 22.2614 44.8668 22.191 44.9637C22.1177 45.0646 22.0155 45.1139 21.8788 45.1139C21.7672 45.1139 21.5869 45.1796 21.478 45.2598C21.3692 45.34 21.1513 45.4394 20.9939 45.4804C20.8366 45.5215 20.6506 45.6121 20.5806 45.6819C20.5106 45.7515 20.3662 45.8087 20.2596 45.8087C20.153 45.8087 19.9764 45.8766 19.8672 45.9595C19.758 46.0424 19.5513 46.1394 19.4078 46.1752C19.2644 46.2109 19.0635 46.2993 18.9615 46.3718C18.8595 46.4443 18.696 46.5035 18.5982 46.5035C18.3279 46.5035 17.637 47.1806 17.5803 47.501C17.5565 47.6356 17.4733 47.7973 17.3958 47.8608C17.1944 48.0251 17.194 48.6907 17.3955 48.9218C17.4726 49.0103 17.5554 49.1777 17.5794 49.2935C17.6032 49.4091 17.6895 49.5635 17.7712 49.6366C17.8529 49.7096 18.0229 49.873 18.1491 49.9998C18.2751 50.1265 18.4105 50.2302 18.4499 50.2302C18.4893 50.2302 18.6018 50.3084 18.7 50.4039C18.9547 50.6518 20.6453 50.6761 20.8938 50.4355C20.9745 50.3573 21.0795 50.2934 21.1271 50.2934C21.1749 50.2934 21.3174 50.2081 21.4439 50.1039C21.5703 49.9997 21.7364 49.9144 21.8128 49.9144C21.8893 49.9144 22.0213 49.8474 22.106 49.7655C22.1909 49.6837 22.357 49.5719 22.4753 49.5171C22.5936 49.4623 22.7313 49.3729 22.7814 49.3184C22.8314 49.2641 22.9462 49.2196 23.0364 49.2196C23.1311 49.2196 23.2334 49.1638 23.2788 49.0872C23.322 49.0146 23.493 48.9009 23.6587 48.8347C23.8246 48.7684 23.9785 48.6716 24.0007 48.6195C24.0228 48.5674 24.0863 48.5248 24.1416 48.5248C24.1969 48.5248 24.3717 48.427 24.5303 48.3075C24.6889 48.1879 24.8809 48.0724 24.957 48.0506C25.0331 48.0288 25.0954 47.9879 25.0954 47.9598C25.0954 47.9315 25.1978 47.8709 25.3229 47.8248C25.4481 47.7788 25.6339 47.6616 25.736 47.5645C25.8382 47.4674 25.9672 47.3878 26.0227 47.3878C26.0783 47.3878 26.1809 47.331 26.2505 47.2615C26.3202 47.192 26.4199 47.1352 26.4721 47.1352C26.5242 47.1352 26.6657 47.0499 26.7866 46.9457C26.9075 46.8414 27.0288 46.7562 27.0563 46.7562C27.0838 46.7562 27.2252 46.6709 27.3706 46.5667C27.5161 46.4625 27.6809 46.3772 27.7373 46.3772C27.7935 46.3772 27.9286 46.299 28.0374 46.2035C28.4786 45.8161 28.6783 45.6824 28.8155 45.6824C28.8948 45.6824 29.0462 45.6042 29.1523 45.5087C29.5525 45.1477 30.355 44.6086 30.492 44.6086C30.5254 44.6086 30.7171 44.4671 30.9182 44.294C31.1191 44.1211 31.3876 43.9349 31.5148 43.8805C31.642 43.8261 31.746 43.7564 31.746 43.7256C31.746 43.6948 31.8169 43.6504 31.9035 43.6267C31.9901 43.6032 32.1398 43.514 32.236 43.4284C32.7359 42.9845 33.2763 42.5761 33.4786 42.4894C33.6038 42.4357 33.7062 42.3642 33.7062 42.3304C33.7062 42.2965 33.7916 42.2339 33.8961 42.1911C34.0413 42.1319 35.6049 40.8159 36.0514 40.3772C36.0899 40.3395 36.2822 40.1604 36.4788 39.9793C36.6753 39.7983 36.8599 39.5791 36.8893 39.4923C36.9186 39.4054 37.0047 39.2731 37.0805 39.1983C37.1562 39.1234 37.2492 38.9387 37.2866 38.7877C37.3243 38.6367 37.424 38.4471 37.5082 38.3661C37.7658 38.1188 37.7403 36.5694 37.4739 36.2836C37.3706 36.1727 37.2669 36.0271 37.2432 35.96C37.2196 35.8929 37.0843 35.7762 36.9425 35.7007C36.8008 35.6254 36.6438 35.5107 36.5936 35.446C36.5435 35.3814 36.3958 35.3105 36.2654 35.2884C36.135 35.2663 35.9647 35.1946 35.8869 35.1292C35.8088 35.0637 35.614 34.9835 35.454 34.9511C35.2939 34.9186 35.0951 34.8357 35.0121 34.767C34.9246 34.6943 34.7055 34.6231 34.4899 34.5972C34.2529 34.5688 34.0697 34.5055 33.9841 34.4226C33.8943 34.3356 33.709 34.2749 33.426 34.24C33.1808 34.2099 32.9174 34.1311 32.8006 34.0532C32.6676 33.9645 32.4392 33.9038 32.1286 33.8748C31.7847 33.8427 31.6317 33.7984 31.5603 33.7102C31.4852 33.6176 31.3408 33.5806 30.9383 33.5509C30.5323 33.5209 30.3769 33.4806 30.2494 33.3726C30.1217 33.2643 29.9692 33.2251 29.5678 33.1974C29.195 33.1715 28.9825 33.1211 28.8057 33.0166C28.6369 32.9166 28.403 32.8578 28.0537 32.8278C27.7135 32.7985 27.4893 32.7435 27.3724 32.6605C27.2607 32.5813 27.0264 32.5202 26.7217 32.4909C26.3823 32.4582 26.2041 32.4076 26.1012 32.3148C25.9978 32.2215 25.8224 32.1722 25.4803 32.1406C25.184 32.1133 24.9302 32.0495 24.8103 31.9724C24.7041 31.9042 24.4697 31.8302 24.2893 31.8079C24.1003 31.7845 23.8782 31.7045 23.7657 31.6189C23.658 31.5372 23.4958 31.4703 23.4051 31.4701C23.1356 31.4695 22.7318 31.3481 22.6925 31.2555C22.6723 31.2083 22.4992 31.1357 22.3078 31.0941C22.1137 31.0521 21.8891 30.9511 21.8002 30.8657C21.7126 30.7815 21.599 30.7125 21.5479 30.7125C21.4969 30.7125 21.3968 30.6627 21.3256 30.6019C21.2544 30.5411 21.0732 30.4297 20.9231 30.3542C20.5905 30.187 20.5673 29.9474 20.8524 29.624C20.9525 29.5105 21.1054 29.3338 21.1922 29.2313C21.279 29.1288 21.4367 28.9733 21.5426 28.8856C21.6485 28.798 21.7351 28.698 21.7351 28.6636C21.7351 28.5911 21.8163 28.5087 22.502 27.8859C22.7793 27.634 23.0358 27.4279 23.0722 27.4279C23.1085 27.4279 23.3118 27.2787 23.524 27.0963C24.2301 26.4892 24.3446 26.4047 24.5457 26.3415C24.6554 26.3069 24.7454 26.2537 24.7454 26.2232C24.7454 26.1928 24.8387 26.1244 24.9526 26.0712C25.0665 26.0181 25.2382 25.9107 25.3343 25.8327C25.7108 25.5269 25.9787 25.3609 26.1609 25.3208C26.2657 25.2977 26.3849 25.2224 26.4261 25.1532C26.467 25.0842 26.5388 25.0269 26.5855 25.026C26.6322 25.025 26.7943 24.9397 26.9455 24.8365C27.0967 24.7332 27.2709 24.6487 27.3325 24.6487C27.3941 24.6487 27.5274 24.5634 27.6288 24.4592C27.7583 24.3259 27.8768 24.2697 28.0278 24.2697C28.1795 24.2697 28.2761 24.2235 28.3572 24.1118C28.4202 24.025 28.5075 23.9531 28.5513 23.9522C28.595 23.9512 28.7545 23.866 28.9057 23.7627C29.0569 23.6594 29.2384 23.5749 29.3087 23.5749C29.3791 23.5749 29.5048 23.5042 29.5881 23.4178C29.6714 23.3316 29.8452 23.243 29.9743 23.221C30.1035 23.1993 30.2479 23.1318 30.2951 23.0714C30.3422 23.0109 30.5127 22.901 30.6737 22.8269C30.8347 22.753 30.9847 22.6658 31.0069 22.6332C31.0293 22.6006 31.1373 22.5562 31.2472 22.5345C31.3569 22.5127 31.5139 22.4252 31.5958 22.3401C31.6788 22.254 31.8218 22.1853 31.9177 22.1853C32.0127 22.1853 32.1625 22.1166 32.2507 22.0325C32.339 21.9485 32.5416 21.8487 32.7014 21.8108C32.861 21.7729 33.0093 21.7004 33.0308 21.6497C33.0525 21.5992 33.1817 21.5156 33.3182 21.4641C33.4545 21.4127 33.5662 21.3432 33.5662 21.3094C33.5662 21.2758 33.7079 21.1995 33.8812 21.1398C34.0545 21.0801 34.1962 21.0127 34.1962 20.9899C34.1962 20.9321 35.038 20.4421 35.2288 20.3889C35.3154 20.3648 35.3863 20.3051 35.3863 20.2561C35.3863 20.2073 35.4729 20.1254 35.5788 20.0739C35.6847 20.0226 35.9541 19.8017 36.1776 19.5828C36.4009 19.3641 36.6526 19.1192 36.7364 19.0385C36.8809 18.9 36.8892 18.8341 36.8904 17.8196L36.8914 16.7472L36.4014 16.3369C36.1319 16.1113 35.845 15.871 35.764 15.8031C35.6334 15.6936 35.5132 15.6794 34.7139 15.6796H33.8112L33.4261 15.933Z" fill="#FF5900"/>
</g>
<path d="M82.0541 106.776C82.0541 100.965 86.3038 96.2538 91.5463 96.2538H991.86C997.102 96.2538 1001.35 100.965 1001.35 106.776V185.131C1001.35 190.941 997.102 195.653 991.86 195.653H91.5463C86.3038 195.653 82.0541 190.941 82.0541 185.131V106.776Z" fill="white"/>
<rect opacity="0.1" x="102.689" y="184.111" width="66.0326" height="19.6034" rx="9.80171" fill="#FF5900"/>
<rect x="102.689" y="131.491" width="176.431" height="9.28584" rx="4.64292" fill="#B3BAC5"/>
<rect opacity="0.5" x="102.689" y="148" width="94.6123" height="4.50535" rx="2.25268" fill="#B3BAC5"/>
<rect opacity="0.5" x="201.807" y="148" width="36.0428" height="4.50535" rx="2.25268" fill="#B3BAC5"/>
<rect opacity="0.5" x="102.689" y="158.812" width="71.1845" height="4.50535" rx="2.25268" fill="#B3BAC5"/>
<rect opacity="0.5" x="102.689" y="169.625" width="135.16" height="4.50535" rx="2.25268" fill="#B3BAC5"/>
<rect opacity="0.5" x="178.379" y="158.812" width="59.4706" height="4.50535" rx="2.25268" fill="#B3BAC5"/>
<path d="M864.128 57.743C864.128 55.7676 865.973 54.1661 868.249 54.1661H1011.46C1013.74 54.1661 1015.59 55.7676 1015.59 57.743V84.5695C1015.59 86.5448 1013.74 88.1464 1011.46 88.1464H868.249C865.973 88.1464 864.128 86.5448 864.128 84.5695V57.743Z" fill="white"/>
<path d="M883.704 70.2622C883.704 69.2741 884.626 68.4738 885.765 68.4738H929.038C930.177 68.4738 931.099 69.2741 931.099 70.2622V72.0506C931.099 73.0387 930.177 73.8391 929.038 73.8391H885.765C884.626 73.8391 883.704 73.0387 883.704 72.0506V70.2622Z" fill="#B3BAC5"/>
<path opacity="0.1" d="M938.311 70.2622C938.311 69.2741 939.233 68.4738 940.372 68.4738H962.009C963.147 68.4738 964.069 69.2741 964.069 70.2622V72.0506C964.069 73.0387 963.147 73.8391 962.009 73.8391H940.372C939.233 73.8391 938.311 73.0387 938.311 72.0506V70.2622Z" fill="#5A7184"/>
<rect x="85.0399" y="245.858" width="448.815" height="216.669" rx="18.5717" fill="white"/>
<rect x="85" y="477" width="919" height="224" rx="10.3176" fill="white"/>
<rect opacity="0.5" x="95.3575" y="490.385" width="84.6043" height="7.22232" rx="3.61116" fill="#B3BAC5"/>
<rect opacity="0.2" x="85.0399" y="505.861" width="919.298" height="37.1433" fill="#D9DDE2"/>
<rect opacity="0.5" x="95.3575" y="266.493" width="84.6043" height="7.22232" rx="3.61116" fill="#B3BAC5"/>
<rect opacity="0.2" x="467.823" y="266.493" width="50.5562" height="7.22232" rx="3.61116" fill="#B3BAC5"/>
<line opacity="0.8" x1="99.4846" y1="437.253" x2="518.379" y2="437.253" stroke="#EEEEEE" stroke-width="1.02517"/>
<line opacity="0.8" x1="99.4846" y1="391.855" x2="518.379" y2="391.855" stroke="#EEEEEE" stroke-width="1.02517"/>
<line opacity="0.8" x1="99.4846" y1="346.458" x2="518.379" y2="346.458" stroke="#EEEEEE" stroke-width="1.02517"/>
<line opacity="0.8" x1="99.4847" y1="301.06" x2="518.379" y2="301.06" stroke="#EEEEEE" stroke-width="1.02517"/>
<rect x="555.522" y="245.858" width="448.815" height="216.669" rx="18.5717" fill="white"/>
<rect opacity="0.5" x="565.84" y="266.493" width="84.6043" height="7.22232" rx="3.61116" fill="#B3BAC5"/>
<rect opacity="0.2" x="938.305" y="266.493" width="50.5562" height="7.22232" rx="3.61116" fill="#B3BAC5"/>
<rect opacity="0.5" x="19.0071" y="97.2845" width="21.6669" height="21.6669" rx="10.8335" fill="#B3BAC5"/>
<rect opacity="0.5" x="19.0071" y="139.587" width="21.6669" height="21.6669" rx="10.8335" fill="#B3BAC5"/>
<rect opacity="0.5" x="19.0071" y="181.889" width="21.6669" height="21.6669" rx="10.8335" fill="#B3BAC5"/>
<rect opacity="0.5" x="19.0071" y="224.191" width="21.6669" height="21.6669" rx="10.8335" fill="#B3BAC5"/>
<rect opacity="0.5" x="19.0071" y="266.493" width="21.6669" height="21.6669" rx="10.8335" fill="#B3BAC5"/>
<path d="M91.183 96.6493H85.8629V81.6419H91.2269C92.7365 81.6419 94.0359 81.9423 95.1253 82.5432C96.2147 83.1392 97.0526 83.9966 97.6388 85.1153C98.2299 86.234 98.5255 87.5725 98.5255 89.1309C98.5255 90.6942 98.2299 92.0376 97.6388 93.1612C97.0526 94.2848 96.2099 95.1471 95.1107 95.748C94.0164 96.3489 92.7071 96.6493 91.183 96.6493ZM89.0359 93.9307H91.0511C91.989 93.9307 92.778 93.7646 93.4179 93.4324C94.0628 93.0953 94.5464 92.575 94.8689 91.8715C95.1962 91.1632 95.3598 90.2496 95.3598 89.1309C95.3598 88.022 95.1962 87.1158 94.8689 86.4123C94.5464 85.7088 94.0652 85.191 93.4253 84.8588C92.7853 84.5266 91.9963 84.3605 91.0584 84.3605H89.0359V93.9307ZM104.027 96.8618C103.309 96.8618 102.669 96.7372 102.107 96.4881C101.545 96.234 101.101 95.8603 100.773 95.3669C100.451 94.8686 100.29 94.2482 100.29 93.5056C100.29 92.8803 100.404 92.3552 100.634 91.9302C100.864 91.5052 101.176 91.1632 101.572 90.9043C101.968 90.6454 102.417 90.4499 102.92 90.318C103.428 90.1861 103.961 90.0933 104.518 90.0396C105.172 89.9712 105.7 89.9077 106.101 89.8491C106.501 89.7856 106.792 89.6927 106.973 89.5706C107.153 89.4485 107.244 89.2677 107.244 89.0283V88.9844C107.244 88.5203 107.097 88.1612 106.804 87.9072C106.516 87.6532 106.105 87.5261 105.573 87.5261C105.011 87.5261 104.564 87.6507 104.232 87.8999C103.9 88.1441 103.68 88.4519 103.572 88.8232L100.685 88.5887C100.832 87.9047 101.12 87.3136 101.55 86.8153C101.98 86.3122 102.534 85.9262 103.213 85.6575C103.897 85.384 104.689 85.2472 105.588 85.2472C106.213 85.2472 106.811 85.3205 107.383 85.467C107.959 85.6136 108.47 85.8407 108.914 86.1485C109.364 86.4563 109.718 86.852 109.977 87.3356C110.236 87.8144 110.365 88.3884 110.365 89.0577V96.6493H107.405V95.0885H107.317C107.136 95.4402 106.894 95.7504 106.592 96.0191C106.289 96.2829 105.925 96.4905 105.5 96.642C105.075 96.7885 104.584 96.8618 104.027 96.8618ZM104.921 94.7074C105.38 94.7074 105.786 94.617 106.137 94.4363C106.489 94.2506 106.765 94.0015 106.965 93.6888C107.166 93.3762 107.266 93.022 107.266 92.6263V91.4319C107.168 91.4954 107.034 91.554 106.863 91.6077C106.697 91.6566 106.509 91.703 106.298 91.747C106.088 91.7861 105.878 91.8227 105.668 91.8569C105.458 91.8862 105.268 91.9131 105.097 91.9375C104.73 91.9912 104.41 92.0767 104.137 92.194C103.863 92.3112 103.651 92.47 103.499 92.6703C103.348 92.8657 103.272 93.1099 103.272 93.4031C103.272 93.8281 103.426 94.1529 103.734 94.3777C104.046 94.5975 104.442 94.7074 104.921 94.7074ZM122.152 88.6033L119.294 88.7792C119.246 88.5349 119.14 88.3151 118.979 88.1197C118.818 87.9194 118.606 87.7606 118.342 87.6434C118.083 87.5212 117.773 87.4602 117.411 87.4602C116.927 87.4602 116.52 87.5628 116.187 87.768C115.855 87.9682 115.689 88.2369 115.689 88.574C115.689 88.8427 115.797 89.0699 116.012 89.2555C116.226 89.4411 116.595 89.5901 117.118 89.7025L119.155 90.1129C120.249 90.3376 121.065 90.6991 121.603 91.1974C122.14 91.6957 122.409 92.3503 122.409 93.1612C122.409 93.8989 122.191 94.5462 121.757 95.1031C121.327 95.66 120.736 96.0948 119.983 96.4075C119.236 96.7152 118.374 96.8691 117.396 96.8691C115.906 96.8691 114.719 96.5589 113.835 95.9385C112.956 95.3132 112.44 94.4632 112.289 93.3884L115.359 93.2272C115.452 93.6815 115.677 94.0284 116.033 94.2677C116.39 94.5022 116.847 94.6195 117.404 94.6195C117.951 94.6195 118.391 94.5144 118.723 94.3044C119.06 94.0894 119.231 93.8134 119.236 93.4763C119.231 93.193 119.111 92.9609 118.877 92.7802C118.642 92.5946 118.281 92.4529 117.792 92.3552L115.843 91.9668C114.744 91.747 113.926 91.3659 113.388 90.8237C112.856 90.2814 112.589 89.5901 112.589 88.7499C112.589 88.0269 112.785 87.404 113.176 86.8813C113.571 86.3586 114.126 85.9555 114.839 85.6722C115.557 85.3888 116.397 85.2472 117.36 85.2472C118.781 85.2472 119.9 85.5476 120.716 86.1485C121.537 86.7494 122.015 87.5677 122.152 88.6033ZM127.496 90.1422V96.6493H124.374V81.6419H127.408V87.3796H127.54C127.794 86.7152 128.204 86.1949 128.771 85.8187C129.338 85.4377 130.049 85.2472 130.903 85.2472C131.685 85.2472 132.367 85.4182 132.948 85.7601C133.534 86.0972 133.989 86.5833 134.311 87.2184C134.638 87.8486 134.799 88.6033 134.795 89.4827V96.6493H131.673V90.0396C131.678 89.3459 131.502 88.8061 131.145 88.4201C130.794 88.0342 130.3 87.8412 129.665 87.8412C129.24 87.8412 128.864 87.9316 128.537 88.1124C128.214 88.2931 127.96 88.5569 127.775 88.9038C127.594 89.2457 127.501 89.6585 127.496 90.1422ZM137.31 96.6493V81.6419H140.432V87.2843H140.527C140.664 86.9814 140.861 86.6737 141.12 86.361C141.384 86.0435 141.726 85.7797 142.146 85.5696C142.571 85.3547 143.099 85.2472 143.729 85.2472C144.55 85.2472 145.307 85.4621 146.001 85.892C146.694 86.317 147.249 86.9594 147.664 87.8192C148.079 88.6742 148.287 89.7465 148.287 91.0362C148.287 92.2917 148.084 93.3518 147.679 94.2164C147.278 95.0762 146.731 95.7284 146.037 96.173C145.348 96.6127 144.577 96.8325 143.722 96.8325C143.116 96.8325 142.601 96.7323 142.176 96.532C141.755 96.3318 141.411 96.0802 141.142 95.7773C140.874 95.4695 140.668 95.1593 140.527 94.8466H140.388V96.6493H137.31ZM140.366 91.0215C140.366 91.6908 140.458 92.2746 140.644 92.7729C140.83 93.2712 141.098 93.6595 141.45 93.938C141.802 94.2116 142.229 94.3484 142.732 94.3484C143.241 94.3484 143.67 94.2091 144.022 93.9307C144.374 93.6473 144.64 93.2565 144.821 92.7582C145.007 92.255 145.099 91.6761 145.099 91.0215C145.099 90.3718 145.009 89.8002 144.828 89.3068C144.647 88.8134 144.381 88.4275 144.029 88.149C143.678 87.8705 143.245 87.7313 142.732 87.7313C142.224 87.7313 141.794 87.8657 141.443 88.1343C141.096 88.403 140.83 88.7841 140.644 89.2775C140.458 89.7709 140.366 90.3522 140.366 91.0215ZM155.455 96.8691C154.317 96.8691 153.333 96.6273 152.502 96.1437C151.677 95.6551 151.039 94.9761 150.59 94.1065C150.14 93.2321 149.916 92.2184 149.916 91.0655C149.916 89.9028 150.14 88.8867 150.59 88.0171C151.039 87.1426 151.677 86.4636 152.502 85.98C153.333 85.4914 154.317 85.2472 155.455 85.2472C156.594 85.2472 157.576 85.4914 158.401 85.98C159.232 86.4636 159.872 87.1426 160.321 88.0171C160.771 88.8867 160.995 89.9028 160.995 91.0655C160.995 92.2184 160.771 93.2321 160.321 94.1065C159.872 94.9761 159.232 95.6551 158.401 96.1437C157.576 96.6273 156.594 96.8691 155.455 96.8691ZM155.47 94.4509C155.988 94.4509 156.42 94.3044 156.767 94.0113C157.114 93.7133 157.375 93.3078 157.551 92.7948C157.732 92.2819 157.822 91.6981 157.822 91.0435C157.822 90.3889 157.732 89.8051 157.551 89.2921C157.375 88.7792 157.114 88.3737 156.767 88.0757C156.42 87.7777 155.988 87.6287 155.47 87.6287C154.947 87.6287 154.508 87.7777 154.151 88.0757C153.799 88.3737 153.533 88.7792 153.352 89.2921C153.176 89.8051 153.089 90.3889 153.089 91.0435C153.089 91.6981 153.176 92.2819 153.352 92.7948C153.533 93.3078 153.799 93.7133 154.151 94.0113C154.508 94.3044 154.947 94.4509 155.47 94.4509ZM166.235 96.8618C165.517 96.8618 164.877 96.7372 164.315 96.4881C163.753 96.234 163.308 95.8603 162.981 95.3669C162.659 94.8686 162.497 94.2482 162.497 93.5056C162.497 92.8803 162.612 92.3552 162.842 91.9302C163.071 91.5052 163.384 91.1632 163.78 90.9043C164.176 90.6454 164.625 90.4499 165.128 90.318C165.636 90.1861 166.169 90.0933 166.726 90.0396C167.38 89.9712 167.908 89.9077 168.308 89.8491C168.709 89.7856 169 89.6927 169.18 89.5706C169.361 89.4485 169.452 89.2677 169.452 89.0283V88.9844C169.452 88.5203 169.305 88.1612 169.012 87.9072C168.724 87.6532 168.313 87.5261 167.781 87.5261C167.219 87.5261 166.772 87.6507 166.44 87.8999C166.108 88.1441 165.888 88.4519 165.78 88.8232L162.893 88.5887C163.04 87.9047 163.328 87.3136 163.758 86.8153C164.188 86.3122 164.742 85.9262 165.421 85.6575C166.105 85.384 166.897 85.2472 167.795 85.2472C168.421 85.2472 169.019 85.3205 169.591 85.467C170.167 85.6136 170.678 85.8407 171.122 86.1485C171.572 86.4563 171.926 86.852 172.185 87.3356C172.444 87.8144 172.573 88.3884 172.573 89.0577V96.6493H169.613V95.0885H169.525C169.344 95.4402 169.102 95.7504 168.799 96.0191C168.497 96.2829 168.133 96.4905 167.708 96.642C167.283 96.7885 166.792 96.8618 166.235 96.8618ZM167.129 94.7074C167.588 94.7074 167.993 94.617 168.345 94.4363C168.697 94.2506 168.973 94.0015 169.173 93.6888C169.373 93.3762 169.474 93.022 169.474 92.6263V91.4319C169.376 91.4954 169.242 91.554 169.071 91.6077C168.904 91.6566 168.716 91.703 168.506 91.747C168.296 91.7861 168.086 91.8227 167.876 91.8569C167.666 91.8862 167.476 91.9131 167.305 91.9375C166.938 91.9912 166.618 92.0767 166.345 92.194C166.071 92.3112 165.859 92.47 165.707 92.6703C165.556 92.8657 165.48 93.1099 165.48 93.4031C165.48 93.8281 165.634 94.1529 165.942 94.3777C166.254 94.5975 166.65 94.7074 167.129 94.7074ZM174.995 96.6493V85.3937H178.021V87.3576H178.139C178.344 86.659 178.688 86.1314 179.172 85.7748C179.656 85.4133 180.213 85.2325 180.843 85.2325C180.999 85.2325 181.168 85.2423 181.348 85.2618C181.529 85.2814 181.688 85.3082 181.825 85.3424V88.1124C181.678 88.0684 181.475 88.0293 181.216 87.9951C180.958 87.9609 180.721 87.9438 180.506 87.9438C180.046 87.9438 179.636 88.044 179.275 88.2443C178.918 88.4397 178.635 88.7132 178.425 89.065C178.219 89.4167 178.117 89.8222 178.117 90.2814V96.6493H174.995ZM187.062 96.8325C186.207 96.8325 185.433 96.6127 184.739 96.173C184.05 95.7284 183.503 95.0762 183.098 94.2164C182.697 93.3518 182.497 92.2917 182.497 91.0362C182.497 89.7465 182.705 88.6742 183.12 87.8192C183.535 86.9594 184.087 86.317 184.776 85.892C185.47 85.4621 186.229 85.2472 187.055 85.2472C187.685 85.2472 188.21 85.3547 188.63 85.5696C189.055 85.7797 189.397 86.0435 189.656 86.361C189.92 86.6737 190.12 86.9814 190.257 87.2843H190.352V81.6419H193.467V96.6493H190.389V94.8466H190.257C190.111 95.1593 189.903 95.4695 189.634 95.7773C189.37 96.0802 189.026 96.3318 188.601 96.532C188.181 96.7323 187.668 96.8325 187.062 96.8325ZM188.051 94.3484C188.555 94.3484 188.98 94.2116 189.327 93.938C189.678 93.6595 189.947 93.2712 190.133 92.7729C190.323 92.2746 190.418 91.6908 190.418 91.0215C190.418 90.3522 190.326 89.7709 190.14 89.2775C189.954 88.7841 189.686 88.403 189.334 88.1343C188.982 87.8657 188.555 87.7313 188.051 87.7313C187.539 87.7313 187.106 87.8705 186.754 88.149C186.403 88.4275 186.136 88.8134 185.956 89.3068C185.775 89.8002 185.685 90.3718 185.685 91.0215C185.685 91.6761 185.775 92.255 185.956 92.7582C186.141 93.2565 186.408 93.6473 186.754 93.9307C187.106 94.2091 187.539 94.3484 188.051 94.3484Z" fill="#183B56"/>
<path d="M102.354 307.136L161.375 278.094L220.396 270.275L279.417 290.381L338.438 318.306L397.459 314.955L456.479 328.359L515.5 298.2" stroke="#FF5900" stroke-width="1.67306" stroke-linecap="round" stroke-linejoin="round"/>
<path d="M515.5 298.086L456.423 328.121L397.347 314.772L338.27 318.109L279.194 290.299L220.117 270.275L161.04 278.062L101.964 306.985V393.702H515.5V298.086Z" fill="url(#paint0_linear_480_1903)"/>
<rect x="99.5247" y="304.395" width="5.8557" height="5.8557" rx="2.92785" fill="white"/>
<rect x="99.5247" y="304.395" width="5.8557" height="5.8557" rx="2.92785" stroke="#FF5900" stroke-width="0.836529"/>
<rect x="156.093" y="275.357" width="5.8557" height="5.8557" rx="2.92785" fill="white"/>
<rect x="156.093" y="275.357" width="5.8557" height="5.8557" rx="2.92785" stroke="#FF5900" stroke-width="0.836529"/>
<rect x="215.783" y="267.54" width="5.8557" height="5.8557" rx="2.92785" fill="white"/>
<rect x="215.783" y="267.54" width="5.8557" height="5.8557" rx="2.92785" stroke="#FF5900" stroke-width="0.836529"/>
<rect x="334.383" y="315.458" width="5.8557" height="5.8557" rx="2.92785" fill="white"/>
<rect x="334.383" y="315.458" width="5.8557" height="5.8557" rx="2.92785" stroke="#FF5900" stroke-width="0.836529"/>
<rect x="394.466" y="311.828" width="5.8557" height="5.8557" rx="2.92785" fill="white"/>
<rect x="394.466" y="311.828" width="5.8557" height="5.8557" rx="2.92785" stroke="#FF5900" stroke-width="0.836529"/>
<rect x="512.285" y="295.855" width="5.8557" height="5.8557" rx="2.92785" fill="white"/>
<rect x="512.285" y="295.855" width="5.8557" height="5.8557" rx="2.92785" stroke="#FF5900" stroke-width="0.836529"/>
<rect x="453.375" y="325.623" width="5.8557" height="5.8557" rx="2.92785" fill="white"/>
<rect x="453.375" y="325.623" width="5.8557" height="5.8557" rx="2.92785" stroke="#FF5900" stroke-width="0.836529"/>
<rect x="275.083" y="287.869" width="5.8557" height="5.8557" rx="2.92785" fill="white"/>
<rect x="275.083" y="287.869" width="5.8557" height="5.8557" rx="2.92785" stroke="#FF5900" stroke-width="0.836529"/>
<line x1="277.647" y1="452.734" x2="277.647" y2="331.437" stroke="#FF7F5C" stroke-width="0.83119" stroke-dasharray="1.66 5.82"/>
<g filter="url(#filter1_d_480_1903)">
<ellipse cx="278.027" cy="333.909" rx="5.60599" ry="5.81833" fill="white"/>
<path d="M282.387 333.909C282.387 336.478 280.392 338.481 278.027 338.481C275.663 338.481 273.668 336.478 273.668 333.909C273.668 331.34 275.663 329.338 278.027 329.338C280.392 329.338 282.387 331.34 282.387 333.909Z" stroke="#FF7F5C" stroke-width="2.49357"/>
</g>
<path d="M912.134 395.93C912.134 394.59 913.22 393.504 914.56 393.504V393.504C915.899 393.504 916.985 394.59 916.985 395.93V443.534H912.134V395.93Z" fill="#D0D0D0"/>
<path d="M920.016 311.22C920.016 309.881 921.102 308.795 922.441 308.795V308.795C923.781 308.795 924.867 309.881 924.867 311.22V443.533H920.016V311.22Z" fill="#FF5900"/>
<path d="M855.037 331.856C855.037 330.516 856.122 329.43 857.462 329.43V329.43C858.801 329.43 859.887 330.516 859.887 331.856V444.27H855.037V331.856Z" fill="#D0D0D0"/>
<path d="M862.918 420.544C862.918 419.204 864.004 418.118 865.344 418.118V418.118C866.683 418.118 867.769 419.204 867.769 420.544V444.27H862.918V420.544Z" fill="#FF5900"/>
<path d="M797.938 408.796C797.938 407.456 799.024 406.37 800.363 406.37V406.37C801.703 406.37 802.788 407.456 802.788 408.796V444.461H797.938V408.796Z" fill="#D0D0D0"/>
<path d="M805.82 396.856C805.82 395.517 806.906 394.431 808.245 394.431V394.431C809.584 394.431 810.67 395.517 810.67 396.856V444.46H805.82V396.856Z" fill="#FF5900"/>
<path d="M740.839 345.185C740.839 343.845 741.925 342.76 743.265 342.76V342.76C744.604 342.76 745.69 343.845 745.69 345.185V443.955H740.839V345.185Z" fill="#D0D0D0"/>
<path d="M748.722 307.093C748.722 305.754 749.808 304.668 751.147 304.668V304.668C752.487 304.668 753.572 305.754 753.572 307.093V443.954H748.722V307.093Z" fill="#FF5900"/>
<path d="M683.741 362.893C683.741 361.554 684.827 360.468 686.166 360.468V360.468C687.506 360.468 688.592 361.554 688.592 362.893V444.04H683.741V362.893Z" fill="#D0D0D0"/>
<path d="M691.623 345.268C691.623 343.929 692.709 342.843 694.049 342.843V342.843C695.388 342.843 696.474 343.929 696.474 345.268V444.039H691.623V345.268Z" fill="#FF5900"/>
<path d="M626.644 396.857C626.644 395.517 627.729 394.431 629.069 394.431V394.431C630.408 394.431 631.494 395.517 631.494 396.857V444.461H626.644V396.857Z" fill="#D0D0D0"/>
<path d="M634.525 403.11C634.525 401.771 635.611 400.685 636.951 400.685V400.685C638.29 400.685 639.376 401.771 639.376 403.11V444.461H634.525V403.11Z" fill="#FF5900"/>
<path d="M569.967 437.643C569.967 436.406 570.969 435.404 572.205 435.404V435.404C573.441 435.404 574.444 436.406 574.444 437.643V444.358H569.967V437.643Z" fill="#D0D0D0"/>
<path d="M577.801 434.844C577.801 433.608 578.803 432.606 580.04 432.606V432.606C581.276 432.606 582.278 433.608 582.278 434.844V444.357H577.801V434.844Z" fill="#FF5900"/>
</g>
<rect opacity="0.5" x="105.675" y="551.259" width="21.6669" height="21.6669" rx="10.8335" fill="#B3BAC5"/>
<rect opacity="0.5" x="134.565" y="555.386" width="46.4292" height="4.12704" rx="2.06352" fill="#B3BAC5"/>
<rect opacity="0.5" x="134.565" y="565.704" width="87.6996" height="5.1588" rx="2.5794" fill="#B3BAC5"/>
<rect opacity="0.5" x="105.675" y="588.402" width="21.6669" height="21.6669" rx="10.8335" fill="#B3BAC5"/>
<rect opacity="0.5" x="134.565" y="592.529" width="46.4292" height="4.12704" rx="2.06352" fill="#B3BAC5"/>
<rect opacity="0.5" x="134.565" y="602.846" width="87.6996" height="5.1588" rx="2.5794" fill="#B3BAC5"/>
<rect opacity="0.5" x="105.675" y="625.545" width="21.6669" height="21.6669" rx="10.8335" fill="#B3BAC5"/>
<rect opacity="0.5" x="134.565" y="629.672" width="46.4292" height="4.12704" rx="2.06352" fill="#B3BAC5"/>
<rect opacity="0.5" x="134.565" y="639.99" width="87.6996" height="5.1588" rx="2.5794" fill="#B3BAC5"/>
<rect opacity="0.5" x="105.675" y="662.689" width="21.6669" height="21.6669" rx="10.8335" fill="#B3BAC5"/>
<rect opacity="0.5" x="134.564" y="666.816" width="46.4292" height="4.12704" rx="2.06352" fill="#B3BAC5"/>
<rect opacity="0.5" x="134.564" y="677.133" width="87.6996" height="5.1588" rx="2.5794" fill="#B3BAC5"/>
<rect opacity="0.5" x="105.675" y="520.306" width="33.0163" height="8.25408" rx="4.12704" fill="#B3BAC5"/>
<rect opacity="0.5" x="314.09" y="565.703" width="87.6996" height="5.1588" rx="2.5794" fill="#B3BAC5"/>
<rect opacity="0.5" x="314.09" y="602.847" width="87.6996" height="5.1588" rx="2.5794" fill="#B3BAC5"/>
<rect opacity="0.5" x="314.09" y="639.99" width="87.6996" height="5.1588" rx="2.5794" fill="#B3BAC5"/>
<rect opacity="0.5" x="314.09" y="677.133" width="87.6996" height="5.1588" rx="2.5794" fill="#B3BAC5"/>
<rect opacity="0.5" x="315.121" y="520.306" width="33.0163" height="8.25408" rx="4.12704" fill="#B3BAC5"/>
<rect opacity="0.5" x="493.616" y="565.704" width="87.6996" height="5.1588" rx="2.5794" fill="#B3BAC5"/>
<rect opacity="0.5" x="493.616" y="602.847" width="87.6996" height="5.1588" rx="2.5794" fill="#B3BAC5"/>
<rect opacity="0.5" x="493.616" y="639.99" width="87.6996" height="5.1588" rx="2.5794" fill="#B3BAC5"/>
<rect opacity="0.5" x="493.616" y="677.134" width="87.6996" height="5.1588" rx="2.5794" fill="#B3BAC5"/>
<rect opacity="0.5" x="494.648" y="520.306" width="33.0163" height="8.25408" rx="4.12704" fill="#B3BAC5"/>
<rect opacity="0.5" x="673.142" y="565.703" width="87.6996" height="5.1588" rx="2.5794" fill="#B3BAC5"/>
<rect opacity="0.5" x="673.142" y="602.847" width="87.6996" height="5.1588" rx="2.5794" fill="#B3BAC5"/>
<rect opacity="0.5" x="673.142" y="639.99" width="87.6996" height="5.1588" rx="2.5794" fill="#B3BAC5"/>
<rect opacity="0.5" x="673.142" y="677.133" width="87.6996" height="5.1588" rx="2.5794" fill="#B3BAC5"/>
<rect opacity="0.5" x="674.174" y="520.306" width="33.0163" height="8.25408" rx="4.12704" fill="#B3BAC5"/>
<rect opacity="0.5" x="852.669" y="565.703" width="87.6996" height="5.1588" rx="2.5794" fill="#B3BAC5"/>
<rect opacity="0.5" x="852.669" y="602.847" width="87.6996" height="5.1588" rx="2.5794" fill="#B3BAC5"/>
<rect opacity="0.5" x="852.669" y="639.99" width="87.6996" height="5.1588" rx="2.5794" fill="#B3BAC5"/>
<rect opacity="0.5" x="852.669" y="677.133" width="87.6996" height="5.1588" rx="2.5794" fill="#B3BAC5"/>
<rect opacity="0.5" x="853.7" y="520.306" width="33.0163" height="8.25408" rx="4.12704" fill="#B3BAC5"/>
<defs>
<filter id="filter0_d_480_1903" x="-5.08112" y="-8.42709" width="66.2541" height="616.667" filterUnits="userSpaceOnUse" color-interpolation-filters="sRGB">
<feFlood flood-opacity="0" result="BackgroundImageFix"/>
<feColorMatrix in="SourceAlpha" type="matrix" values="0 0 0 0 0 0 0 0 0 0 0 0 0 0 0 0 0 0 127 0" result="hardAlpha"/>
<feOffset dx="1.03176"/>
<feGaussianBlur stdDeviation="2.06352"/>
<feColorMatrix type="matrix" values="0 0 0 0 0.956012 0 0 0 0 0.956012 0 0 0 0 0.956012 0 0 0 1 0"/>
<feBlend mode="normal" in2="BackgroundImageFix" result="effect1_dropShadow_480_1903"/>
<feBlend mode="normal" in="SourceGraphic" in2="effect1_dropShadow_480_1903" result="shape"/>
</filter>
<filter id="filter1_d_480_1903" x="269.097" y="328.091" width="17.8614" height="18.2861" filterUnits="userSpaceOnUse" color-interpolation-filters="sRGB">
<feFlood flood-opacity="0" result="BackgroundImageFix"/>
<feColorMatrix in="SourceAlpha" type="matrix" values="0 0 0 0 0 0 0 0 0 0 0 0 0 0 0 0 0 0 127 0" result="hardAlpha"/>
<feOffset dy="3.32476"/>
<feGaussianBlur stdDeviation="1.66238"/>
<feColorMatrix type="matrix" values="0 0 0 0 0.156863 0 0 0 0 0.172549 0 0 0 0 0.247059 0 0 0 0.15 0"/>
<feBlend mode="normal" in2="BackgroundImageFix" result="effect1_dropShadow_480_1903"/>
<feBlend mode="normal" in="SourceGraphic" in2="effect1_dropShadow_480_1903" result="shape"/>
</filter>
<linearGradient id="paint0_linear_480_1903" x1="308.732" y1="270.275" x2="308.732" y2="369.837" gradientUnits="userSpaceOnUse">
<stop stop-color="#FF5900" stop-opacity="0.17"/>
<stop offset="0.9375" stop-color="#FF5900" stop-opacity="0"/>
</linearGradient>
<clipPath id="clip0_480_1903">
<rect width="1137.48" height="695.701" fill="white" transform="translate(0.98584 0.299072)"/>
</clipPath>
</defs>
</svg>
