<svg width="543" height="520" viewBox="0 0 543 520" fill="none" xmlns="http://www.w3.org/2000/svg">
<g filter="url(#filter0_d_480_2349)">
<rect x="88.0717" y="58.6411" width="316.142" height="368.493" rx="8.5567" fill="white"/>
</g>
<rect x="119.463" y="255.42" width="253.359" height="126.315" rx="3.7382" stroke="#B3BAC5" stroke-width="0.498427" stroke-dasharray="2.49 2.49"/>
<rect x="147.755" y="278.343" width="196.775" height="14.7144" fill="#E5E8EE"/>
<rect x="147.755" y="344.098" width="196.775" height="14.7144" fill="#E5E8EE"/>
<rect x="147.755" y="311.221" width="68.4503" height="14.7144" fill="#E5E8EE"/>
<rect x="228.277" y="311.221" width="68.4503" height="14.7144" fill="#E5E8EE"/>
<rect x="308.799" y="311.221" width="35.7316" height="14.7144" fill="#E5E8EE"/>
<rect x="119.463" y="104.04" width="253.359" height="126.315" rx="3.7382" stroke="#B3BAC5" stroke-width="0.498427" stroke-dasharray="2.49 2.49"/>
<rect x="147.755" y="126.963" width="196.775" height="14.7144" fill="#E5E8EE"/>
<rect x="147.755" y="192.718" width="196.775" height="14.7144" fill="#E5E8EE"/>
<rect x="147.755" y="159.841" width="68.4503" height="14.7144" fill="#E5E8EE"/>
<rect x="228.277" y="159.841" width="68.4503" height="14.7144" fill="#E5E8EE"/>
<rect x="308.799" y="159.841" width="35.7316" height="14.7144" fill="#E5E8EE"/>
<g filter="url(#filter1_d_480_2349)">
<rect x="35.8734" y="174.608" width="192.266" height="95.6076" rx="10.2956" fill="white"/>
</g>
<path d="M136.558 213.633C135.413 213.633 134.392 213.436 133.498 213.042C132.608 212.643 131.905 212.096 131.388 211.401C130.877 210.7 130.614 209.892 130.598 208.977H133.942C133.963 209.361 134.088 209.698 134.318 209.99C134.554 210.276 134.865 210.498 135.254 210.657C135.643 210.815 136.08 210.895 136.566 210.895C137.072 210.895 137.519 210.805 137.908 210.626C138.297 210.447 138.601 210.199 138.821 209.882C139.041 209.565 139.151 209.199 139.151 208.785C139.151 208.366 139.033 207.995 138.798 207.673C138.568 207.346 138.235 207.09 137.801 206.906C137.371 206.722 136.86 206.63 136.267 206.63H134.802V204.191H136.267C136.768 204.191 137.21 204.104 137.593 203.93C137.982 203.756 138.284 203.516 138.499 203.209C138.713 202.897 138.821 202.534 138.821 202.12C138.821 201.726 138.726 201.381 138.537 201.084C138.353 200.783 138.092 200.548 137.755 200.379C137.422 200.21 137.034 200.126 136.589 200.126C136.139 200.126 135.727 200.207 135.354 200.371C134.98 200.53 134.681 200.757 134.456 201.054C134.231 201.35 134.111 201.698 134.096 202.097H130.913C130.928 201.192 131.186 200.394 131.687 199.704C132.189 199.013 132.864 198.474 133.712 198.085C134.566 197.692 135.53 197.495 136.604 197.495C137.688 197.495 138.637 197.692 139.45 198.085C140.263 198.479 140.894 199.011 141.344 199.681C141.799 200.346 142.024 201.092 142.019 201.92C142.024 202.8 141.751 203.534 141.198 204.122C140.651 204.71 139.938 205.083 139.058 205.242V205.364C140.214 205.513 141.094 205.914 141.697 206.569C142.306 207.218 142.607 208.031 142.602 209.008C142.607 209.903 142.349 210.698 141.827 211.393C141.311 212.089 140.598 212.636 139.687 213.035C138.777 213.433 137.734 213.633 136.558 213.633ZM150.853 197.495C151.661 197.495 152.438 197.63 153.185 197.901C153.936 198.172 154.606 198.604 155.194 199.198C155.788 199.791 156.255 200.578 156.598 201.56C156.946 202.537 157.122 203.736 157.127 205.157C157.127 206.492 156.976 207.683 156.675 208.732C156.378 209.775 155.951 210.662 155.394 211.393C154.836 212.124 154.164 212.682 153.377 213.065C152.589 213.444 151.71 213.633 150.738 213.633C149.69 213.633 148.764 213.431 147.961 213.027C147.159 212.618 146.512 212.063 146.021 211.362C145.535 210.657 145.241 209.864 145.139 208.985H148.414C148.542 209.557 148.81 210.002 149.219 210.319C149.628 210.631 150.135 210.787 150.738 210.787C151.761 210.787 152.538 210.342 153.07 209.453C153.602 208.558 153.87 207.333 153.875 205.779H153.768C153.533 206.239 153.215 206.635 152.817 206.967C152.418 207.295 151.96 207.548 151.444 207.727C150.932 207.906 150.388 207.995 149.81 207.995C148.884 207.995 148.059 207.778 147.332 207.343C146.606 206.909 146.034 206.31 145.614 205.548C145.195 204.787 144.985 203.917 144.985 202.941C144.98 201.887 145.223 200.949 145.714 200.126C146.205 199.302 146.89 198.658 147.77 198.193C148.654 197.722 149.682 197.49 150.853 197.495ZM150.876 200.103C150.36 200.103 149.899 200.225 149.495 200.471C149.097 200.716 148.78 201.046 148.544 201.46C148.314 201.874 148.202 202.337 148.207 202.849C148.207 203.365 148.319 203.83 148.544 204.245C148.774 204.654 149.086 204.981 149.48 205.226C149.879 205.467 150.334 205.587 150.845 205.587C151.229 205.587 151.584 205.515 151.912 205.372C152.239 205.229 152.523 205.032 152.763 204.781C153.008 204.526 153.2 204.232 153.338 203.899C153.476 203.567 153.545 203.214 153.545 202.841C153.54 202.345 153.423 201.89 153.192 201.476C152.962 201.061 152.645 200.729 152.241 200.478C151.837 200.228 151.382 200.103 150.876 200.103ZM165.468 213.633C164.287 213.633 163.236 213.441 162.316 213.058C161.401 212.669 160.682 212.14 160.161 211.47C159.639 210.8 159.378 210.041 159.378 209.192C159.378 208.537 159.527 207.936 159.823 207.389C160.125 206.837 160.534 206.379 161.05 206.016C161.567 205.648 162.145 205.413 162.784 205.311V205.203C161.945 205.035 161.265 204.628 160.744 203.984C160.222 203.334 159.961 202.58 159.961 201.721C159.961 200.908 160.199 200.184 160.674 199.55C161.15 198.911 161.802 198.41 162.63 198.047C163.464 197.679 164.41 197.495 165.468 197.495C166.527 197.495 167.47 197.679 168.299 198.047C169.132 198.415 169.787 198.919 170.262 199.558C170.738 200.192 170.978 200.913 170.983 201.721C170.978 202.585 170.712 203.339 170.186 203.984C169.659 204.628 168.984 205.035 168.161 205.203V205.311C168.79 205.413 169.36 205.648 169.871 206.016C170.387 206.379 170.797 206.837 171.098 207.389C171.405 207.936 171.561 208.537 171.566 209.192C171.561 210.041 171.298 210.8 170.776 211.47C170.255 212.14 169.534 212.669 168.613 213.058C167.698 213.441 166.65 213.633 165.468 213.633ZM165.468 211.194C165.995 211.194 166.455 211.099 166.849 210.91C167.243 210.716 167.55 210.45 167.769 210.112C167.994 209.77 168.107 209.376 168.107 208.931C168.107 208.476 167.992 208.075 167.762 207.727C167.532 207.374 167.22 207.098 166.826 206.898C166.432 206.694 165.98 206.592 165.468 206.592C164.962 206.592 164.51 206.694 164.111 206.898C163.712 207.098 163.397 207.374 163.167 207.727C162.942 208.075 162.83 208.476 162.83 208.931C162.83 209.376 162.94 209.77 163.16 210.112C163.379 210.45 163.689 210.716 164.088 210.91C164.487 211.099 164.947 211.194 165.468 211.194ZM165.468 204.176C165.908 204.176 166.299 204.086 166.642 203.907C166.984 203.728 167.253 203.48 167.447 203.163C167.642 202.846 167.739 202.48 167.739 202.066C167.739 201.657 167.642 201.299 167.447 200.992C167.253 200.68 166.987 200.438 166.65 200.264C166.312 200.085 165.918 199.995 165.468 199.995C165.023 199.995 164.63 200.085 164.287 200.264C163.945 200.438 163.676 200.68 163.482 200.992C163.293 201.299 163.198 201.657 163.198 202.066C163.198 202.48 163.295 202.846 163.489 203.163C163.684 203.48 163.952 203.728 164.295 203.907C164.637 204.086 165.029 204.176 165.468 204.176ZM174.16 213.418V197.71H177.482V204.636H177.689L183.342 197.71H187.322L181.493 204.743L187.391 213.418H183.418L179.115 206.96L177.482 208.954V213.418H174.16Z" fill="#333333"/>
<path d="M130.192 235.365V233.835H139.31V235.365H135.634V245.617H133.862V235.365H130.192ZM143.627 245.795C142.799 245.795 142.076 245.605 141.458 245.225C140.841 244.846 140.361 244.315 140.02 243.632C139.679 242.949 139.508 242.152 139.508 241.239C139.508 240.322 139.679 239.521 140.02 238.834C140.361 238.148 140.841 237.615 141.458 237.235C142.076 236.855 142.799 236.665 143.627 236.665C144.455 236.665 145.178 236.855 145.796 237.235C146.413 237.615 146.893 238.148 147.234 238.834C147.575 239.521 147.746 240.322 147.746 241.239C147.746 242.152 147.575 242.949 147.234 243.632C146.893 244.315 146.413 244.846 145.796 245.225C145.178 245.605 144.455 245.795 143.627 245.795ZM143.633 244.351C144.17 244.351 144.615 244.209 144.967 243.925C145.32 243.642 145.581 243.264 145.75 242.792C145.922 242.32 146.009 241.801 146.009 241.233C146.009 240.669 145.922 240.152 145.75 239.68C145.581 239.204 145.32 238.823 144.967 238.535C144.615 238.247 144.17 238.104 143.633 238.104C143.092 238.104 142.643 238.247 142.287 238.535C141.934 238.823 141.671 239.204 141.499 239.68C141.33 240.152 141.245 240.669 141.245 241.233C141.245 241.801 141.33 242.32 141.499 242.792C141.671 243.264 141.934 243.642 142.287 243.925C142.643 244.209 143.092 244.351 143.633 244.351ZM153.791 236.781V238.161H148.964V236.781H153.791ZM150.258 234.664H151.978V243.022C151.978 243.356 152.028 243.607 152.128 243.776C152.228 243.941 152.356 244.054 152.513 244.115C152.674 244.173 152.849 244.201 153.037 244.201C153.175 244.201 153.296 244.192 153.399 244.173C153.503 244.153 153.583 244.138 153.641 244.127L153.952 245.548C153.852 245.586 153.71 245.624 153.526 245.663C153.342 245.705 153.112 245.728 152.836 245.732C152.383 245.739 151.961 245.659 151.57 245.49C151.179 245.321 150.862 245.06 150.621 244.708C150.379 244.355 150.258 243.912 150.258 243.379V234.664ZM158.265 245.812C157.705 245.812 157.198 245.709 156.746 245.502C156.293 245.291 155.935 244.986 155.67 244.587C155.409 244.188 155.279 243.699 155.279 243.12C155.279 242.621 155.375 242.211 155.567 241.889C155.758 241.567 156.017 241.312 156.343 241.124C156.669 240.936 157.034 240.794 157.436 240.698C157.839 240.602 158.249 240.529 158.667 240.479C159.197 240.418 159.626 240.368 159.956 240.33C160.286 240.288 160.525 240.221 160.675 240.129C160.825 240.037 160.899 239.887 160.899 239.68V239.64C160.899 239.137 160.757 238.748 160.474 238.472C160.194 238.196 159.776 238.058 159.22 238.058C158.64 238.058 158.184 238.186 157.85 238.443C157.521 238.696 157.292 238.978 157.166 239.289L155.549 238.92C155.741 238.384 156.021 237.95 156.389 237.62C156.761 237.287 157.189 237.045 157.672 236.896C158.155 236.742 158.663 236.665 159.197 236.665C159.549 236.665 159.923 236.708 160.318 236.792C160.717 236.873 161.089 237.022 161.434 237.241C161.783 237.459 162.069 237.772 162.291 238.178C162.514 238.581 162.625 239.105 162.625 239.749V245.617H160.945V244.409H160.876C160.765 244.631 160.598 244.85 160.376 245.064C160.153 245.279 159.868 245.457 159.519 245.599C159.17 245.741 158.752 245.812 158.265 245.812ZM158.639 244.432C159.114 244.432 159.521 244.338 159.858 244.15C160.199 243.962 160.458 243.716 160.635 243.413C160.815 243.107 160.905 242.779 160.905 242.43V241.291C160.844 241.352 160.725 241.409 160.548 241.463C160.376 241.513 160.178 241.557 159.956 241.595C159.733 241.63 159.517 241.663 159.306 241.693C159.095 241.72 158.919 241.743 158.777 241.762C158.443 241.804 158.138 241.875 157.862 241.975C157.59 242.075 157.371 242.219 157.206 242.407C157.045 242.591 156.965 242.836 156.965 243.143C156.965 243.569 157.122 243.891 157.436 244.109C157.751 244.324 158.151 244.432 158.639 244.432ZM166.636 233.835V245.617H164.916V233.835H166.636ZM173.375 245.617V233.835H175.153V244.086H180.491V245.617H173.375ZM182.381 245.617V236.781H184.101V245.617H182.381ZM183.25 235.417C182.951 235.417 182.694 235.317 182.479 235.118C182.268 234.915 182.163 234.673 182.163 234.393C182.163 234.109 182.268 233.868 182.479 233.668C182.694 233.465 182.951 233.363 183.25 233.363C183.549 233.363 183.804 233.465 184.015 233.668C184.23 233.868 184.337 234.109 184.337 234.393C184.337 234.673 184.23 234.915 184.015 235.118C183.804 235.317 183.549 235.417 183.25 235.417ZM187.997 242.619L187.986 240.52H188.285L191.805 236.781H193.865L189.85 241.037H189.579L187.997 242.619ZM186.415 245.617V233.835H188.135V245.617H186.415ZM191.995 245.617L188.831 241.417L190.016 240.215L194.106 245.617H191.995ZM198.877 245.795C198.006 245.795 197.257 245.609 196.628 245.237C196.002 244.861 195.519 244.334 195.178 243.655C194.84 242.972 194.672 242.173 194.672 241.256C194.672 240.351 194.84 239.553 195.178 238.863C195.519 238.173 195.995 237.634 196.605 237.246C197.218 236.859 197.935 236.665 198.756 236.665C199.255 236.665 199.738 236.748 200.206 236.913C200.674 237.078 201.094 237.337 201.466 237.689C201.838 238.042 202.131 238.501 202.346 239.064C202.56 239.624 202.668 240.305 202.668 241.107V241.716H195.644V240.428H200.982C200.982 239.975 200.89 239.574 200.706 239.225C200.522 238.873 200.263 238.595 199.93 238.391C199.6 238.188 199.212 238.086 198.768 238.086C198.284 238.086 197.862 238.205 197.502 238.443C197.145 238.677 196.869 238.984 196.674 239.363C196.482 239.739 196.386 240.148 196.386 240.589V241.595C196.386 242.186 196.49 242.688 196.697 243.103C196.908 243.517 197.201 243.833 197.577 244.052C197.953 244.267 198.392 244.374 198.894 244.374C199.22 244.374 199.517 244.328 199.786 244.236C200.054 244.14 200.286 243.998 200.482 243.81C200.677 243.622 200.827 243.39 200.931 243.114L202.559 243.408C202.428 243.887 202.194 244.307 201.857 244.667C201.523 245.024 201.103 245.302 200.597 245.502C200.095 245.697 199.521 245.795 198.877 245.795ZM211.198 238.938L209.639 239.214C209.573 239.014 209.47 238.825 209.328 238.644C209.19 238.464 209.002 238.316 208.764 238.201C208.526 238.086 208.229 238.029 207.873 238.029C207.386 238.029 206.979 238.138 206.653 238.357C206.327 238.572 206.164 238.85 206.164 239.191C206.164 239.486 206.273 239.724 206.492 239.904C206.711 240.084 207.063 240.232 207.55 240.347L208.954 240.669C209.767 240.857 210.373 241.147 210.772 241.538C211.171 241.929 211.37 242.437 211.37 243.062C211.37 243.592 211.217 244.063 210.91 244.478C210.607 244.888 210.183 245.21 209.639 245.444C209.098 245.678 208.471 245.795 207.758 245.795C206.768 245.795 205.961 245.584 205.336 245.162C204.711 244.736 204.327 244.132 204.185 243.35L205.848 243.097C205.951 243.53 206.164 243.858 206.486 244.081C206.808 244.299 207.228 244.409 207.746 244.409C208.31 244.409 208.76 244.292 209.098 244.058C209.435 243.82 209.604 243.53 209.604 243.189C209.604 242.913 209.501 242.681 209.293 242.493C209.09 242.305 208.778 242.163 208.356 242.067L206.86 241.739C206.036 241.551 205.426 241.252 205.031 240.842C204.64 240.432 204.444 239.912 204.444 239.283C204.444 238.761 204.59 238.305 204.881 237.914C205.173 237.523 205.575 237.218 206.089 236.999C206.603 236.777 207.192 236.665 207.855 236.665C208.81 236.665 209.562 236.873 210.11 237.287C210.659 237.697 211.021 238.247 211.198 238.938Z" fill="#5A7184"/>
<path opacity="0.1" fill-rule="evenodd" clip-rule="evenodd" d="M79.3678 254.094C96.4262 254.094 110.255 240.265 110.255 223.207C110.255 206.148 96.4262 192.32 79.3678 192.32C62.3094 192.32 48.4808 206.148 48.4808 223.207C48.4808 240.265 62.3094 254.094 79.3678 254.094Z" fill="#1565D8"/>
<path d="M73.7366 223.044H70.9242C70.432 223.044 70.0804 223.431 70.0804 223.888V232.325C70.0804 232.817 70.432 233.169 70.9242 233.169H73.7366C74.1936 233.169 74.5803 232.817 74.5803 232.325V223.888C74.5803 223.431 74.1936 223.044 73.7366 223.044ZM72.3304 231.762C71.8382 231.762 71.4866 231.411 71.4866 230.919C71.4866 230.462 71.8382 230.075 72.3304 230.075C72.7874 230.075 73.1741 230.462 73.1741 230.919C73.1741 231.411 72.7874 231.762 72.3304 231.762ZM83.58 218.052C83.58 215.45 81.8925 215.169 81.0488 215.169C80.3106 215.169 79.9942 216.575 79.8535 217.208C79.6426 217.982 79.4668 218.755 78.9395 219.282C77.8146 220.442 77.2169 221.884 75.8107 223.255C75.7404 223.36 75.7053 223.466 75.7053 223.571V231.094C75.7053 231.305 75.881 231.481 76.092 231.516C76.6544 231.516 77.3927 231.833 77.9552 232.079C79.0801 232.571 80.4512 233.169 82.1386 233.169H82.2441C83.7558 233.169 85.5487 233.169 86.2518 232.149C86.5682 231.727 86.6385 231.2 86.4627 230.567C87.0603 229.969 87.3416 228.844 87.0603 227.93C87.658 227.122 87.7283 225.962 87.3767 225.153C87.7986 224.731 88.0798 224.063 88.0447 223.431C88.0447 222.341 87.1306 221.356 85.9705 221.356H82.3847C82.666 220.372 83.58 219.528 83.58 218.052Z" fill="#1565D8"/>
<g filter="url(#filter2_d_480_2349)">
<rect x="250.203" y="378.431" width="257.405" height="90.3544" rx="10.2956" fill="white"/>
</g>
<path d="M349.307 415.002V395.366H350.565V415.002H349.307ZM352.644 401.847C352.583 401.228 352.319 400.748 351.854 400.405C351.389 400.063 350.757 399.891 349.959 399.891C349.417 399.891 348.96 399.968 348.586 400.121C348.213 400.27 347.927 400.477 347.727 400.743C347.533 401.009 347.436 401.31 347.436 401.648C347.426 401.929 347.484 402.174 347.612 402.384C347.745 402.594 347.927 402.775 348.157 402.929C348.387 403.077 348.653 403.207 348.955 403.32C349.256 403.427 349.578 403.519 349.921 403.596L351.332 403.934C352.018 404.087 352.647 404.291 353.219 404.547C353.792 404.803 354.288 405.117 354.707 405.491C355.127 405.864 355.451 406.304 355.681 406.81C355.917 407.316 356.037 407.896 356.042 408.551C356.037 409.512 355.791 410.346 355.306 411.051C354.825 411.752 354.129 412.297 353.219 412.685C352.314 413.069 351.222 413.26 349.944 413.26C348.676 413.26 347.571 413.066 346.631 412.678C345.695 412.289 344.964 411.714 344.437 410.952C343.915 410.185 343.642 409.236 343.616 408.106H346.83C346.866 408.633 347.017 409.073 347.282 409.425C347.554 409.773 347.914 410.036 348.364 410.215C348.819 410.389 349.333 410.476 349.906 410.476C350.468 410.476 350.957 410.394 351.371 410.231C351.79 410.067 352.115 409.84 352.345 409.548C352.575 409.257 352.69 408.922 352.69 408.543C352.69 408.19 352.585 407.894 352.376 407.654C352.171 407.413 351.869 407.209 351.47 407.04C351.077 406.871 350.593 406.718 350.021 406.58L348.31 406.15C346.986 405.828 345.94 405.324 345.173 404.639C344.406 403.954 344.025 403.031 344.03 401.87C344.025 400.919 344.278 400.088 344.79 399.377C345.306 398.667 346.014 398.112 346.914 397.713C347.814 397.314 348.837 397.115 349.982 397.115C351.148 397.115 352.166 397.314 353.035 397.713C353.91 398.112 354.59 398.667 355.075 399.377C355.561 400.088 355.812 400.911 355.827 401.847H352.644ZM364.101 413.253C363.017 413.253 362.051 413.053 361.202 412.655C360.358 412.256 359.688 411.706 359.192 411.005C358.696 410.305 358.438 409.502 358.417 408.597H361.639C361.675 409.205 361.93 409.699 362.406 410.077C362.881 410.456 363.447 410.645 364.101 410.645C364.623 410.645 365.083 410.53 365.482 410.3C365.886 410.065 366.2 409.74 366.425 409.326C366.655 408.906 366.77 408.426 366.77 407.884C366.77 407.331 366.653 406.846 366.417 406.426C366.187 406.007 365.868 405.68 365.459 405.445C365.05 405.209 364.582 405.089 364.055 405.084C363.595 405.084 363.147 405.179 362.713 405.368C362.283 405.557 361.948 405.815 361.708 406.143L358.755 405.613L359.499 397.329H369.102V400.045H362.237L361.831 403.98H361.923C362.199 403.591 362.616 403.269 363.173 403.013C363.73 402.757 364.354 402.63 365.044 402.63C365.99 402.63 366.834 402.852 367.576 403.297C368.317 403.742 368.903 404.353 369.332 405.13C369.762 405.902 369.974 406.792 369.969 407.799C369.974 408.858 369.728 409.799 369.232 410.622C368.742 411.44 368.054 412.084 367.169 412.555C366.29 413.02 365.267 413.253 364.101 413.253ZM375.541 410.89L375.457 411.734C375.39 412.409 375.262 413.081 375.073 413.751C374.889 414.426 374.695 415.037 374.49 415.585C374.291 416.132 374.13 416.561 374.007 416.873H371.89C371.967 416.571 372.071 416.15 372.204 415.608C372.337 415.071 372.463 414.467 372.58 413.797C372.698 413.128 372.772 412.445 372.803 411.749L372.841 410.89H375.541ZM384.204 413.383C382.885 413.378 381.75 413.053 380.799 412.409C379.853 411.765 379.124 410.832 378.613 409.609C378.106 408.387 377.856 406.917 377.861 405.199C377.861 403.486 378.114 402.026 378.62 400.819C379.132 399.613 379.86 398.695 380.806 398.066C381.757 397.432 382.89 397.115 384.204 397.115C385.518 397.115 386.648 397.432 387.594 398.066C388.545 398.7 389.277 399.62 389.788 400.827C390.299 402.029 390.552 403.486 390.547 405.199C390.547 406.922 390.292 408.395 389.78 409.617C389.274 410.839 388.548 411.772 387.602 412.417C386.656 413.061 385.523 413.383 384.204 413.383ZM384.204 410.63C385.104 410.63 385.823 410.177 386.359 409.272C386.896 408.367 387.162 407.009 387.157 405.199C387.157 404.008 387.034 403.016 386.789 402.223C386.549 401.43 386.206 400.835 385.761 400.436C385.321 400.037 384.802 399.838 384.204 399.838C383.309 399.838 382.593 400.285 382.056 401.18C381.52 402.075 381.249 403.414 381.243 405.199C381.243 406.406 381.364 407.413 381.604 408.221C381.849 409.024 382.195 409.627 382.639 410.031C383.084 410.43 383.606 410.63 384.204 410.63ZM399.255 413.383C397.935 413.378 396.8 413.053 395.849 412.409C394.903 411.765 394.174 410.832 393.663 409.609C393.157 408.387 392.906 406.917 392.911 405.199C392.911 403.486 393.165 402.026 393.671 400.819C394.182 399.613 394.911 398.695 395.857 398.066C396.808 397.432 397.941 397.115 399.255 397.115C400.569 397.115 401.699 397.432 402.645 398.066C403.596 398.7 404.327 399.62 404.839 400.827C405.35 402.029 405.603 403.486 405.598 405.199C405.598 406.922 405.342 408.395 404.831 409.617C404.325 410.839 403.599 411.772 402.653 412.417C401.707 413.061 400.574 413.383 399.255 413.383ZM399.255 410.63C400.155 410.63 400.873 410.177 401.41 409.272C401.947 408.367 402.213 407.009 402.208 405.199C402.208 404.008 402.085 403.016 401.84 402.223C401.599 401.43 401.257 400.835 400.812 400.436C400.372 400.037 399.853 399.838 399.255 399.838C398.36 399.838 397.644 400.285 397.107 401.18C396.57 402.075 396.299 403.414 396.294 405.199C396.294 406.406 396.414 407.413 396.655 408.221C396.9 409.024 397.245 409.627 397.69 410.031C398.135 410.43 398.656 410.63 399.255 410.63ZM414.305 413.383C412.986 413.378 411.851 413.053 410.9 412.409C409.954 411.765 409.225 410.832 408.714 409.609C408.207 408.387 407.957 406.917 407.962 405.199C407.962 403.486 408.215 402.026 408.721 400.819C409.233 399.613 409.961 398.695 410.907 398.066C411.858 397.432 412.991 397.115 414.305 397.115C415.619 397.115 416.75 397.432 417.696 398.066C418.647 398.7 419.378 399.62 419.889 400.827C420.401 402.029 420.654 403.486 420.649 405.199C420.649 406.922 420.393 408.395 419.882 409.617C419.375 410.839 418.649 411.772 417.703 412.417C416.757 413.061 415.625 413.383 414.305 413.383ZM414.305 410.63C415.205 410.63 415.924 410.177 416.461 409.272C416.998 408.367 417.263 407.009 417.258 405.199C417.258 404.008 417.136 403.016 416.89 402.223C416.65 401.43 416.307 400.835 415.862 400.436C415.423 400.037 414.904 399.838 414.305 399.838C413.41 399.838 412.695 400.285 412.158 401.18C411.621 402.075 411.35 403.414 411.345 405.199C411.345 406.406 411.465 407.413 411.705 408.221C411.951 409.024 412.296 409.627 412.741 410.031C413.185 410.43 413.707 410.63 414.305 410.63Z" fill="#333333"/>
<path d="M343.47 434.985V433.455H352.588V434.985H348.912V445.237H347.141V434.985H343.47ZM356.906 445.415C356.077 445.415 355.354 445.225 354.737 444.846C354.12 444.466 353.64 443.935 353.299 443.252C352.957 442.569 352.787 441.772 352.787 440.859C352.787 439.942 352.957 439.141 353.299 438.454C353.64 437.768 354.12 437.235 354.737 436.855C355.354 436.475 356.077 436.286 356.906 436.286C357.734 436.286 358.457 436.475 359.074 436.855C359.692 437.235 360.171 437.768 360.513 438.454C360.854 439.141 361.025 439.942 361.025 440.859C361.025 441.772 360.854 442.569 360.513 443.252C360.171 443.935 359.692 444.466 359.074 444.846C358.457 445.225 357.734 445.415 356.906 445.415ZM356.911 443.971C357.448 443.971 357.893 443.829 358.246 443.545C358.599 443.262 358.86 442.884 359.028 442.412C359.201 441.94 359.287 441.421 359.287 440.853C359.287 440.289 359.201 439.772 359.028 439.3C358.86 438.824 358.599 438.443 358.246 438.155C357.893 437.868 357.448 437.724 356.911 437.724C356.371 437.724 355.922 437.868 355.565 438.155C355.213 438.443 354.95 438.824 354.777 439.3C354.608 439.772 354.524 440.289 354.524 440.853C354.524 441.421 354.608 441.94 354.777 442.412C354.95 442.884 355.213 443.262 355.565 443.545C355.922 443.829 356.371 443.971 356.911 443.971ZM367.069 436.401V437.781H362.243V436.401H367.069ZM363.537 434.284H365.257V442.642C365.257 442.976 365.307 443.227 365.407 443.396C365.506 443.561 365.635 443.674 365.792 443.735C365.953 443.793 366.128 443.822 366.316 443.822C366.454 443.822 366.574 443.812 366.678 443.793C366.782 443.774 366.862 443.758 366.92 443.747L367.23 445.168C367.131 445.206 366.989 445.244 366.805 445.283C366.62 445.325 366.39 445.348 366.114 445.352C365.662 445.359 365.24 445.279 364.849 445.11C364.457 444.941 364.141 444.681 363.899 444.328C363.658 443.975 363.537 443.532 363.537 442.999V434.284ZM371.543 445.432C370.983 445.432 370.477 445.329 370.025 445.122C369.572 444.911 369.213 444.606 368.949 444.207C368.688 443.808 368.558 443.319 368.558 442.74C368.558 442.241 368.654 441.831 368.845 441.509C369.037 441.187 369.296 440.932 369.622 440.744C369.948 440.556 370.312 440.414 370.715 440.318C371.118 440.222 371.528 440.149 371.946 440.1C372.475 440.038 372.905 439.988 373.235 439.95C373.564 439.908 373.804 439.841 373.954 439.749C374.103 439.657 374.178 439.507 374.178 439.3V439.26C374.178 438.757 374.036 438.368 373.752 438.092C373.472 437.816 373.054 437.678 372.498 437.678C371.919 437.678 371.463 437.806 371.129 438.063C370.799 438.316 370.571 438.598 370.445 438.909L368.828 438.541C369.02 438.004 369.3 437.57 369.668 437.241C370.04 436.907 370.468 436.665 370.951 436.516C371.434 436.362 371.942 436.286 372.475 436.286C372.828 436.286 373.202 436.328 373.597 436.412C373.996 436.493 374.368 436.642 374.713 436.861C375.062 437.079 375.348 437.392 375.57 437.799C375.793 438.201 375.904 438.725 375.904 439.369V445.237H374.224V444.029H374.155C374.044 444.251 373.877 444.47 373.655 444.684C373.432 444.899 373.146 445.078 372.797 445.219C372.448 445.361 372.03 445.432 371.543 445.432ZM371.917 444.052C372.393 444.052 372.799 443.958 373.137 443.77C373.478 443.582 373.737 443.336 373.913 443.033C374.094 442.727 374.184 442.399 374.184 442.05V440.911C374.122 440.972 374.004 441.03 373.827 441.083C373.655 441.133 373.457 441.177 373.235 441.216C373.012 441.25 372.795 441.283 372.585 441.313C372.374 441.34 372.197 441.363 372.055 441.382C371.722 441.425 371.417 441.496 371.141 441.595C370.868 441.695 370.65 441.839 370.485 442.027C370.324 442.211 370.243 442.456 370.243 442.763C370.243 443.189 370.4 443.511 370.715 443.73C371.029 443.944 371.43 444.052 371.917 444.052ZM379.915 433.455V445.237H378.195V433.455H379.915ZM386.654 445.237V433.455H394.04V434.985H388.432V438.575H393.655V440.1H388.432V443.706H394.11V445.237H386.654ZM397.997 439.99V445.237H396.277V436.401H397.928V437.839H398.037C398.24 437.371 398.559 436.995 398.992 436.711C399.429 436.427 399.98 436.286 400.643 436.286C401.245 436.286 401.773 436.412 402.225 436.665C402.678 436.915 403.029 437.287 403.278 437.781C403.527 438.276 403.652 438.888 403.652 439.616V445.237H401.932V439.823C401.932 439.183 401.765 438.683 401.431 438.322C401.098 437.958 400.639 437.776 400.056 437.776C399.657 437.776 399.303 437.862 398.992 438.034C398.685 438.207 398.442 438.46 398.261 438.794C398.085 439.124 397.997 439.522 397.997 439.99ZM409.663 448.734C408.961 448.734 408.357 448.642 407.851 448.458C407.349 448.274 406.938 448.031 406.62 447.728C406.302 447.425 406.064 447.093 405.907 446.732L407.385 446.123C407.489 446.291 407.627 446.47 407.799 446.658C407.976 446.849 408.214 447.012 408.513 447.147C408.816 447.281 409.205 447.348 409.68 447.348C410.332 447.348 410.871 447.189 411.297 446.87C411.723 446.556 411.936 446.054 411.936 445.363V443.626H411.826C411.723 443.814 411.573 444.023 411.378 444.253C411.186 444.483 410.921 444.683 410.584 444.851C410.246 445.02 409.807 445.104 409.266 445.104C408.568 445.104 407.939 444.941 407.379 444.615C406.823 444.286 406.382 443.8 406.056 443.16C405.734 442.516 405.573 441.724 405.573 440.784C405.573 439.845 405.732 439.039 406.051 438.368C406.373 437.697 406.814 437.183 407.374 436.826C407.934 436.466 408.568 436.286 409.278 436.286C409.826 436.286 410.269 436.378 410.607 436.562C410.944 436.742 411.207 436.953 411.395 437.194C411.587 437.436 411.734 437.649 411.838 437.833H411.964V436.401H413.65V445.432C413.65 446.192 413.473 446.815 413.121 447.302C412.768 447.789 412.29 448.149 411.688 448.383C411.09 448.617 410.415 448.734 409.663 448.734ZM409.646 443.678C410.141 443.678 410.559 443.563 410.9 443.333C411.245 443.099 411.506 442.765 411.682 442.332C411.863 441.894 411.953 441.371 411.953 440.761C411.953 440.167 411.865 439.643 411.688 439.191C411.512 438.738 411.253 438.385 410.912 438.132C410.57 437.875 410.148 437.747 409.646 437.747C409.128 437.747 408.697 437.881 408.352 438.149C408.006 438.414 407.746 438.775 407.569 439.231C407.397 439.687 407.31 440.197 407.31 440.761C407.31 441.34 407.399 441.848 407.575 442.286C407.751 442.723 408.012 443.064 408.357 443.31C408.706 443.555 409.136 443.678 409.646 443.678ZM418.528 445.432C417.968 445.432 417.462 445.329 417.009 445.122C416.557 444.911 416.198 444.606 415.934 444.207C415.673 443.808 415.542 443.319 415.542 442.74C415.542 442.241 415.638 441.831 415.83 441.509C416.022 441.187 416.281 440.932 416.607 440.744C416.933 440.556 417.297 440.414 417.7 440.318C418.102 440.222 418.513 440.149 418.931 440.1C419.46 440.038 419.89 439.988 420.219 439.95C420.549 439.908 420.789 439.841 420.938 439.749C421.088 439.657 421.163 439.507 421.163 439.3V439.26C421.163 438.757 421.021 438.368 420.737 438.092C420.457 437.816 420.039 437.678 419.483 437.678C418.904 437.678 418.448 437.806 418.114 438.063C417.784 438.316 417.556 438.598 417.429 438.909L415.813 438.541C416.005 438.004 416.285 437.57 416.653 437.241C417.025 436.907 417.452 436.665 417.936 436.516C418.419 436.362 418.927 436.286 419.46 436.286C419.813 436.286 420.187 436.328 420.582 436.412C420.981 436.493 421.353 436.642 421.698 436.861C422.047 437.079 422.332 437.392 422.555 437.799C422.777 438.201 422.889 438.725 422.889 439.369V445.237H421.209V444.029H421.14C421.029 444.251 420.862 444.47 420.639 444.684C420.417 444.899 420.131 445.078 419.782 445.219C419.433 445.361 419.015 445.432 418.528 445.432ZM418.902 444.052C419.378 444.052 419.784 443.958 420.122 443.77C420.463 443.582 420.722 443.336 420.898 443.033C421.078 442.727 421.169 442.399 421.169 442.05V440.911C421.107 440.972 420.988 441.03 420.812 441.083C420.639 441.133 420.442 441.177 420.219 441.216C419.997 441.25 419.78 441.283 419.569 441.313C419.358 441.34 419.182 441.363 419.04 441.382C418.706 441.425 418.401 441.496 418.125 441.595C417.853 441.695 417.634 441.839 417.47 442.027C417.308 442.211 417.228 442.456 417.228 442.763C417.228 443.189 417.385 443.511 417.7 443.73C418.014 443.944 418.415 444.052 418.902 444.052ZM428.884 448.734C428.182 448.734 427.578 448.642 427.072 448.458C426.57 448.274 426.159 448.031 425.841 447.728C425.523 447.425 425.285 447.093 425.128 446.732L426.606 446.123C426.71 446.291 426.848 446.47 427.02 446.658C427.197 446.849 427.435 447.012 427.734 447.147C428.037 447.281 428.426 447.348 428.902 447.348C429.553 447.348 430.092 447.189 430.518 446.87C430.944 446.556 431.157 446.054 431.157 445.363V443.626H431.047C430.944 443.814 430.794 444.023 430.599 444.253C430.407 444.483 430.142 444.683 429.805 444.851C429.467 445.02 429.028 445.104 428.487 445.104C427.789 445.104 427.16 444.941 426.6 444.615C426.044 444.286 425.603 443.8 425.277 443.16C424.955 442.516 424.794 441.724 424.794 440.784C424.794 439.845 424.953 439.039 425.272 438.368C425.594 437.697 426.035 437.183 426.595 436.826C427.155 436.466 427.789 436.286 428.499 436.286C429.047 436.286 429.49 436.378 429.828 436.562C430.165 436.742 430.428 436.953 430.616 437.194C430.808 437.436 430.955 437.649 431.059 437.833H431.185V436.401H432.871V445.432C432.871 446.192 432.694 446.815 432.342 447.302C431.989 447.789 431.511 448.149 430.909 448.383C430.311 448.617 429.636 448.734 428.884 448.734ZM428.867 443.678C429.362 443.678 429.78 443.563 430.121 443.333C430.466 443.099 430.727 442.765 430.903 442.332C431.084 441.894 431.174 441.371 431.174 440.761C431.174 440.167 431.086 439.643 430.909 439.191C430.733 438.738 430.474 438.385 430.133 438.132C429.791 437.875 429.369 437.747 428.867 437.747C428.349 437.747 427.918 437.881 427.573 438.149C427.227 438.414 426.967 438.775 426.79 439.231C426.618 439.687 426.531 440.197 426.531 440.761C426.531 441.34 426.62 441.848 426.796 442.286C426.972 442.723 427.233 443.064 427.578 443.31C427.927 443.555 428.357 443.678 428.867 443.678ZM438.986 445.415C438.115 445.415 437.366 445.229 436.737 444.857C436.111 444.481 435.628 443.954 435.287 443.275C434.949 442.592 434.781 441.793 434.781 440.876C434.781 439.971 434.949 439.173 435.287 438.483C435.628 437.793 436.104 437.254 436.714 436.867C437.327 436.479 438.044 436.286 438.865 436.286C439.364 436.286 439.847 436.368 440.315 436.533C440.783 436.698 441.203 436.957 441.575 437.31C441.947 437.662 442.24 438.121 442.455 438.684C442.67 439.244 442.777 439.925 442.777 440.727V441.336H435.753V440.048H441.091C441.091 439.595 440.999 439.194 440.815 438.846C440.631 438.493 440.372 438.215 440.039 438.011C439.709 437.808 439.321 437.706 438.877 437.706C438.393 437.706 437.972 437.825 437.611 438.063C437.254 438.297 436.978 438.604 436.783 438.984C436.591 439.359 436.495 439.768 436.495 440.209V441.216C436.495 441.806 436.599 442.309 436.806 442.723C437.017 443.137 437.31 443.453 437.686 443.672C438.062 443.887 438.501 443.994 439.003 443.994C439.329 443.994 439.626 443.948 439.895 443.856C440.163 443.76 440.395 443.618 440.591 443.43C440.786 443.242 440.936 443.01 441.04 442.734L442.668 443.028C442.537 443.507 442.303 443.927 441.966 444.288C441.632 444.644 441.212 444.922 440.706 445.122C440.204 445.317 439.63 445.415 438.986 445.415ZM444.685 445.237V436.401H446.336V437.839H446.446C446.63 437.352 446.931 436.972 447.349 436.7C447.767 436.424 448.267 436.286 448.85 436.286C449.441 436.286 449.936 436.424 450.334 436.7C450.737 436.976 451.034 437.356 451.226 437.839H451.318C451.529 437.367 451.865 436.991 452.325 436.711C452.785 436.427 453.333 436.286 453.97 436.286C454.772 436.286 455.426 436.537 455.932 437.039C456.442 437.542 456.697 438.299 456.697 439.311V445.237H454.977V439.473C454.977 438.874 454.814 438.441 454.488 438.172C454.162 437.904 453.773 437.77 453.32 437.77C452.76 437.77 452.325 437.942 452.014 438.287C451.704 438.629 451.548 439.068 451.548 439.605V445.237H449.834V439.363C449.834 438.884 449.684 438.498 449.385 438.207C449.086 437.915 448.697 437.77 448.217 437.77C447.891 437.77 447.59 437.856 447.314 438.029C447.042 438.197 446.821 438.433 446.653 438.736C446.488 439.039 446.405 439.39 446.405 439.789V445.237H444.685ZM462.81 445.415C461.94 445.415 461.19 445.229 460.561 444.857C459.936 444.481 459.453 443.954 459.112 443.275C458.774 442.592 458.605 441.793 458.605 440.876C458.605 439.971 458.774 439.173 459.112 438.483C459.453 437.793 459.928 437.254 460.538 436.867C461.152 436.479 461.869 436.286 462.69 436.286C463.188 436.286 463.671 436.368 464.139 436.533C464.607 436.698 465.027 436.957 465.399 437.31C465.771 437.662 466.065 438.121 466.279 438.684C466.494 439.244 466.601 439.925 466.601 440.727V441.336H459.577V440.048H464.916C464.916 439.595 464.824 439.194 464.64 438.846C464.456 438.493 464.197 438.215 463.863 438.011C463.533 437.808 463.146 437.706 462.701 437.706C462.218 437.706 461.796 437.825 461.436 438.063C461.079 438.297 460.803 438.604 460.607 438.984C460.415 439.359 460.32 439.768 460.32 440.209V441.216C460.32 441.806 460.423 442.309 460.63 442.723C460.841 443.137 461.135 443.453 461.51 443.672C461.886 443.887 462.325 443.994 462.828 443.994C463.154 443.994 463.451 443.948 463.719 443.856C463.988 443.76 464.22 443.618 464.415 443.43C464.611 443.242 464.761 443.01 464.864 442.734L466.492 443.028C466.362 443.507 466.128 443.927 465.79 444.288C465.457 444.644 465.037 444.922 464.531 445.122C464.028 445.317 463.455 445.415 462.81 445.415ZM470.23 439.99V445.237H468.51V436.401H470.161V437.839H470.27C470.473 437.371 470.792 436.995 471.225 436.711C471.662 436.427 472.213 436.286 472.876 436.286C473.478 436.286 474.006 436.412 474.458 436.665C474.911 436.915 475.262 437.287 475.511 437.781C475.76 438.276 475.885 438.888 475.885 439.616V445.237H474.165V439.823C474.165 439.183 473.998 438.683 473.664 438.322C473.331 437.958 472.872 437.776 472.289 437.776C471.891 437.776 471.536 437.862 471.225 438.034C470.918 438.207 470.675 438.46 470.495 438.794C470.318 439.124 470.23 439.522 470.23 439.99ZM482.316 436.401V437.781H477.49V436.401H482.316ZM478.784 434.284H480.504V442.642C480.504 442.976 480.554 443.227 480.654 443.396C480.753 443.561 480.882 443.674 481.039 443.735C481.2 443.793 481.375 443.822 481.563 443.822C481.701 443.822 481.822 443.812 481.925 443.793C482.029 443.774 482.109 443.758 482.167 443.747L482.477 445.168C482.378 445.206 482.236 445.244 482.052 445.283C481.868 445.325 481.637 445.348 481.361 445.352C480.909 445.359 480.487 445.279 480.096 445.11C479.705 444.941 479.388 444.681 479.147 444.328C478.905 443.975 478.784 443.532 478.784 442.999V434.284ZM490.698 438.558L489.139 438.834C489.074 438.635 488.97 438.445 488.828 438.264C488.69 438.084 488.502 437.937 488.264 437.822C488.027 437.706 487.729 437.649 487.373 437.649C486.886 437.649 486.479 437.758 486.153 437.977C485.827 438.192 485.664 438.47 485.664 438.811C485.664 439.106 485.774 439.344 485.992 439.524C486.211 439.705 486.564 439.852 487.051 439.967L488.454 440.289C489.267 440.477 489.873 440.767 490.272 441.158C490.671 441.549 490.87 442.057 490.87 442.683C490.87 443.212 490.717 443.683 490.41 444.098C490.107 444.508 489.683 444.83 489.139 445.064C488.598 445.298 487.971 445.415 487.258 445.415C486.268 445.415 485.461 445.204 484.836 444.782C484.211 444.357 483.827 443.753 483.685 442.97L485.348 442.717C485.451 443.15 485.664 443.478 485.986 443.701C486.309 443.919 486.729 444.029 487.246 444.029C487.81 444.029 488.261 443.912 488.598 443.678C488.936 443.44 489.104 443.15 489.104 442.809C489.104 442.533 489.001 442.301 488.794 442.113C488.59 441.925 488.278 441.783 487.856 441.687L486.36 441.359C485.536 441.171 484.926 440.872 484.531 440.462C484.14 440.052 483.944 439.532 483.944 438.903C483.944 438.381 484.09 437.925 484.381 437.534C484.673 437.143 485.076 436.838 485.59 436.619C486.103 436.397 486.692 436.286 487.356 436.286C488.311 436.286 489.062 436.493 489.611 436.907C490.159 437.317 490.521 437.868 490.698 438.558Z" fill="#5A7184"/>
<path opacity="0.1" fill-rule="evenodd" clip-rule="evenodd" d="M292.646 453.714C309.705 453.714 323.533 439.885 323.533 422.827C323.533 405.768 309.705 391.94 292.646 391.94C275.588 391.94 261.759 405.768 261.759 422.827C261.759 439.885 275.588 453.714 292.646 453.714Z" fill="#FF965E"/>
<circle cx="289.076" cy="423.608" r="8.40506" stroke="#FF965E" stroke-width="1.57595" stroke-linecap="round"/>
<circle cx="297.481" cy="423.608" r="8.40506" stroke="#FF965E" stroke-width="1.57595" stroke-linecap="round"/>
<g filter="url(#filter3_d_480_2349)">
<rect x="307.987" y="22.266" width="181.925" height="119.521" rx="11.4887" fill="white"/>
</g>
<path d="M336.177 81.9316V66.273H337.18V81.9316H336.177ZM338.837 71.4416C338.788 70.9482 338.578 70.5649 338.207 70.2916C337.836 70.0184 337.333 69.8818 336.696 69.8818C336.264 69.8818 335.899 69.943 335.602 70.0653C335.304 70.1836 335.076 70.3487 334.916 70.5608C334.762 70.7728 334.684 71.0134 334.684 71.2825C334.676 71.5068 334.723 71.7026 334.825 71.8697C334.931 72.0369 335.076 72.1817 335.259 72.304C335.443 72.4223 335.655 72.5263 335.895 72.616C336.136 72.7016 336.393 72.775 336.666 72.8362L337.791 73.1053C338.338 73.2276 338.839 73.3907 339.296 73.5946C339.753 73.7985 340.148 74.0493 340.483 74.347C340.817 74.6447 341.076 74.9954 341.259 75.3991C341.447 75.8028 341.543 76.2656 341.547 76.7875C341.543 77.5542 341.347 78.2188 340.96 78.7816C340.576 79.3402 340.022 79.7745 339.296 80.0844C338.574 80.3903 337.704 80.5432 336.684 80.5432C335.673 80.5432 334.792 80.3882 334.042 80.0783C333.296 79.7684 332.712 79.3096 332.292 78.7021C331.876 78.0904 331.658 77.334 331.638 76.4328H334.201C334.229 76.8528 334.35 77.2035 334.562 77.4848C334.778 77.7621 335.065 77.9721 335.424 78.1149C335.787 78.2535 336.197 78.3228 336.654 78.3228C337.102 78.3228 337.492 78.2576 337.822 78.1271C338.156 77.9966 338.415 77.8151 338.599 77.5827C338.782 77.3503 338.874 77.0832 338.874 76.7814C338.874 76.5001 338.79 76.2635 338.623 76.0719C338.46 75.8802 338.219 75.7171 337.901 75.5826C337.587 75.448 337.202 75.3257 336.745 75.2156L335.381 74.873C334.325 74.6161 333.491 74.2145 332.88 73.668C332.268 73.1216 331.964 72.3856 331.968 71.4599C331.964 70.7015 332.166 70.0388 332.574 69.472C332.986 68.9052 333.55 68.4628 334.268 68.1447C334.986 67.8266 335.801 67.6676 336.715 67.6676C337.645 67.6676 338.456 67.8266 339.149 68.1447C339.847 68.4628 340.389 68.9052 340.776 69.472C341.164 70.0388 341.363 70.6953 341.376 71.4416H338.837ZM351.817 80.5371C350.952 80.5371 350.182 80.378 349.505 80.06C348.832 79.7419 348.298 79.3035 347.902 78.7449C347.507 78.1862 347.301 77.546 347.284 76.8242H349.853C349.882 77.3095 350.086 77.703 350.465 78.0048C350.844 78.3065 351.295 78.4574 351.817 78.4574C352.233 78.4574 352.6 78.3656 352.918 78.1821C353.24 77.9946 353.491 77.7356 353.67 77.4053C353.854 77.0709 353.945 76.6876 353.945 76.2554C353.945 75.815 353.852 75.4276 353.664 75.0932C353.481 74.7588 353.226 74.4979 352.899 74.3103C352.573 74.1227 352.2 74.0269 351.78 74.0228C351.413 74.0228 351.056 74.0982 350.71 74.2491C350.367 74.4 350.1 74.6059 349.908 74.8669L347.554 74.4449L348.147 67.8389H355.805V70.0042H350.33L350.006 73.142H350.08C350.3 72.8321 350.632 72.5752 351.077 72.3713C351.521 72.1674 352.019 72.0655 352.569 72.0655C353.324 72.0655 353.996 72.2429 354.588 72.5976C355.179 72.9524 355.646 73.4397 355.988 74.0595C356.331 74.6752 356.5 75.3848 356.496 76.1881C356.5 77.0322 356.304 77.7825 355.909 78.439C355.517 79.0915 354.969 79.6053 354.263 79.9804C353.562 80.3515 352.747 80.5371 351.817 80.5371ZM363.255 80.641C362.203 80.637 361.298 80.378 360.539 79.8642C359.785 79.3504 359.204 78.6062 358.796 77.6316C358.392 76.657 358.192 75.4847 358.196 74.1146C358.196 72.7485 358.398 71.5843 358.802 70.6219C359.21 69.6596 359.791 68.9276 360.545 68.4261C361.304 67.9204 362.207 67.6676 363.255 67.6676C364.303 67.6676 365.204 67.9204 365.959 68.4261C366.717 68.9317 367.3 69.6657 367.708 70.6281C368.116 71.5863 368.318 72.7485 368.313 74.1146C368.313 75.4888 368.11 76.6632 367.702 77.6378C367.298 78.6123 366.719 79.3565 365.965 79.8703C365.21 80.3841 364.307 80.641 363.255 80.641ZM363.255 78.4452C363.973 78.4452 364.546 78.0843 364.974 77.3625C365.402 76.6407 365.614 75.5581 365.61 74.1146C365.61 73.1644 365.512 72.3733 365.316 71.7413C365.125 71.1092 364.851 70.6342 364.497 70.3161C364.146 69.998 363.732 69.839 363.255 69.839C362.541 69.839 361.97 70.1958 361.542 70.9094C361.114 71.623 360.898 72.6914 360.894 74.1146C360.894 75.0769 360.99 75.8802 361.181 76.5245C361.377 77.1647 361.652 77.6459 362.007 77.9681C362.362 78.2861 362.778 78.4452 363.255 78.4452ZM371.245 80.5248C370.841 80.5248 370.495 80.3821 370.205 80.0967C369.92 79.8071 369.777 79.4605 369.777 79.0568C369.777 78.6572 369.92 78.3147 370.205 78.0292C370.495 77.7438 370.841 77.6011 371.245 77.6011C371.636 77.6011 371.979 77.7438 372.272 78.0292C372.566 78.3147 372.713 78.6572 372.713 79.0568C372.713 79.326 372.644 79.5727 372.505 79.7969C372.37 80.0171 372.193 80.1945 371.973 80.3291C371.753 80.4596 371.51 80.5248 371.245 80.5248ZM379.054 80.5371C378.141 80.5371 377.327 80.3801 376.614 80.0661C375.904 79.748 375.344 79.3117 374.932 78.7571C374.524 78.1984 374.314 77.5542 374.302 76.8242H376.969C376.985 77.1301 377.085 77.3992 377.268 77.6316C377.456 77.86 377.705 78.0374 378.014 78.1638C378.324 78.2902 378.673 78.3534 379.06 78.3534C379.464 78.3534 379.821 78.282 380.131 78.1393C380.441 77.9966 380.683 77.7988 380.859 77.546C381.034 77.2932 381.122 77.0016 381.122 76.6713C381.122 76.3369 381.028 76.0413 380.84 75.7844C380.657 75.5234 380.392 75.3195 380.045 75.1727C379.703 75.0259 379.295 74.9525 378.822 74.9525H377.654V73.0074H378.822C379.221 73.0074 379.574 72.9381 379.88 72.7995C380.19 72.6608 380.431 72.4692 380.602 72.2245C380.773 71.9758 380.859 71.6862 380.859 71.3559C380.859 71.042 380.783 70.7667 380.632 70.5302C380.486 70.2896 380.278 70.102 380.009 69.9675C379.743 69.8329 379.434 69.7656 379.079 69.7656C378.72 69.7656 378.392 69.8309 378.094 69.9613C377.796 70.0878 377.558 70.2692 377.378 70.5057C377.199 70.7422 377.103 71.0195 377.091 71.3376H374.552C374.565 70.6158 374.771 69.9797 375.17 69.4292C375.57 68.8787 376.108 68.4485 376.785 68.1386C377.466 67.8246 378.235 67.6676 379.091 67.6676C379.955 67.6676 380.712 67.8246 381.36 68.1386C382.009 68.4526 382.512 68.8767 382.871 69.4108C383.234 69.941 383.413 70.5363 383.409 71.1969C383.413 71.8983 383.195 72.4834 382.755 72.9524C382.319 73.4213 381.75 73.719 381.048 73.8454V73.9433C381.97 74.0615 382.671 74.3816 383.152 74.9036C383.638 75.4215 383.878 76.0698 383.874 76.8487C383.878 77.5623 383.672 78.1964 383.256 78.751C382.845 79.3056 382.276 79.7419 381.55 80.06C380.824 80.378 379.992 80.5371 379.054 80.5371ZM390.586 80.5371C389.941 80.533 389.32 80.4249 388.72 80.2129C388.125 80.0008 387.591 79.6563 387.118 79.1792C386.645 78.7021 386.269 78.07 385.992 77.283C385.719 76.496 385.582 75.5295 385.582 74.3837C385.586 73.3316 385.707 72.3917 385.943 71.5639C386.184 70.732 386.526 70.0266 386.971 69.4475C387.419 68.8685 387.956 68.4281 388.579 68.1263C389.203 67.8205 389.903 67.6676 390.677 67.6676C391.513 67.6676 392.252 67.8307 392.892 68.1569C393.532 68.4791 394.046 68.9174 394.433 69.472C394.825 70.0266 395.061 70.6484 395.143 71.3376H392.531C392.429 70.9013 392.215 70.5587 391.889 70.31C391.562 70.0612 391.159 69.9369 390.677 69.9369C389.862 69.9369 389.242 70.2916 388.818 71.0012C388.398 71.7107 388.184 72.6751 388.176 73.8944H388.261C388.449 73.5233 388.702 73.2073 389.02 72.9463C389.342 72.6812 389.707 72.4794 390.115 72.3407C390.527 72.198 390.961 72.1266 391.418 72.1266C392.16 72.1266 392.82 72.302 393.399 72.6527C393.978 72.9993 394.435 73.4764 394.77 74.084C395.104 74.6916 395.271 75.3868 395.271 76.1698C395.271 77.0179 395.073 77.7723 394.678 78.4329C394.286 79.0935 393.738 79.6114 393.032 79.9866C392.331 80.3576 391.515 80.5411 390.586 80.5371ZM390.574 78.4574C390.981 78.4574 391.346 78.3595 391.668 78.1638C391.991 77.9681 392.243 77.703 392.427 77.3686C392.61 77.0342 392.702 76.6591 392.702 76.2432C392.702 75.8272 392.61 75.4541 392.427 75.1238C392.247 74.7935 391.999 74.5305 391.681 74.3348C391.363 74.139 391 74.0412 390.592 74.0412C390.286 74.0412 390.003 74.0982 389.742 74.2124C389.485 74.3266 389.258 74.4856 389.063 74.6895C388.871 74.8934 388.72 75.1299 388.61 75.3991C388.5 75.6641 388.445 75.9475 388.445 76.2493C388.445 76.653 388.537 77.022 388.72 77.3564C388.908 77.6908 389.161 77.9579 389.479 78.1577C389.801 78.3575 390.166 78.4574 390.574 78.4574Z" fill="#333333"/>
<path d="M331.792 56.2318V48.5908H336.583V49.5833H332.945V51.9114H336.333V52.9001H332.945V55.2394H336.628V56.2318H331.792ZM339.701 56.3587C339.338 56.3587 339.01 56.2915 338.716 56.1572C338.423 56.0204 338.19 55.8227 338.018 55.564C337.849 55.3053 337.765 54.9882 337.765 54.6126C337.765 54.2892 337.827 54.0231 337.951 53.8142C338.076 53.6052 338.244 53.4398 338.455 53.3179C338.666 53.1961 338.903 53.104 339.164 53.0419C339.425 52.9797 339.691 52.9324 339.962 52.9001C340.306 52.8603 340.584 52.8279 340.798 52.8031C341.012 52.7757 341.167 52.7322 341.264 52.6725C341.361 52.6128 341.41 52.5158 341.41 52.3815V52.3554C341.41 52.0295 341.318 51.7771 341.134 51.598C340.952 51.4189 340.681 51.3294 340.32 51.3294C339.945 51.3294 339.649 51.4127 339.432 51.5793C339.219 51.7435 339.071 51.9263 338.989 52.1278L337.94 51.889C338.064 51.5408 338.246 51.2597 338.485 51.0458C338.726 50.8294 339.003 50.6727 339.317 50.5757C339.63 50.4762 339.96 50.4265 340.306 50.4265C340.534 50.4265 340.777 50.4538 341.033 50.5085C341.292 50.5608 341.533 50.6578 341.757 50.7996C341.983 50.9413 342.169 51.1441 342.313 51.4077C342.457 51.6689 342.529 52.0084 342.529 52.4263V56.2318H341.44V55.4483H341.395C341.323 55.5926 341.215 55.7344 341.07 55.8736C340.926 56.0129 340.741 56.1286 340.514 56.2206C340.288 56.3126 340.017 56.3587 339.701 56.3587ZM339.944 55.4632C340.252 55.4632 340.516 55.4023 340.735 55.2804C340.956 55.1585 341.124 54.9994 341.238 54.8029C341.355 54.6039 341.414 54.3912 341.414 54.1649V53.4261C341.374 53.4659 341.297 53.5032 341.182 53.5381C341.07 53.5704 340.942 53.599 340.798 53.6239C340.654 53.6463 340.513 53.6674 340.376 53.6873C340.24 53.7047 340.125 53.7196 340.033 53.7321C339.817 53.7594 339.619 53.8055 339.44 53.8701C339.263 53.9348 339.122 54.0281 339.015 54.1499C338.91 54.2693 338.858 54.4285 338.858 54.6275C338.858 54.9036 338.96 55.1125 339.164 55.2543C339.368 55.3936 339.628 55.4632 339.944 55.4632ZM344.015 56.2318V50.5011H345.093V51.4114H345.153C345.257 51.103 345.441 50.8605 345.705 50.6839C345.971 50.5048 346.272 50.4153 346.608 50.4153C346.678 50.4153 346.76 50.4178 346.854 50.4227C346.951 50.4277 347.027 50.4339 347.082 50.4414V51.5084C347.037 51.496 346.957 51.4823 346.843 51.4674C346.729 51.45 346.614 51.4413 346.5 51.4413C346.236 51.4413 346.001 51.4972 345.795 51.6092C345.591 51.7186 345.429 51.8716 345.31 52.0681C345.19 52.2621 345.131 52.4835 345.131 52.7322V56.2318H344.015ZM349.163 52.8292V56.2318H348.047V50.5011H349.118V51.4338H349.189C349.321 51.1304 349.527 50.8866 349.808 50.7026C350.092 50.5185 350.449 50.4265 350.879 50.4265C351.27 50.4265 351.612 50.5085 351.905 50.6727C352.199 50.8344 352.426 51.0757 352.588 51.3965C352.749 51.7174 352.83 52.1141 352.83 52.5867V56.2318H351.715V52.721C351.715 52.3056 351.607 51.981 351.39 51.7472C351.174 51.5109 350.877 51.3928 350.498 51.3928C350.24 51.3928 350.01 51.4487 349.808 51.5607C349.609 51.6726 349.451 51.8368 349.334 52.0532C349.22 52.2671 349.163 52.5257 349.163 52.8292ZM354.326 56.2318V50.5011H355.442V56.2318H354.326ZM354.89 49.6169C354.696 49.6169 354.529 49.5522 354.39 49.4228C354.253 49.291 354.185 49.1343 354.185 48.9527C354.185 48.7687 354.253 48.612 354.39 48.4826C354.529 48.3508 354.696 48.2849 354.89 48.2849C355.084 48.2849 355.249 48.3508 355.386 48.4826C355.525 48.612 355.595 48.7687 355.595 48.9527C355.595 49.1343 355.525 49.291 355.386 49.4228C355.249 49.5522 355.084 49.6169 354.89 49.6169ZM358.058 52.8292V56.2318H356.943V50.5011H358.014V51.4338H358.084C358.216 51.1304 358.423 50.8866 358.704 50.7026C358.987 50.5185 359.344 50.4265 359.775 50.4265C360.165 50.4265 360.507 50.5085 360.801 50.6727C361.094 50.8344 361.322 51.0757 361.483 51.3965C361.645 51.7174 361.726 52.1141 361.726 52.5867V56.2318H360.61V52.721C360.61 52.3056 360.502 51.981 360.286 51.7472C360.069 51.5109 359.772 51.3928 359.394 51.3928C359.135 51.3928 358.905 51.4487 358.704 51.5607C358.505 51.6726 358.347 51.8368 358.23 52.0532C358.115 52.2671 358.058 52.5257 358.058 52.8292ZM365.625 58.5002C365.169 58.5002 364.778 58.4405 364.449 58.3211C364.124 58.2017 363.857 58.0438 363.651 57.8473C363.445 57.6508 363.29 57.4357 363.188 57.2019L364.147 56.8064C364.214 56.9158 364.304 57.0315 364.416 57.1534C364.53 57.2777 364.684 57.3834 364.878 57.4705C365.075 57.5575 365.327 57.6011 365.636 57.6011C366.059 57.6011 366.408 57.4978 366.684 57.2914C366.96 57.0874 367.098 56.7616 367.098 56.3139V55.1871H367.027C366.96 55.309 366.863 55.4446 366.736 55.5938C366.612 55.7431 366.44 55.8724 366.222 55.9818C366.003 56.0913 365.718 56.146 365.367 56.146C364.915 56.146 364.507 56.0403 364.143 55.8289C363.783 55.615 363.497 55.3003 363.285 54.8849C363.076 54.4671 362.972 53.9535 362.972 53.3441C362.972 52.7347 363.075 52.2123 363.282 51.7771C363.491 51.3418 363.777 51.0085 364.14 50.7772C364.503 50.5434 364.915 50.4265 365.375 50.4265C365.73 50.4265 366.018 50.4862 366.237 50.6056C366.455 50.7225 366.626 50.8593 366.748 51.016C366.872 51.1727 366.968 51.3107 367.035 51.4301H367.117V50.5011H368.21V56.3587C368.21 56.8511 368.096 57.2553 367.867 57.5712C367.638 57.8871 367.328 58.1209 366.938 58.2726C366.55 58.4244 366.112 58.5002 365.625 58.5002ZM365.613 55.2207C365.934 55.2207 366.205 55.1461 366.427 54.9969C366.651 54.8451 366.82 54.6288 366.934 54.3477C367.051 54.0641 367.11 53.7246 367.11 53.3291C367.11 52.9436 367.052 52.6041 366.938 52.3106C366.824 52.0171 366.656 51.7883 366.434 51.6241C366.213 51.4575 365.939 51.3741 365.613 51.3741C365.278 51.3741 364.998 51.4612 364.774 51.6353C364.55 51.8069 364.381 52.0407 364.267 52.3367C364.155 52.6327 364.099 52.9635 364.099 53.3291C364.099 53.7047 364.156 54.0343 364.27 54.3178C364.385 54.6014 364.554 54.8228 364.778 54.9819C365.004 55.1411 365.283 55.2207 365.613 55.2207ZM374.001 51.9002L372.99 52.0793C372.947 51.9499 372.88 51.8268 372.788 51.7099C372.699 51.593 372.577 51.4972 372.422 51.4226C372.268 51.348 372.075 51.3107 371.844 51.3107C371.528 51.3107 371.265 51.3816 371.053 51.5234C370.842 51.6627 370.736 51.843 370.736 52.0644C370.736 52.2559 370.807 52.4101 370.949 52.527C371.09 52.6439 371.319 52.7397 371.635 52.8143L372.546 53.0232C373.073 53.1451 373.466 53.3329 373.725 53.5866C373.983 53.8403 374.113 54.1698 374.113 54.5753C374.113 54.9185 374.013 55.2245 373.814 55.4931C373.618 55.7592 373.343 55.9682 372.99 56.1199C372.639 56.2716 372.232 56.3475 371.769 56.3475C371.128 56.3475 370.604 56.2107 370.199 55.9371C369.793 55.661 369.545 55.2692 369.453 54.7618L370.531 54.5977C370.598 54.8787 370.736 55.0914 370.945 55.2357C371.154 55.3774 371.426 55.4483 371.762 55.4483C372.128 55.4483 372.42 55.3725 372.639 55.2207C372.858 55.0665 372.967 54.8787 372.967 54.6574C372.967 54.4783 372.9 54.3278 372.766 54.2059C372.634 54.084 372.431 53.992 372.158 53.9298L371.187 53.7172C370.653 53.5953 370.257 53.4013 370.001 53.1351C369.747 52.869 369.62 52.532 369.62 52.124C369.62 51.7858 369.715 51.4898 369.904 51.2361C370.093 50.9824 370.354 50.7846 370.688 50.6429C371.021 50.4986 371.403 50.4265 371.833 50.4265C372.452 50.4265 372.94 50.5608 373.295 50.8294C373.651 51.0955 373.886 51.4525 374.001 51.9002ZM377.832 49.5833V48.5908H383.746V49.5833H381.362V56.2318H380.213V49.5833H377.832ZM386.079 52.8292V56.2318H384.963V48.5908H386.064V51.4338H386.135C386.269 51.1254 386.474 50.8804 386.75 50.6988C387.026 50.5173 387.387 50.4265 387.832 50.4265C388.225 50.4265 388.568 50.5073 388.862 50.669C389.158 50.8307 389.387 51.0719 389.548 51.3928C389.713 51.7112 389.795 52.1091 389.795 52.5867V56.2318H388.679V52.721C388.679 52.3006 388.571 51.9748 388.354 51.7435C388.138 51.5097 387.837 51.3928 387.452 51.3928C387.188 51.3928 386.952 51.4487 386.743 51.5607C386.536 51.6726 386.373 51.8368 386.254 52.0532C386.137 52.2671 386.079 52.5257 386.079 52.8292ZM391.283 56.2318V50.5011H392.399V56.2318H391.283ZM391.847 49.6169C391.653 49.6169 391.486 49.5522 391.347 49.4228C391.21 49.291 391.141 49.1343 391.141 48.9527C391.141 48.7687 391.21 48.612 391.347 48.4826C391.486 48.3508 391.653 48.2849 391.847 48.2849C392.041 48.2849 392.206 48.3508 392.343 48.4826C392.482 48.612 392.552 48.7687 392.552 48.9527C392.552 49.1343 392.482 49.291 392.343 49.4228C392.206 49.5522 392.041 49.6169 391.847 49.6169ZM398.194 51.9002L397.183 52.0793C397.141 51.9499 397.073 51.8268 396.981 51.7099C396.892 51.593 396.77 51.4972 396.616 51.4226C396.461 51.348 396.269 51.3107 396.037 51.3107C395.722 51.3107 395.458 51.3816 395.246 51.5234C395.035 51.6627 394.929 51.843 394.929 52.0644C394.929 52.2559 395 52.4101 395.142 52.527C395.284 52.6439 395.513 52.7397 395.828 52.8143L396.739 53.0232C397.266 53.1451 397.659 53.3329 397.918 53.5866C398.176 53.8403 398.306 54.1698 398.306 54.5753C398.306 54.9185 398.206 55.2245 398.007 55.4931C397.811 55.7592 397.536 55.9682 397.183 56.1199C396.832 56.2716 396.425 56.3475 395.963 56.3475C395.321 56.3475 394.797 56.2107 394.392 55.9371C393.987 55.661 393.738 55.2692 393.646 54.7618L394.724 54.5977C394.791 54.8787 394.929 55.0914 395.138 55.2357C395.347 55.3774 395.62 55.4483 395.955 55.4483C396.321 55.4483 396.613 55.3725 396.832 55.2207C397.051 55.0665 397.16 54.8787 397.16 54.6574C397.16 54.4783 397.093 54.3278 396.959 54.2059C396.827 54.084 396.624 53.992 396.351 53.9298L395.381 53.7172C394.846 53.5953 394.451 53.4013 394.194 53.1351C393.941 52.869 393.814 52.532 393.814 52.124C393.814 51.7858 393.908 51.4898 394.097 51.2361C394.286 50.9824 394.548 50.7846 394.881 50.6429C395.214 50.4986 395.596 50.4265 396.026 50.4265C396.646 50.4265 397.133 50.5608 397.489 50.8294C397.844 51.0955 398.079 51.4525 398.194 51.9002ZM402.402 48.5908H403.801L406.234 54.5305H406.324L408.756 48.5908H410.155V56.2318H409.058V50.7026H408.988L406.734 56.2206H405.824L403.57 50.6988H403.499V56.2318H402.402V48.5908ZM414.156 56.3475C413.619 56.3475 413.15 56.2243 412.749 55.9781C412.349 55.7319 412.038 55.3874 411.816 54.9446C411.595 54.5019 411.484 53.9845 411.484 53.3926C411.484 52.7981 411.595 52.2783 411.816 51.833C412.038 51.3878 412.349 51.0421 412.749 50.7958C413.15 50.5496 413.619 50.4265 414.156 50.4265C414.693 50.4265 415.162 50.5496 415.562 50.7958C415.963 51.0421 416.274 51.3878 416.495 51.833C416.716 52.2783 416.827 52.7981 416.827 53.3926C416.827 53.9845 416.716 54.5019 416.495 54.9446C416.274 55.3874 415.963 55.7319 415.562 55.9781C415.162 56.2243 414.693 56.3475 414.156 56.3475ZM414.16 55.411C414.508 55.411 414.796 55.319 415.025 55.1349C415.254 54.9509 415.423 54.7059 415.532 54.3999C415.644 54.094 415.7 53.757 415.7 53.3888C415.7 53.0232 415.644 52.6874 415.532 52.3815C415.423 52.0731 415.254 51.8256 415.025 51.639C414.796 51.4525 414.508 51.3592 414.16 51.3592C413.809 51.3592 413.518 51.4525 413.286 51.639C413.058 51.8256 412.887 52.0731 412.775 52.3815C412.666 52.6874 412.611 53.0232 412.611 53.3888C412.611 53.757 412.666 54.094 412.775 54.3999C412.887 54.7059 413.058 54.9509 413.286 55.1349C413.518 55.319 413.809 55.411 414.16 55.411ZM419.188 52.8292V56.2318H418.072V50.5011H419.143V51.4338H419.214C419.346 51.1304 419.552 50.8866 419.833 50.7026C420.117 50.5185 420.474 50.4265 420.904 50.4265C421.295 50.4265 421.637 50.5085 421.93 50.6727C422.224 50.8344 422.451 51.0757 422.613 51.3965C422.775 51.7174 422.855 52.1141 422.855 52.5867V56.2318H421.74V52.721C421.74 52.3056 421.632 51.981 421.415 51.7472C421.199 51.5109 420.902 51.3928 420.524 51.3928C420.265 51.3928 420.035 51.4487 419.833 51.5607C419.634 51.6726 419.476 51.8368 419.36 52.0532C419.245 52.2671 419.188 52.5257 419.188 52.8292ZM427.027 50.5011V51.3965H423.896V50.5011H427.027ZM424.736 49.1281H425.851V54.5492C425.851 54.7656 425.884 54.9285 425.948 55.0379C426.013 55.1449 426.096 55.2182 426.198 55.258C426.303 55.2953 426.416 55.314 426.538 55.314C426.627 55.314 426.706 55.3078 426.773 55.2953C426.84 55.2829 426.892 55.273 426.93 55.2655L427.131 56.187C427.066 56.2119 426.974 56.2368 426.855 56.2617C426.736 56.289 426.586 56.3039 426.407 56.3064C426.114 56.3114 425.84 56.2592 425.586 56.1497C425.333 56.0403 425.128 55.8712 424.971 55.6423C424.814 55.4135 424.736 55.1262 424.736 54.7805V49.1281ZM429.499 52.8292V56.2318H428.384V48.5908H429.484V51.4338H429.555C429.69 51.1254 429.895 50.8804 430.171 50.6988C430.447 50.5173 430.808 50.4265 431.253 50.4265C431.646 50.4265 431.989 50.5073 432.283 50.669C432.579 50.8307 432.807 51.0719 432.969 51.3928C433.133 51.7112 433.215 52.1091 433.215 52.5867V56.2318H432.1V52.721C432.1 52.3006 431.992 51.9748 431.775 51.7435C431.559 51.5097 431.258 51.3928 430.872 51.3928C430.609 51.3928 430.372 51.4487 430.163 51.5607C429.957 51.6726 429.794 51.8368 429.675 52.0532C429.558 52.2671 429.499 52.5257 429.499 52.8292Z" fill="#5A7184"/>
<g filter="url(#filter4_d_480_2349)">
<path d="M358.908 118.822L358.48 120.192L358.868 120.313L359.262 120.213L358.908 118.822ZM411.616 105.427L412.147 104.093L411.714 103.921L411.263 104.036L411.616 105.427ZM440.154 116.783L439.623 118.117L440.327 118.397L440.956 117.974L440.154 116.783ZM467.747 99.9192C468.404 99.4762 468.578 98.5841 468.135 97.9267C467.692 97.2694 466.8 97.0956 466.142 97.5386L467.747 99.9192ZM330.525 111.456L358.48 120.192L359.337 117.452L331.381 108.716L330.525 111.456ZM359.262 120.213L411.97 106.818L411.263 104.036L358.555 117.431L359.262 120.213ZM411.085 106.76L439.623 118.117L440.685 115.45L412.147 104.093L411.085 106.76ZM440.956 117.974L467.747 99.9192L466.142 97.5386L439.352 115.593L440.956 117.974Z" fill="#1ECAAB"/>
</g>
<path fill-rule="evenodd" clip-rule="evenodd" d="M410.583 77.6451C410.422 77.7106 410.232 77.6473 410.142 77.4906C410.043 77.3195 410.099 77.102 410.268 77.0047L415.631 73.9081L412.563 73.0684L412.514 73.0508C412.355 72.9811 412.265 72.8036 412.31 72.631C412.359 72.4412 412.552 72.3292 412.741 72.381L416.631 73.4455C416.654 73.4513 416.676 73.4594 416.698 73.4696C416.851 73.5425 416.936 73.717 416.892 73.8863L415.866 77.7946L415.849 77.8443C415.781 78.003 415.606 78.0905 415.434 78.0428C415.245 77.9902 415.132 77.7939 415.182 77.6043L415.99 74.5271L410.626 77.6241L410.583 77.6451Z" fill="#1ECAAB"/>
<path d="M424.53 71.5032V77.1405H423.677V72.3565H423.644L422.295 73.2373V72.4225L423.702 71.5032H424.53ZM426.055 77.1405V76.5239L427.963 74.5475C428.166 74.3328 428.334 74.1447 428.467 73.9833C428.6 73.8199 428.7 73.6649 428.767 73.5181C428.833 73.3713 428.866 73.2153 428.866 73.0501C428.866 72.8629 428.822 72.7015 428.734 72.5657C428.645 72.428 428.525 72.3225 428.373 72.2491C428.221 72.1739 428.049 72.1363 427.858 72.1363C427.656 72.1363 427.48 72.1775 427.33 72.2601C427.179 72.3427 427.064 72.4592 426.983 72.6097C426.902 72.7602 426.862 72.9363 426.862 73.1382H426.05C426.05 72.795 426.129 72.495 426.286 72.2381C426.444 71.9812 426.661 71.7821 426.936 71.6408C427.211 71.4976 427.524 71.4261 427.875 71.4261C428.229 71.4261 428.541 71.4967 428.811 71.638C429.082 71.7775 429.294 71.9683 429.446 72.2106C429.599 72.451 429.675 72.7226 429.675 73.0253C429.675 73.2345 429.635 73.4392 429.557 73.6392C429.479 73.8392 429.345 74.0622 429.152 74.3081C428.959 74.5521 428.691 74.8485 428.348 75.1972L427.228 76.3698V76.4111H429.766V77.1405H426.055ZM433.752 76.0835V75.7862C433.752 75.5733 433.796 75.3788 433.884 75.2027C433.974 75.0247 434.104 74.8824 434.275 74.776C434.447 74.6677 434.655 74.6136 434.899 74.6136C435.149 74.6136 435.358 74.6668 435.527 74.7733C435.696 74.8797 435.823 75.0219 435.91 75.1999C435.998 75.3779 436.042 75.5733 436.042 75.7862V76.0835C436.042 76.2964 435.998 76.4918 435.91 76.6698C435.822 76.846 435.692 76.9882 435.521 77.0965C435.353 77.2029 435.145 77.2561 434.899 77.2561C434.652 77.2561 434.442 77.2029 434.272 77.0965C434.101 76.9882 433.972 76.846 433.884 76.6698C433.796 76.4918 433.752 76.2964 433.752 76.0835ZM434.393 75.7862V76.0835C434.393 76.2413 434.431 76.3845 434.506 76.5129C434.581 76.6414 434.712 76.7056 434.899 76.7056C435.085 76.7056 435.214 76.6414 435.287 76.5129C435.361 76.3845 435.398 76.2413 435.398 76.0835V75.7862C435.398 75.6284 435.362 75.4853 435.29 75.3568C435.221 75.2284 435.09 75.1641 434.899 75.1641C434.716 75.1641 434.586 75.2284 434.509 75.3568C434.431 75.4853 434.393 75.6284 434.393 75.7862ZM430.916 72.8574V72.5602C430.916 72.3473 430.96 72.1519 431.048 71.9738C431.138 71.7958 431.269 71.6536 431.439 71.5472C431.612 71.4408 431.82 71.3875 432.064 71.3875C432.314 71.3875 432.523 71.4408 432.692 71.5472C432.861 71.6536 432.988 71.7958 433.074 71.9738C433.161 72.1519 433.204 72.3473 433.204 72.5602V72.8574C433.204 73.0703 433.16 73.2657 433.072 73.4437C432.985 73.6199 432.857 73.7621 432.686 73.8704C432.517 73.9768 432.31 74.0301 432.064 74.0301C431.815 74.0301 431.605 73.9768 431.434 73.8704C431.265 73.7621 431.137 73.6199 431.048 73.4437C430.96 73.2657 430.916 73.0703 430.916 72.8574ZM431.56 72.5602V72.8574C431.56 73.0153 431.597 73.1584 431.671 73.2868C431.746 73.4153 431.877 73.4795 432.064 73.4795C432.248 73.4795 432.376 73.4153 432.45 73.2868C432.525 73.1584 432.562 73.0153 432.562 72.8574V72.5602C432.562 72.4023 432.527 72.2592 432.455 72.1307C432.383 72.0023 432.253 71.9381 432.064 71.9381C431.881 71.9381 431.75 72.0023 431.673 72.1307C431.598 72.2592 431.56 72.4023 431.56 72.5602ZM431.178 77.1405L435.054 71.5032H435.711L431.836 77.1405H431.178Z" fill="#1ECAAB"/>
<defs>
<filter id="filter0_d_480_2349" x="59.3641" y="42.0555" width="373.557" height="425.908" filterUnits="userSpaceOnUse" color-interpolation-filters="sRGB">
<feFlood flood-opacity="0" result="BackgroundImageFix"/>
<feColorMatrix in="SourceAlpha" type="matrix" values="0 0 0 0 0 0 0 0 0 0 0 0 0 0 0 0 0 0 127 0" result="hardAlpha"/>
<feOffset dy="12.122"/>
<feGaussianBlur stdDeviation="14.3538"/>
<feColorMatrix type="matrix" values="0 0 0 0 0 0 0 0 0 0 0 0 0 0 0 0 0 0 0.1 0"/>
<feBlend mode="normal" in2="BackgroundImageFix" result="effect1_dropShadow_480_2349"/>
<feBlend mode="normal" in="SourceGraphic" in2="effect1_dropShadow_480_2349" result="shape"/>
</filter>
<filter id="filter1_d_480_2349" x="0.774612" y="154.808" width="262.463" height="165.805" filterUnits="userSpaceOnUse" color-interpolation-filters="sRGB">
<feFlood flood-opacity="0" result="BackgroundImageFix"/>
<feColorMatrix in="SourceAlpha" type="matrix" values="0 0 0 0 0 0 0 0 0 0 0 0 0 0 0 0 0 0 127 0" result="hardAlpha"/>
<feOffset dy="15.2995"/>
<feGaussianBlur stdDeviation="17.5494"/>
<feColorMatrix type="matrix" values="0 0 0 0 0 0 0 0 0 0 0 0 0 0 0 0 0 0 0.05 0"/>
<feBlend mode="normal" in2="BackgroundImageFix" result="effect1_dropShadow_480_2349"/>
<feBlend mode="normal" in="SourceGraphic" in2="effect1_dropShadow_480_2349" result="shape"/>
</filter>
<filter id="filter2_d_480_2349" x="215.104" y="358.631" width="327.603" height="160.552" filterUnits="userSpaceOnUse" color-interpolation-filters="sRGB">
<feFlood flood-opacity="0" result="BackgroundImageFix"/>
<feColorMatrix in="SourceAlpha" type="matrix" values="0 0 0 0 0 0 0 0 0 0 0 0 0 0 0 0 0 0 127 0" result="hardAlpha"/>
<feOffset dy="15.2995"/>
<feGaussianBlur stdDeviation="17.5494"/>
<feColorMatrix type="matrix" values="0 0 0 0 0 0 0 0 0 0 0 0 0 0 0 0 0 0 0.05 0"/>
<feBlend mode="normal" in2="BackgroundImageFix" result="effect1_dropShadow_480_2349"/>
<feBlend mode="normal" in="SourceGraphic" in2="effect1_dropShadow_480_2349" result="shape"/>
</filter>
<filter id="filter3_d_480_2349" x="268.821" y="0.172392" width="260.257" height="197.853" filterUnits="userSpaceOnUse" color-interpolation-filters="sRGB">
<feFlood flood-opacity="0" result="BackgroundImageFix"/>
<feColorMatrix in="SourceAlpha" type="matrix" values="0 0 0 0 0 0 0 0 0 0 0 0 0 0 0 0 0 0 127 0" result="hardAlpha"/>
<feOffset dy="17.0723"/>
<feGaussianBlur stdDeviation="19.583"/>
<feColorMatrix type="matrix" values="0 0 0 0 0 0 0 0 0 0 0 0 0 0 0 0 0 0 0.05 0"/>
<feBlend mode="normal" in2="BackgroundImageFix" result="effect1_dropShadow_480_2349"/>
<feBlend mode="normal" in="SourceGraphic" in2="effect1_dropShadow_480_2349" result="shape"/>
</filter>
<filter id="filter4_d_480_2349" x="328.228" y="97.2934" width="142.448" height="27.6128" filterUnits="userSpaceOnUse" color-interpolation-filters="sRGB">
<feFlood flood-opacity="0" result="BackgroundImageFix"/>
<feColorMatrix in="SourceAlpha" type="matrix" values="0 0 0 0 0 0 0 0 0 0 0 0 0 0 0 0 0 0 127 0" result="hardAlpha"/>
<feOffset dy="2.2966"/>
<feGaussianBlur stdDeviation="1.1483"/>
<feColorMatrix type="matrix" values="0 0 0 0 0.117647 0 0 0 0 0.792157 0 0 0 0 0.670588 0 0 0 0.1 0"/>
<feBlend mode="normal" in2="BackgroundImageFix" result="effect1_dropShadow_480_2349"/>
<feBlend mode="normal" in="SourceGraphic" in2="effect1_dropShadow_480_2349" result="shape"/>
</filter>
</defs>
</svg>
