<svg width="208" height="70" viewBox="0 0 208 70" fill="none" xmlns="http://www.w3.org/2000/svg">
<rect width="208" height="70" rx="10" fill="#FF5900"/>
<path d="M27.7321 33.1094C27.6625 32.8674 27.5647 32.6536 27.4387 32.468C27.3128 32.2791 27.1587 32.12 26.9764 31.9908C26.7974 31.8582 26.5919 31.7571 26.3599 31.6875C26.1312 31.6179 25.8777 31.5831 25.5993 31.5831C25.0789 31.5831 24.6215 31.7124 24.2271 31.9709C23.836 32.2294 23.5311 32.6056 23.3123 33.0994C23.0936 33.59 22.9842 34.1899 22.9842 34.8991C22.9842 35.6084 23.0919 36.2116 23.3074 36.7088C23.5228 37.206 23.8277 37.5855 24.2221 37.8473C24.6165 38.1058 25.0822 38.2351 25.6191 38.2351C26.1064 38.2351 26.5223 38.1489 26.867 37.9766C27.215 37.8009 27.4802 37.554 27.6625 37.2358C27.8481 36.9176 27.9409 36.5414 27.9409 36.1072L28.3784 36.1719H25.7534V34.5511H30.014V35.8338C30.014 36.7287 29.8251 37.4976 29.4473 38.1406C29.0694 38.7803 28.5491 39.2741 27.8862 39.6222C27.2233 39.9669 26.4643 40.1392 25.6092 40.1392C24.6547 40.1392 23.8161 39.9287 23.0936 39.5078C22.371 39.0836 21.8076 38.482 21.4032 37.7031C21.0022 36.9209 20.8017 35.9929 20.8017 34.919C20.8017 34.0937 20.921 33.358 21.1596 32.7116C21.4016 32.062 21.7396 31.5118 22.1738 31.0611C22.608 30.6103 23.1135 30.2673 23.6902 30.032C24.2669 29.7966 24.8916 29.679 25.5645 29.679C26.1412 29.679 26.6781 29.7635 27.1752 29.9325C27.6724 30.0982 28.1132 30.3336 28.4977 30.6385C28.8855 30.9434 29.202 31.3063 29.4473 31.7273C29.6925 32.1449 29.85 32.6056 29.9196 33.1094H27.7321ZM34.631 40V29.8182H41.4918V31.593H36.7837V34.0192H41.1388V35.794H36.7837V38.2251H41.5117V40H34.631ZM45.8155 31.593V29.8182H54.1777V31.593H51.0605V40H48.9327V31.593H45.8155ZM66.5501 40H64.2433L67.7582 29.8182H70.5323L74.0423 40H71.7354L69.185 32.1449H69.1055L66.5501 40ZM66.4059 35.9979H71.8548V37.6783H66.4059V35.9979ZM84.508 40V29.8182H91.2495V31.593H86.6607V34.0192H90.802V35.794H86.6607V40H84.508ZM95.6974 40V29.8182H99.7145C100.483 29.8182 101.14 29.9557 101.683 30.2308C102.23 30.5026 102.646 30.8887 102.931 31.3892C103.219 31.8864 103.364 32.4714 103.364 33.1442C103.364 33.8203 103.218 34.402 102.926 34.8892C102.634 35.3731 102.212 35.7443 101.658 36.0028C101.108 36.2614 100.442 36.3906 99.6598 36.3906H96.9702V34.6605H99.3118C99.7228 34.6605 100.064 34.6042 100.336 34.4915C100.608 34.3788 100.81 34.2098 100.942 33.9844C101.078 33.759 101.146 33.4789 101.146 33.1442C101.146 32.8061 101.078 32.5211 100.942 32.2891C100.81 32.0571 100.606 31.8814 100.331 31.7621C100.059 31.6394 99.7161 31.5781 99.3018 31.5781H97.8501V40H95.6974ZM101.196 35.3665L103.727 40H101.35L98.8743 35.3665H101.196ZM107.885 40V29.8182H114.746V31.593H110.038V34.0192H114.393V35.794H110.038V38.2251H114.766V40H107.885ZM119.457 40V29.8182H126.318V31.593H121.61V34.0192H125.965V35.794H121.61V38.2251H126.338V40H119.457ZM140.879 40H137.27V29.8182H140.909C141.933 29.8182 142.815 30.022 143.554 30.4297C144.293 30.834 144.861 31.4157 145.259 32.1747C145.66 32.9337 145.861 33.8419 145.861 34.8991C145.861 35.9598 145.66 36.8712 145.259 37.6335C144.861 38.3958 144.29 38.9808 143.544 39.3885C142.801 39.7962 141.913 40 140.879 40ZM139.422 38.1555H140.79C141.426 38.1555 141.961 38.0429 142.395 37.8175C142.833 37.5888 143.161 37.2358 143.38 36.7585C143.602 36.2779 143.713 35.6581 143.713 34.8991C143.713 34.1468 143.602 33.532 143.38 33.0547C143.161 32.5774 142.835 32.2261 142.4 32.0007C141.966 31.7753 141.431 31.6626 140.795 31.6626H139.422V38.1555ZM150.455 40V29.8182H157.316V31.593H152.608V34.0192H156.963V35.794H152.608V38.2251H157.336V40H150.455ZM162.028 29.8182H164.682L167.486 36.6591H167.606L170.41 29.8182H173.064V40H170.976V33.3729H170.892L168.257 39.9503H166.835L164.2 33.348H164.116V40H162.028V29.8182ZM187.195 34.9091C187.195 36.0194 186.984 36.964 186.563 37.7429C186.146 38.5218 185.576 39.1167 184.853 39.5277C184.134 39.9354 183.325 40.1392 182.427 40.1392C181.522 40.1392 180.71 39.9337 179.991 39.5227C179.272 39.1117 178.703 38.5168 178.286 37.7379C177.868 36.959 177.659 36.0161 177.659 34.9091C177.659 33.7988 177.868 32.8542 178.286 32.0753C178.703 31.2964 179.272 30.7031 179.991 30.2955C180.71 29.8845 181.522 29.679 182.427 29.679C183.325 29.679 184.134 29.8845 184.853 30.2955C185.576 30.7031 186.146 31.2964 186.563 32.0753C186.984 32.8542 187.195 33.7988 187.195 34.9091ZM185.012 34.9091C185.012 34.1899 184.904 33.5833 184.689 33.0895C184.477 32.5956 184.177 32.2211 183.789 31.9659C183.401 31.7107 182.947 31.5831 182.427 31.5831C181.906 31.5831 181.452 31.7107 181.065 31.9659C180.677 32.2211 180.375 32.5956 180.16 33.0895C179.948 33.5833 179.842 34.1899 179.842 34.9091C179.842 35.6283 179.948 36.2348 180.16 36.7287C180.375 37.2225 180.677 37.5971 181.065 37.8523C181.452 38.1075 181.906 38.2351 182.427 38.2351C182.947 38.2351 183.401 38.1075 183.789 37.8523C184.177 37.5971 184.477 37.2225 184.689 36.7287C184.904 36.2348 185.012 35.6283 185.012 34.9091Z" fill="white"/>
</svg>
