<svg width="208" height="70" viewBox="0 0 208 70" fill="none" xmlns="http://www.w3.org/2000/svg">
<rect width="208" height="70" rx="10" fill="#FF5900"/>
<path d="M27.6364 33.1094C27.5668 32.8674 27.469 32.6536 27.343 32.468C27.2171 32.2791 27.063 32.12 26.8807 31.9908C26.7017 31.8582 26.4962 31.7571 26.2642 31.6875C26.0355 31.6179 25.782 31.5831 25.5036 31.5831C24.9832 31.5831 24.5258 31.7124 24.1314 31.9709C23.7403 32.2294 23.4354 32.6056 23.2166 33.0994C22.9979 33.59 22.8885 34.1899 22.8885 34.8991C22.8885 35.6084 22.9962 36.2116 23.2116 36.7088C23.4271 37.206 23.732 37.5855 24.1264 37.8473C24.5208 38.1058 24.9865 38.2351 25.5234 38.2351C26.0107 38.2351 26.4266 38.1489 26.7713 37.9766C27.1193 37.8009 27.3845 37.554 27.5668 37.2358C27.7524 36.9176 27.8452 36.5414 27.8452 36.1072L28.2827 36.1719H25.6577V34.5511H29.9183V35.8338C29.9183 36.7287 29.7294 37.4976 29.3516 38.1406C28.9737 38.7803 28.4534 39.2741 27.7905 39.6222C27.1276 39.9669 26.3686 40.1392 25.5135 40.1392C24.5589 40.1392 23.7204 39.9287 22.9979 39.5078C22.2753 39.0836 21.7119 38.482 21.3075 37.7031C20.9065 36.9209 20.706 35.9929 20.706 34.919C20.706 34.0937 20.8253 33.358 21.0639 32.7116C21.3059 32.062 21.6439 31.5118 22.0781 31.0611C22.5123 30.6103 23.0178 30.2673 23.5945 30.032C24.1712 29.7966 24.7959 29.679 25.4688 29.679C26.0455 29.679 26.5824 29.7635 27.0795 29.9325C27.5767 30.0982 28.0175 30.3336 28.402 30.6385C28.7898 30.9434 29.1063 31.3063 29.3516 31.7273C29.5968 32.1449 29.7543 32.6056 29.8239 33.1094H27.6364ZM34.5353 40V29.8182H41.3961V31.593H36.688V34.0192H41.0431V35.794H36.688V38.2251H41.416V40H34.5353ZM45.7198 31.593V29.8182H54.082V31.593H50.9648V40H48.837V31.593H45.7198ZM64.1028 29.8182H66.514L68.8358 34.2031H68.9352L71.2569 29.8182H73.6681L69.9544 36.4006V40H67.8166V36.4006L64.1028 29.8182ZM86.5852 34.9091C86.5852 36.0194 86.3748 36.964 85.9538 37.7429C85.5362 38.5218 84.9661 39.1167 84.2436 39.5277C83.5244 39.9354 82.7157 40.1392 81.8175 40.1392C80.9126 40.1392 80.1006 39.9337 79.3814 39.5227C78.6622 39.1117 78.0938 38.5168 77.6761 37.7379C77.2585 36.959 77.0497 36.0161 77.0497 34.9091C77.0497 33.7988 77.2585 32.8542 77.6761 32.0753C78.0938 31.2964 78.6622 30.7031 79.3814 30.2955C80.1006 29.8845 80.9126 29.679 81.8175 29.679C82.7157 29.679 83.5244 29.8845 84.2436 30.2955C84.9661 30.7031 85.5362 31.2964 85.9538 32.0753C86.3748 32.8542 86.5852 33.7988 86.5852 34.9091ZM84.4027 34.9091C84.4027 34.1899 84.295 33.5833 84.0795 33.0895C83.8674 32.5956 83.5675 32.2211 83.1797 31.9659C82.7919 31.7107 82.3378 31.5831 81.8175 31.5831C81.2971 31.5831 80.843 31.7107 80.4553 31.9659C80.0675 32.2211 79.7659 32.5956 79.5504 33.0895C79.3383 33.5833 79.2322 34.1899 79.2322 34.9091C79.2322 35.6283 79.3383 36.2348 79.5504 36.7287C79.7659 37.2225 80.0675 37.5971 80.4553 37.8523C80.843 38.1075 81.2971 38.2351 81.8175 38.2351C82.3378 38.2351 82.7919 38.1075 83.1797 37.8523C83.5675 37.5971 83.8674 37.2225 84.0795 36.7287C84.295 36.2348 84.4027 35.6283 84.4027 34.9091ZM97.4689 29.8182H99.6216V36.4304C99.6216 37.1728 99.4443 37.8224 99.0897 38.3793C98.7383 38.9361 98.2462 39.3703 97.6131 39.6818C96.9801 39.9901 96.2426 40.1442 95.4007 40.1442C94.5556 40.1442 93.8165 39.9901 93.1834 39.6818C92.5504 39.3703 92.0582 38.9361 91.7069 38.3793C91.3555 37.8224 91.1799 37.1728 91.1799 36.4304V29.8182H93.3326V36.2464C93.3326 36.6342 93.4171 36.9789 93.5861 37.2805C93.7585 37.5821 94.0004 37.8191 94.312 37.9915C94.6235 38.1638 94.9864 38.25 95.4007 38.25C95.8184 38.25 96.1813 38.1638 96.4895 37.9915C96.8011 37.8191 97.0414 37.5821 97.2104 37.2805C97.3828 36.9789 97.4689 36.6342 97.4689 36.2464V29.8182ZM104.393 40V29.8182H108.41C109.179 29.8182 109.835 29.9557 110.379 30.2308C110.925 30.5026 111.341 30.8887 111.626 31.3892C111.915 31.8864 112.059 32.4714 112.059 33.1442C112.059 33.8203 111.913 34.402 111.621 34.8892C111.33 35.3731 110.907 35.7443 110.354 36.0028C109.804 36.2614 109.137 36.3906 108.355 36.3906H105.665V34.6605H108.007C108.418 34.6605 108.759 34.6042 109.031 34.4915C109.303 34.3788 109.505 34.2098 109.638 33.9844C109.774 33.759 109.842 33.4789 109.842 33.1442C109.842 32.8061 109.774 32.5211 109.638 32.2891C109.505 32.0571 109.301 31.8814 109.026 31.7621C108.754 31.6394 108.411 31.5781 107.997 31.5781H106.545V40H104.393ZM109.891 35.3665L112.422 40H110.045L107.57 35.3665H109.891ZM122.82 40V29.8182H126.838C127.606 29.8182 128.263 29.9557 128.806 30.2308C129.353 30.5026 129.769 30.8887 130.054 31.3892C130.343 31.8864 130.487 32.4714 130.487 33.1442C130.487 33.8203 130.341 34.402 130.049 34.8892C129.758 35.3731 129.335 35.7443 128.781 36.0028C128.231 36.2614 127.565 36.3906 126.783 36.3906H124.093V34.6605H126.435C126.846 34.6605 127.187 34.6042 127.459 34.4915C127.731 34.3788 127.933 34.2098 128.066 33.9844C128.201 33.759 128.269 33.4789 128.269 33.1442C128.269 32.8061 128.201 32.5211 128.066 32.2891C127.933 32.0571 127.729 31.8814 127.454 31.7621C127.182 31.6394 126.839 31.5781 126.425 31.5781H124.973V40H122.82ZM128.319 35.3665L130.85 40H128.473L125.997 35.3665H128.319ZM135.008 40V29.8182H141.869V31.593H137.161V34.0192H141.516V35.794H137.161V38.2251H141.889V40H135.008ZM146.58 40V29.8182H150.597C151.37 29.8182 152.027 29.9657 152.571 30.2607C153.115 30.5523 153.529 30.9583 153.814 31.4787C154.102 31.9957 154.246 32.5923 154.246 33.2685C154.246 33.9446 154.101 34.5412 153.809 35.0582C153.517 35.5753 153.095 35.978 152.541 36.2663C151.991 36.5547 151.325 36.6989 150.543 36.6989H147.982V34.9737H150.195C150.609 34.9737 150.95 34.9025 151.219 34.7599C151.491 34.6141 151.693 34.4136 151.825 34.1584C151.961 33.8999 152.029 33.6032 152.029 33.2685C152.029 32.9304 151.961 32.6354 151.825 32.3835C151.693 32.1283 151.491 31.9311 151.219 31.7919C150.947 31.6494 150.602 31.5781 150.185 31.5781H148.733V40H146.58ZM168.001 34.9091C168.001 36.0194 167.791 36.964 167.37 37.7429C166.952 38.5218 166.382 39.1167 165.66 39.5277C164.94 39.9354 164.132 40.1392 163.233 40.1392C162.329 40.1392 161.517 39.9337 160.797 39.5227C160.078 39.1117 159.51 38.5168 159.092 37.7379C158.675 36.959 158.466 36.0161 158.466 34.9091C158.466 33.7988 158.675 32.8542 159.092 32.0753C159.51 31.2964 160.078 30.7031 160.797 30.2955C161.517 29.8845 162.329 29.679 163.233 29.679C164.132 29.679 164.94 29.8845 165.66 30.2955C166.382 30.7031 166.952 31.2964 167.37 32.0753C167.791 32.8542 168.001 33.7988 168.001 34.9091ZM165.819 34.9091C165.819 34.1899 165.711 33.5833 165.496 33.0895C165.283 32.5956 164.983 32.2211 164.596 31.9659C164.208 31.7107 163.754 31.5831 163.233 31.5831C162.713 31.5831 162.259 31.7107 161.871 31.9659C161.483 32.2211 161.182 32.5956 160.966 33.0895C160.754 33.5833 160.648 34.1899 160.648 34.9091C160.648 35.6283 160.754 36.2348 160.966 36.7287C161.182 37.2225 161.483 37.5971 161.871 37.8523C162.259 38.1075 162.713 38.2351 163.233 38.2351C163.754 38.2351 164.208 38.1075 164.596 37.8523C164.983 37.5971 165.283 37.2225 165.496 36.7287C165.711 36.2348 165.819 35.6283 165.819 34.9091ZM172.596 40V29.8182H176.613C177.382 29.8182 178.038 29.9557 178.582 30.2308C179.129 30.5026 179.545 30.8887 179.83 31.3892C180.118 31.8864 180.262 32.4714 180.262 33.1442C180.262 33.8203 180.116 34.402 179.825 34.8892C179.533 35.3731 179.11 35.7443 178.557 36.0028C178.007 36.2614 177.34 36.3906 176.558 36.3906H173.869V34.6605H176.21C176.621 34.6605 176.963 34.6042 177.234 34.4915C177.506 34.3788 177.708 34.2098 177.841 33.9844C177.977 33.759 178.045 33.4789 178.045 33.1442C178.045 32.8061 177.977 32.5211 177.841 32.2891C177.708 32.0571 177.504 31.8814 177.229 31.7621C176.958 31.6394 176.615 31.5781 176.2 31.5781H174.749V40H172.596ZM178.094 35.3665L180.625 40H178.249L175.773 35.3665H178.094ZM184.396 31.593V29.8182H192.758V31.593H189.641V40H187.513V31.593H184.396Z" fill="white"/>
</svg>
