<svg width="27" height="49" viewBox="0 0 27 49" fill="none" xmlns="http://www.w3.org/2000/svg">
<path fill-rule="evenodd" clip-rule="evenodd" d="M21.689 0.3556C21.4251 0.551234 21.096 0.780543 20.958 0.865178C20.8197 0.949591 20.6079 1.10867 20.4871 1.21834C20.3665 1.32801 20.2234 1.41774 20.1691 1.41774C20.1148 1.41774 19.9705 1.52741 19.8483 1.66145C19.7262 1.79549 19.4824 2.0248 19.3061 2.17103C19.1301 2.31726 18.8593 2.54657 18.7042 2.68061C18.5491 2.81465 18.3721 2.92432 18.3103 2.92432C18.2488 2.92432 18.113 3.02402 18.0087 3.14588C17.9045 3.26773 17.7876 3.36743 17.7492 3.36743C17.7108 3.36743 17.5378 3.50701 17.3649 3.67761C17.192 3.84821 17.0146 3.98779 16.9708 3.98779C16.927 3.98779 16.8892 4.03764 16.8873 4.09857C16.8853 4.15949 16.6293 4.36886 16.3183 4.56383C16.0073 4.7588 15.6263 5.02888 15.4714 5.16403C15.3166 5.29918 15.0721 5.51276 14.9281 5.6386C14.1984 6.27624 14.0453 6.39101 13.8621 6.43775C13.7526 6.46567 13.6632 6.53745 13.6632 6.5975C13.6632 6.65754 13.5657 6.7517 13.4464 6.80709C13.3271 6.86225 13.0425 7.08824 12.814 7.30913C12.1896 7.91287 11.6561 8.33028 11.5091 8.33028C11.4369 8.33028 11.2716 8.43996 11.1418 8.574C10.6047 9.12877 9.19448 10.28 9.05229 10.28C9.01194 10.28 8.76702 10.4778 8.50771 10.7198C7.77208 11.4059 7.28966 11.7866 7.15531 11.7866C7.08749 11.7866 6.9466 11.8863 6.84235 12.0081C6.7381 12.13 6.60768 12.2297 6.55229 12.2297C6.49711 12.2297 6.3994 12.3294 6.33528 12.4512C6.27116 12.5731 6.18414 12.6728 6.14205 12.6728C6.09996 12.6728 5.95951 12.7816 5.82974 12.9147C5.5484 13.2032 4.80471 13.7363 4.68345 13.7363C4.63634 13.7363 4.48803 13.836 4.35412 13.958C3.81064 14.453 3.48895 14.6872 3.28198 14.739C3.16203 14.7689 2.8676 14.9781 2.6277 15.2034C2.3878 15.4289 2.09337 15.6653 1.9732 15.7291C1.85325 15.793 1.6803 15.929 1.58892 16.0314C1.49754 16.1339 1.34968 16.2177 1.26004 16.2177C1.17062 16.2177 1.05634 16.309 1.00618 16.4206C0.956236 16.5323 0.829741 16.6619 0.725057 16.7086C0.62059 16.7554 0.521141 16.8735 0.503912 16.971C0.486901 17.0685 0.398791 17.23 0.308282 17.3301C-0.0851579 17.7644 -0.108058 19.6265 0.27535 20.0025C0.38505 20.1102 0.500421 20.3167 0.531826 20.4614C0.563013 20.606 0.684273 20.7882 0.801171 20.8659C0.918069 20.9437 1.01381 21.0678 1.01381 21.1413C1.01381 21.2151 1.18131 21.3483 1.38588 21.4375C1.59045 21.5266 1.81029 21.6637 1.87441 21.7422C1.93853 21.8206 2.13416 21.9117 2.30929 21.9442C2.48441 21.977 2.73871 22.0976 2.87436 22.2125C3.01154 22.3286 3.23574 22.4212 3.38012 22.4212C3.53998 22.4212 3.71293 22.5015 3.83136 22.6302C3.95349 22.7631 4.1718 22.8615 4.43068 22.9005C4.65466 22.9342 4.88562 23.0199 4.94385 23.0912C5.00186 23.1624 5.27012 23.2847 5.53968 23.3626C5.80946 23.4408 6.11108 23.58 6.2101 23.6719C6.30911 23.7639 6.45043 23.8392 6.52415 23.8392C6.78477 23.8392 7.20765 24.0355 7.20765 24.1565C7.20765 24.2783 7.301 24.3118 7.93194 24.415C8.11448 24.4449 8.28481 24.5251 8.31033 24.5932C8.3546 24.7101 8.62766 24.824 9.13254 24.9366C9.25577 24.964 9.44812 25.0673 9.56022 25.1661C9.67254 25.2649 9.87057 25.3458 10.0006 25.3458C10.1318 25.3458 10.3833 25.4639 10.5663 25.6117C10.7475 25.7579 11.0003 25.8775 11.1283 25.8775C11.2563 25.8775 11.4888 25.9732 11.645 26.0902C11.8009 26.2072 12.0735 26.3299 12.2506 26.3632C12.4277 26.3964 12.6513 26.4959 12.7472 26.5841C12.8432 26.6725 13.0591 26.7726 13.227 26.8067C13.395 26.8411 13.6698 26.9612 13.8377 27.0739C14.0056 27.1867 14.2804 27.3068 14.4483 27.3411C14.6163 27.3752 14.8383 27.482 14.9417 27.5784C15.045 27.6748 15.2906 27.7904 15.4876 27.8354C15.6843 27.8802 15.9176 27.9905 16.006 28.0802C16.0943 28.17 16.3353 28.2708 16.5416 28.3042C16.7479 28.3379 17.026 28.4586 17.1595 28.5725C17.2927 28.6866 17.5503 28.8083 17.7315 28.8428C17.9125 28.8774 18.1736 29.0019 18.3114 29.1198C18.4493 29.2374 18.654 29.3338 18.7666 29.3338C18.8791 29.3338 19.0822 29.4273 19.2178 29.5416C19.3535 29.6559 19.596 29.7754 19.7567 29.807C19.9175 29.8387 20.1659 29.9646 20.3087 30.0866C20.4564 30.2129 20.6784 30.3086 20.8239 30.3086C20.9874 30.3086 21.1475 30.388 21.2681 30.5291C21.3719 30.6501 21.5972 30.775 21.7691 30.8065C22.1922 30.8836 22.2997 30.9886 22.2997 31.3236C22.2997 31.7175 20.0697 34.0308 19.69 34.0308C19.613 34.0308 19.5011 34.1105 19.4411 34.208C19.3812 34.3055 19.285 34.3853 19.2272 34.3853C19.1694 34.3853 19.0224 34.4863 18.9007 34.6097C18.4737 35.0424 18.0656 35.3358 17.7415 35.443C17.5616 35.5024 17.4144 35.5846 17.4144 35.6253C17.4144 35.7084 16.636 36.2244 16.2435 36.4014C16.1032 36.4648 15.9377 36.59 15.876 36.6797C15.814 36.7694 15.6093 36.868 15.4206 36.8986C15.2309 36.9294 15.0549 37.0158 15.0259 37.0922C14.9973 37.1682 14.8019 37.3076 14.5918 37.402C14.3816 37.4964 14.1605 37.6339 14.1003 37.7075C14.0401 37.7813 13.9151 37.8415 13.8229 37.8415C13.7304 37.8415 13.5681 37.9368 13.4619 38.0531C13.3557 38.1695 13.1265 38.3046 12.9524 38.3533C12.7782 38.4023 12.5529 38.5264 12.4517 38.6292C12.3503 38.7322 12.178 38.8164 12.0687 38.8164C11.9595 38.8164 11.7412 38.936 11.5835 39.0823C11.4025 39.2502 11.2036 39.3481 11.0428 39.3481C10.8699 39.3481 10.744 39.4168 10.6498 39.5628C10.56 39.7022 10.3936 39.7979 10.1759 39.8351C9.99139 39.8668 9.77068 39.9709 9.68563 40.0664C9.60057 40.1619 9.36394 40.2826 9.15981 40.3349C8.95567 40.3872 8.72078 40.5062 8.63769 40.5993C8.5546 40.6925 8.33781 40.7929 8.15549 40.8226C7.94176 40.8574 7.77622 40.9511 7.68855 41.0871C7.59717 41.2287 7.4698 41.2978 7.29947 41.2978C7.16033 41.2978 6.93569 41.39 6.80004 41.5025C6.66438 41.6151 6.39286 41.7544 6.19679 41.8121C6.00073 41.8697 5.7689 41.9968 5.68166 42.0948C5.59442 42.1925 5.41449 42.2727 5.28168 42.2727C5.14886 42.2727 4.9288 42.3679 4.79271 42.4843C4.65662 42.6006 4.39905 42.7366 4.22022 42.7869C4.0416 42.837 3.79123 42.961 3.66408 43.0627C3.53693 43.1644 3.33323 43.2475 3.21132 43.2475C2.87458 43.2475 2.01355 44.1975 1.94289 44.6471C1.91323 44.8358 1.80963 45.0627 1.71302 45.1518C1.46199 45.3824 1.46156 46.3163 1.71258 46.6404C1.80876 46.7647 1.91192 46.9996 1.9418 47.162C1.97146 47.3241 2.07898 47.5408 2.18083 47.6434C2.28268 47.7458 2.49445 47.9751 2.65169 48.153C2.80872 48.3307 2.97752 48.4762 3.02659 48.4762C3.07567 48.4762 3.2159 48.5859 3.33825 48.7199C3.65557 49.0678 5.76235 49.1019 6.07204 48.7643C6.17258 48.6546 6.30344 48.5648 6.36276 48.5648C6.4223 48.5648 6.59983 48.4452 6.75751 48.299C6.91497 48.1528 7.12194 48.0331 7.21725 48.0331C7.31256 48.0331 7.477 47.9392 7.58256 47.8242C7.68833 47.7094 7.8953 47.5526 8.04273 47.4757C8.19016 47.3988 8.3618 47.2734 8.42418 47.197C8.48655 47.1208 8.62962 47.0583 8.74194 47.0583C8.85993 47.0583 8.98751 46.9801 9.044 46.8726C9.09787 46.7707 9.31094 46.6112 9.51748 46.5183C9.72423 46.4253 9.91593 46.2895 9.94363 46.2164C9.97111 46.1432 10.0503 46.0834 10.1192 46.0834C10.1881 46.0834 10.406 45.9463 10.6036 45.7786C10.8012 45.6109 11.0404 45.4487 11.1353 45.4181C11.2302 45.3875 11.3078 45.3301 11.3078 45.2907C11.3078 45.251 11.4354 45.166 11.5913 45.1013C11.7473 45.0368 11.9789 44.8724 12.106 44.7361C12.2334 44.5999 12.3941 44.4882 12.4633 44.4882C12.5326 44.4882 12.6604 44.4085 12.7472 44.311C12.834 44.2135 12.9583 44.1337 13.0233 44.1337C13.0883 44.1337 13.2645 44.0141 13.4152 43.8679C13.5659 43.7216 13.7171 43.602 13.7513 43.602C13.7856 43.602 13.9618 43.4824 14.143 43.3361C14.3242 43.1899 14.5297 43.0703 14.5999 43.0703C14.6699 43.0703 14.8383 42.9606 14.9739 42.8266C15.5238 42.2831 15.7726 42.0954 15.9436 42.0954C16.0424 42.0954 16.231 41.9858 16.3632 41.8517C16.862 41.3452 17.8619 40.5888 18.0327 40.5888C18.0744 40.5888 18.3132 40.3903 18.5638 40.1475C18.8141 39.9049 19.1487 39.6437 19.3072 39.5672C19.4658 39.491 19.5953 39.3931 19.5953 39.3499C19.5953 39.3067 19.6837 39.2444 19.7916 39.2112C19.8996 39.1782 20.086 39.053 20.206 38.9329C20.8289 38.3101 21.5023 37.7372 21.7545 37.6156C21.9104 37.5402 22.038 37.4399 22.038 37.3924C22.038 37.3448 22.1444 37.2571 22.2746 37.197C22.4556 37.114 24.4041 35.2675 24.9604 34.652C25.0084 34.5991 25.2481 34.3478 25.493 34.0937C25.7379 33.8398 25.968 33.5323 26.0047 33.4104C26.0411 33.2886 26.1484 33.1029 26.2428 32.9979C26.3372 32.8929 26.4531 32.6337 26.4997 32.4218C26.5466 32.21 26.6709 31.9439 26.7758 31.8303C27.0969 31.4833 27.065 29.3094 26.7331 28.9084C26.6044 28.7529 26.4751 28.5486 26.4456 28.4544C26.4162 28.3603 26.2476 28.1966 26.071 28.0906C25.8943 27.985 25.6987 27.8241 25.6361 27.7333C25.5737 27.6427 25.3896 27.5432 25.2272 27.5122C25.0647 27.4811 24.8525 27.3806 24.7554 27.2888C24.6581 27.1969 24.4154 27.0843 24.2161 27.0389C24.0165 26.9933 23.7688 26.877 23.6654 26.7806C23.5563 26.6787 23.2833 26.5787 23.0146 26.5424C22.7193 26.5025 22.491 26.4137 22.3843 26.2974C22.2724 26.1753 22.0415 26.0902 21.6888 26.0413C21.3833 25.9989 21.055 25.8884 20.9096 25.7792C20.7438 25.6546 20.4592 25.5696 20.0721 25.5288C19.6435 25.4838 19.4529 25.4216 19.3639 25.2979C19.2704 25.1679 19.0905 25.116 18.5888 25.0744C18.0829 25.0323 17.8892 24.9758 17.7304 24.8242C17.5712 24.6723 17.3813 24.6173 16.881 24.5783C16.4164 24.542 16.1516 24.4713 15.9314 24.3246C15.7209 24.1844 15.4295 24.102 14.9942 24.0599C14.5703 24.0187 14.2909 23.9416 14.1452 23.825C14.006 23.714 13.714 23.6283 13.3343 23.5871C12.9114 23.5412 12.6894 23.4703 12.5612 23.34C12.4323 23.2091 12.2138 23.14 11.7874 23.0957C11.4182 23.0573 11.1019 22.9678 10.9525 22.8597C10.8201 22.764 10.5281 22.6601 10.3033 22.6288C10.0677 22.5961 9.79097 22.4837 9.65073 22.3636C9.5166 22.2491 9.31443 22.1552 9.20146 22.1549C8.8656 22.1541 8.36246 21.9837 8.31339 21.8538C8.28831 21.7876 8.07261 21.6857 7.83402 21.6274C7.59215 21.5685 7.31234 21.4267 7.20155 21.3068C7.09228 21.1887 6.95074 21.0919 6.88706 21.0919C6.82359 21.0919 6.69884 21.0221 6.61008 20.9368C6.52132 20.8515 6.29559 20.6951 6.10847 20.5892C5.69409 20.3546 5.66508 20.0185 6.02036 19.5647C6.1451 19.4054 6.33572 19.1575 6.44389 19.0137C6.55207 18.8699 6.74857 18.6517 6.88051 18.5287C7.01246 18.4058 7.12042 18.2655 7.12042 18.2172C7.12042 18.1155 7.22161 17.9999 8.0761 17.1261C8.42156 16.7727 8.74129 16.4835 8.78665 16.4835C8.83179 16.4835 9.08522 16.2742 9.34955 16.0183C10.2296 15.1664 10.3722 15.0479 10.6228 14.9592C10.7595 14.9107 10.8716 14.8361 10.8716 14.7933C10.8716 14.7505 10.9879 14.6546 11.1298 14.5799C11.2718 14.5055 11.4858 14.3548 11.6055 14.2454C12.0746 13.8162 12.4085 13.5834 12.6356 13.5271C12.7662 13.4948 12.9147 13.3891 12.966 13.292C13.017 13.1952 13.1064 13.1148 13.1646 13.1135C13.2229 13.1121 13.4248 12.9925 13.6133 12.8476C13.8017 12.7027 14.0187 12.5842 14.0955 12.5842C14.1722 12.5842 14.3384 12.4645 14.4647 12.3183C14.6261 12.1313 14.7737 12.0524 14.962 12.0524C15.151 12.0524 15.2714 11.9875 15.3724 11.8309C15.4509 11.709 15.5597 11.6082 15.6143 11.6069C15.6688 11.6055 15.8675 11.4859 16.0559 11.341C16.2443 11.1961 16.4705 11.0776 16.5582 11.0776C16.6458 11.0776 16.8024 10.9783 16.9062 10.8571C17.0101 10.7362 17.2266 10.6119 17.3876 10.5811C17.5485 10.5505 17.7285 10.4559 17.7873 10.371C17.846 10.2862 18.0584 10.132 18.2591 10.0281C18.4597 9.92438 18.6466 9.80208 18.6743 9.75622C18.7022 9.71058 18.8368 9.64832 18.9738 9.61775C19.1105 9.58717 19.3061 9.46443 19.4082 9.34501C19.5116 9.22426 19.6898 9.12789 19.8093 9.12789C19.9277 9.12789 20.1144 9.03151 20.2243 8.91342C20.3342 8.79555 20.5868 8.65553 20.7859 8.60235C20.9848 8.54918 21.1695 8.44749 21.1964 8.37637C21.2234 8.30547 21.3844 8.18827 21.5545 8.11604C21.7244 8.04381 21.8635 7.94633 21.8635 7.89892C21.8635 7.85172 22.0402 7.74471 22.2561 7.66096C22.472 7.57722 22.6486 7.48261 22.6486 7.45071C22.6486 7.36962 23.6977 6.68213 23.9354 6.60747C24.0433 6.57357 24.1317 6.48982 24.1317 6.42114C24.1317 6.35268 24.2396 6.23769 24.3716 6.16546C24.5035 6.09346 24.8392 5.7835 25.1177 5.47642C25.396 5.16957 25.7096 4.82593 25.814 4.71272C25.9942 4.51841 26.0044 4.42603 26.006 3.00253L26.0073 1.49794L25.3966 0.92234C25.0607 0.605736 24.7033 0.268529 24.6023 0.17326C24.4396 0.0197215 24.2898 -0.000219748 23.2938 1.80752e-06H22.1688L21.689 0.3556Z" fill="#FF5900"/>
</svg>
