<svg width="1420" height="58" viewBox="0 0 1420 58" fill="none" xmlns="http://www.w3.org/2000/svg">
<rect x="1242.5" y="0.5" width="177" height="57" rx="6.5" stroke="#070127"/>
<path d="M1273.41 26.7464C1273.37 26.3454 1273.2 26.0339 1272.9 25.8118C1272.59 25.5897 1272.19 25.4787 1271.67 25.4787C1271.32 25.4787 1271.02 25.5284 1270.78 25.6278C1270.54 25.724 1270.35 25.8582 1270.22 26.0305C1270.1 26.2029 1270.03 26.3984 1270.03 26.6172C1270.03 26.7995 1270.06 26.9586 1270.15 27.0945C1270.23 27.2304 1270.35 27.348 1270.5 27.4474C1270.65 27.5436 1270.82 27.6281 1271.02 27.701C1271.21 27.7706 1271.42 27.8303 1271.64 27.88L1272.56 28.0987C1273 28.1982 1273.41 28.3307 1273.78 28.4964C1274.15 28.6622 1274.47 28.866 1274.75 29.108C1275.02 29.3499 1275.23 29.6349 1275.38 29.9631C1275.53 30.2912 1275.61 30.6674 1275.61 31.0916C1275.61 31.7147 1275.45 32.255 1275.13 32.7124C1274.82 33.1664 1274.37 33.5194 1273.78 33.7713C1273.19 34.0199 1272.49 34.1442 1271.66 34.1442C1270.84 34.1442 1270.12 34.0182 1269.51 33.7663C1268.9 33.5144 1268.43 33.1416 1268.09 32.6477C1267.75 32.1506 1267.57 31.5357 1267.56 30.8033H1269.64C1269.66 31.1446 1269.76 31.4297 1269.93 31.6584C1270.11 31.8838 1270.34 32.0545 1270.63 32.1705C1270.93 32.2831 1271.26 32.3395 1271.63 32.3395C1272 32.3395 1272.31 32.2865 1272.58 32.1804C1272.85 32.0743 1273.07 31.9268 1273.21 31.7379C1273.36 31.549 1273.44 31.3319 1273.44 31.0866C1273.44 30.858 1273.37 30.6657 1273.23 30.5099C1273.1 30.3542 1272.91 30.2216 1272.65 30.1122C1272.39 30.0028 1272.08 29.9034 1271.71 29.8139L1270.6 29.5355C1269.74 29.3267 1269.06 29.0002 1268.57 28.5561C1268.07 28.112 1267.82 27.5137 1267.83 26.7614C1267.82 26.1449 1267.99 25.6063 1268.32 25.1456C1268.65 24.6849 1269.11 24.3253 1269.69 24.0668C1270.28 23.8082 1270.94 23.679 1271.68 23.679C1272.44 23.679 1273.1 23.8082 1273.66 24.0668C1274.23 24.3253 1274.67 24.6849 1274.98 25.1456C1275.3 25.6063 1275.46 26.1399 1275.47 26.7464H1273.41ZM1283.58 34H1281.27L1284.79 23.8182H1287.56L1291.07 34H1288.77L1286.22 26.1449H1286.14L1283.58 34ZM1283.44 29.9979H1288.89V31.6783H1283.44V29.9979ZM1295.66 23.8182H1298.07L1300.4 28.2031H1300.5L1302.82 23.8182H1305.23L1301.51 30.4006V34H1299.38V30.4006L1295.66 23.8182ZM1319.64 34V23.8182H1321.8V28.0192H1326.17V23.8182H1328.32V34H1326.17V29.794H1321.8V34H1319.64ZM1335.09 34V23.8182H1341.95V25.593H1337.24V28.0192H1341.6V29.794H1337.24V32.2251H1341.97V34H1335.09ZM1348.66 34V23.8182H1350.81V32.2251H1355.18V34H1348.66ZM1361.61 34V23.8182H1363.76V32.2251H1368.12V34H1361.61ZM1383.51 28.9091C1383.51 30.0194 1383.3 30.964 1382.88 31.7429C1382.46 32.5218 1381.89 33.1167 1381.17 33.5277C1380.45 33.9354 1379.64 34.1392 1378.74 34.1392C1377.84 34.1392 1377.02 33.9337 1376.31 33.5227C1375.59 33.1117 1375.02 32.5168 1374.6 31.7379C1374.18 30.959 1373.97 30.0161 1373.97 28.9091C1373.97 27.7988 1374.18 26.8542 1374.6 26.0753C1375.02 25.2964 1375.59 24.7031 1376.31 24.2955C1377.02 23.8845 1377.84 23.679 1378.74 23.679C1379.64 23.679 1380.45 23.8845 1381.17 24.2955C1381.89 24.7031 1382.46 25.2964 1382.88 26.0753C1383.3 26.8542 1383.51 27.7988 1383.51 28.9091ZM1381.33 28.9091C1381.33 28.1899 1381.22 27.5833 1381 27.0895C1380.79 26.5956 1380.49 26.2211 1380.1 25.9659C1379.72 25.7107 1379.26 25.5831 1378.74 25.5831C1378.22 25.5831 1377.77 25.7107 1377.38 25.9659C1376.99 26.2211 1376.69 26.5956 1376.47 27.0895C1376.26 27.5833 1376.16 28.1899 1376.16 28.9091C1376.16 29.6283 1376.26 30.2348 1376.47 30.7287C1376.69 31.2225 1376.99 31.5971 1377.38 31.8523C1377.77 32.1075 1378.22 32.2351 1378.74 32.2351C1379.26 32.2351 1379.72 32.1075 1380.1 31.8523C1380.49 31.5971 1380.79 31.2225 1381 30.7287C1381.22 30.2348 1381.33 29.6283 1381.33 28.9091ZM1392.59 23.8182L1392.4 30.9474H1390.58L1390.38 23.8182H1392.59ZM1391.49 34.1293C1391.16 34.1293 1390.88 34.0133 1390.65 33.7812C1390.41 33.5459 1390.29 33.2642 1390.3 32.9361C1390.29 32.6113 1390.41 32.3329 1390.65 32.1009C1390.88 31.8688 1391.16 31.7528 1391.49 31.7528C1391.81 31.7528 1392.08 31.8688 1392.32 32.1009C1392.56 32.3329 1392.68 32.6113 1392.68 32.9361C1392.68 33.1548 1392.62 33.3554 1392.51 33.5376C1392.4 33.7166 1392.26 33.8608 1392.08 33.9702C1391.9 34.0762 1391.7 34.1293 1391.49 34.1293Z" fill="#070127"/>
<path d="M995.585 36V22.9091H1000.01C1001.04 22.9091 1001.88 23.0945 1002.53 23.4652C1003.18 23.8317 1003.67 24.3281 1003.98 24.9545C1004.3 25.581 1004.46 26.2798 1004.46 27.0511C1004.46 27.8224 1004.3 28.5234 1003.98 29.1541C1003.67 29.7848 1003.19 30.2876 1002.54 30.6626C1001.89 31.0334 1001.05 31.2188 1000.03 31.2188H996.864V29.8125H999.983C1000.69 29.8125 1001.25 29.6911 1001.68 29.4482C1002.1 29.2053 1002.41 28.8771 1002.6 28.4638C1002.8 28.0462 1002.9 27.5753 1002.9 27.0511C1002.9 26.527 1002.8 26.0582 1002.6 25.6449C1002.41 25.2315 1002.1 24.9077 1001.67 24.6733C1001.24 24.4347 1000.67 24.3153 999.957 24.3153H997.17V36H995.585ZM1006.81 36V26.1818H1008.26V27.6648H1008.37C1008.55 27.179 1008.87 26.7848 1009.34 26.4822C1009.81 26.1797 1010.33 26.0284 1010.92 26.0284C1011.03 26.0284 1011.17 26.0305 1011.34 26.0348C1011.5 26.0391 1011.63 26.0455 1011.72 26.054V27.5881C1011.66 27.5753 1011.55 27.5561 1011.36 27.5305C1011.19 27.5007 1011 27.4858 1010.8 27.4858C1010.32 27.4858 1009.89 27.5859 1009.52 27.7862C1009.15 27.9822 1008.85 28.255 1008.63 28.6044C1008.42 28.9496 1008.31 29.3437 1008.31 29.7869V36H1006.81ZM1013.5 36V26.1818H1015.01V36H1013.5ZM1014.27 24.5455C1013.98 24.5455 1013.72 24.4453 1013.51 24.245C1013.3 24.0447 1013.2 23.804 1013.2 23.5227C1013.2 23.2415 1013.3 23.0007 1013.51 22.8004C1013.72 22.6001 1013.98 22.5 1014.27 22.5C1014.56 22.5 1014.82 22.6001 1015.03 22.8004C1015.24 23.0007 1015.34 23.2415 1015.34 23.5227C1015.34 23.804 1015.24 24.0447 1015.03 24.245C1014.82 24.4453 1014.56 24.5455 1014.27 24.5455ZM1021.76 36.2045C1020.84 36.2045 1020.05 35.9872 1019.39 35.5526C1018.72 35.1179 1018.21 34.5192 1017.85 33.7564C1017.49 32.9936 1017.31 32.1222 1017.31 31.142C1017.31 30.1449 1017.5 29.2649 1017.86 28.5021C1018.24 27.7351 1018.75 27.1364 1019.41 26.706C1020.08 26.2713 1020.85 26.054 1021.74 26.054C1022.43 26.054 1023.05 26.1818 1023.6 26.4375C1024.16 26.6932 1024.61 27.0511 1024.97 27.5114C1025.32 27.9716 1025.54 28.5085 1025.62 29.1222H1024.12C1024 28.6747 1023.75 28.2784 1023.35 27.9332C1022.96 27.5838 1022.43 27.4091 1021.76 27.4091C1021.18 27.4091 1020.66 27.5625 1020.22 27.8693C1019.78 28.1719 1019.44 28.6001 1019.19 29.1541C1018.94 29.7038 1018.82 30.3494 1018.82 31.0909C1018.82 31.8494 1018.94 32.5099 1019.18 33.0724C1019.42 33.6349 1019.77 34.0717 1020.2 34.3828C1020.65 34.6939 1021.17 34.8494 1021.76 34.8494C1022.16 34.8494 1022.51 34.7812 1022.83 34.6449C1023.15 34.5085 1023.42 34.3125 1023.64 34.0568C1023.86 33.8011 1024.02 33.4943 1024.12 33.1364H1025.62C1025.54 33.7159 1025.33 34.2379 1024.99 34.7024C1024.66 35.1626 1024.22 35.5291 1023.67 35.8018C1023.12 36.0703 1022.49 36.2045 1021.76 36.2045ZM1027.83 36V26.1818H1029.34V36H1027.83ZM1028.6 24.5455C1028.3 24.5455 1028.05 24.4453 1027.84 24.245C1027.63 24.0447 1027.52 23.804 1027.52 23.5227C1027.52 23.2415 1027.63 23.0007 1027.84 22.8004C1028.05 22.6001 1028.3 22.5 1028.6 22.5C1028.89 22.5 1029.14 22.6001 1029.35 22.8004C1029.56 23.0007 1029.67 23.2415 1029.67 23.5227C1029.67 23.804 1029.56 24.0447 1029.35 24.245C1029.14 24.4453 1028.89 24.5455 1028.6 24.5455ZM1033.61 30.0938V36H1032.1V26.1818H1033.56V27.7159H1033.69C1033.92 27.2173 1034.27 26.8168 1034.73 26.5142C1035.2 26.2074 1035.81 26.054 1036.55 26.054C1037.22 26.054 1037.8 26.1903 1038.3 26.4631C1038.79 26.7315 1039.18 27.1406 1039.46 27.6903C1039.74 28.2358 1039.87 28.9261 1039.87 29.7614V36H1038.37V29.8636C1038.37 29.0923 1038.17 28.4915 1037.76 28.0611C1037.36 27.6264 1036.81 27.4091 1036.12 27.4091C1035.63 27.4091 1035.2 27.5135 1034.82 27.7223C1034.45 27.9311 1034.15 28.2358 1033.94 28.6364C1033.72 29.0369 1033.61 29.5227 1033.61 30.0938ZM1046.59 39.8864C1045.87 39.8864 1045.24 39.7926 1044.71 39.6051C1044.19 39.4219 1043.75 39.179 1043.4 38.8764C1043.06 38.5781 1042.78 38.2585 1042.58 37.9176L1043.78 37.0739C1043.92 37.2528 1044.09 37.4574 1044.3 37.6875C1044.51 37.9219 1044.79 38.1243 1045.16 38.2947C1045.52 38.4695 1046 38.5568 1046.59 38.5568C1047.39 38.5568 1048.04 38.3651 1048.56 37.9815C1049.07 37.598 1049.33 36.9972 1049.33 36.179V34.1847H1049.2C1049.09 34.3636 1048.93 34.5852 1048.73 34.8494C1048.53 35.1094 1048.24 35.3416 1047.86 35.5462C1047.48 35.7464 1046.98 35.8466 1046.34 35.8466C1045.55 35.8466 1044.83 35.6591 1044.2 35.2841C1043.58 34.9091 1043.08 34.3636 1042.71 33.6477C1042.35 32.9318 1042.17 32.0625 1042.17 31.0398C1042.17 30.0341 1042.35 29.1584 1042.7 28.4126C1043.05 27.6626 1043.55 27.0831 1044.18 26.674C1044.81 26.2607 1045.54 26.054 1046.36 26.054C1047 26.054 1047.51 26.1605 1047.88 26.3736C1048.26 26.5824 1048.55 26.821 1048.75 27.0895C1048.96 27.3537 1049.12 27.571 1049.23 27.7415H1049.38V26.1818H1050.84V36.2812C1050.84 37.125 1050.65 37.8111 1050.26 38.3395C1049.88 38.8722 1049.37 39.2621 1048.73 39.5092C1048.09 39.7607 1047.38 39.8864 1046.59 39.8864ZM1046.54 34.4915C1047.15 34.4915 1047.66 34.353 1048.08 34.076C1048.49 33.799 1048.81 33.4006 1049.03 32.8807C1049.25 32.3608 1049.36 31.7386 1049.36 31.0142C1049.36 30.3068 1049.25 29.6825 1049.04 29.1413C1048.82 28.6001 1048.51 28.1761 1048.09 27.8693C1047.67 27.5625 1047.16 27.4091 1046.54 27.4091C1045.9 27.4091 1045.37 27.571 1044.94 27.8949C1044.52 28.2187 1044.21 28.6534 1043.99 29.1989C1043.78 29.7443 1043.68 30.3494 1043.68 31.0142C1043.68 31.696 1043.79 32.299 1044 32.8232C1044.22 33.343 1044.54 33.7521 1044.96 34.0504C1045.38 34.3445 1045.91 34.4915 1046.54 34.4915Z" fill="#070127"/>
<path d="M868.585 36V22.9091H873.009C874.036 22.9091 874.875 23.0945 875.527 23.4652C876.183 23.8317 876.669 24.3281 876.984 24.9545C877.3 25.581 877.458 26.2798 877.458 27.0511C877.458 27.8224 877.3 28.5234 876.984 29.1541C876.673 29.7848 876.192 30.2876 875.54 30.6626C874.888 31.0334 874.053 31.2188 873.034 31.2188H869.864V29.8125H872.983C873.686 29.8125 874.251 29.6911 874.677 29.4482C875.103 29.2053 875.412 28.8771 875.604 28.4638C875.8 28.0462 875.898 27.5753 875.898 27.0511C875.898 26.527 875.8 26.0582 875.604 25.6449C875.412 25.2315 875.101 24.9077 874.671 24.6733C874.24 24.4347 873.669 24.3153 872.958 24.3153H870.171V36H868.585ZM879.807 36V26.1818H881.264V27.6648H881.366C881.545 27.179 881.869 26.7848 882.338 26.4822C882.807 26.1797 883.335 26.0284 883.923 26.0284C884.034 26.0284 884.172 26.0305 884.339 26.0348C884.505 26.0391 884.63 26.0455 884.716 26.054V27.5881C884.665 27.5753 884.547 27.5561 884.364 27.5305C884.185 27.5007 883.996 27.4858 883.795 27.4858C883.318 27.4858 882.892 27.5859 882.517 27.7862C882.146 27.9822 881.852 28.255 881.635 28.6044C881.422 28.9496 881.315 29.3437 881.315 29.7869V36H879.807ZM890.194 36.2045C889.307 36.2045 888.53 35.9936 887.861 35.5717C887.196 35.1499 886.676 34.5597 886.301 33.8011C885.93 33.0426 885.745 32.1562 885.745 31.142C885.745 30.1193 885.93 29.2266 886.301 28.4638C886.676 27.701 887.196 27.1087 887.861 26.6868C888.53 26.2649 889.307 26.054 890.194 26.054C891.08 26.054 891.856 26.2649 892.52 26.6868C893.189 27.1087 893.709 27.701 894.08 28.4638C894.455 29.2266 894.643 30.1193 894.643 31.142C894.643 32.1562 894.455 33.0426 894.08 33.8011C893.709 34.5597 893.189 35.1499 892.52 35.5717C891.856 35.9936 891.08 36.2045 890.194 36.2045ZM890.194 34.8494C890.867 34.8494 891.421 34.6768 891.856 34.3317C892.29 33.9865 892.612 33.5327 892.821 32.9702C893.03 32.4077 893.134 31.7983 893.134 31.142C893.134 30.4858 893.03 29.8743 892.821 29.3075C892.612 28.7408 892.29 28.2827 891.856 27.9332C891.421 27.5838 890.867 27.4091 890.194 27.4091C889.52 27.4091 888.966 27.5838 888.532 27.9332C888.097 28.2827 887.775 28.7408 887.567 29.3075C887.358 29.8743 887.253 30.4858 887.253 31.142C887.253 31.7983 887.358 32.4077 887.567 32.9702C887.775 33.5327 888.097 33.9865 888.532 34.3317C888.966 34.6768 889.52 34.8494 890.194 34.8494ZM896.945 26.1818H898.454V36.7159C898.454 37.321 898.349 37.8452 898.141 38.2884C897.936 38.7315 897.625 39.0746 897.207 39.3175C896.794 39.5604 896.272 39.6818 895.641 39.6818C895.59 39.6818 895.539 39.6818 895.488 39.6818C895.437 39.6818 895.386 39.6818 895.334 39.6818V38.2756C895.386 38.2756 895.432 38.2756 895.475 38.2756C895.518 38.2756 895.565 38.2756 895.616 38.2756C896.076 38.2756 896.413 38.1392 896.626 37.8665C896.839 37.598 896.945 37.2145 896.945 36.7159V26.1818ZM897.687 24.5455C897.393 24.5455 897.139 24.4453 896.926 24.245C896.717 24.0447 896.613 23.804 896.613 23.5227C896.613 23.2415 896.717 23.0007 896.926 22.8004C897.139 22.6001 897.393 22.5 897.687 22.5C897.981 22.5 898.232 22.6001 898.441 22.8004C898.654 23.0007 898.761 23.2415 898.761 23.5227C898.761 23.804 898.654 24.0447 898.441 24.245C898.232 24.4453 897.981 24.5455 897.687 24.5455ZM905.333 36.2045C904.387 36.2045 903.571 35.9957 902.885 35.5781C902.203 35.1562 901.677 34.5682 901.306 33.8139C900.94 33.0554 900.757 32.1733 900.757 31.1676C900.757 30.1619 900.94 29.2756 901.306 28.5085C901.677 27.7372 902.193 27.1364 902.853 26.706C903.518 26.2713 904.293 26.054 905.18 26.054C905.691 26.054 906.196 26.1392 906.695 26.3097C907.193 26.4801 907.647 26.7571 908.056 27.1406C908.465 27.5199 908.791 28.0227 909.034 28.6491C909.277 29.2756 909.399 30.0469 909.399 30.9631V31.6023H901.83V30.2983H907.864C907.864 29.7443 907.754 29.25 907.532 28.8153C907.315 28.3807 907.004 28.0376 906.599 27.7862C906.198 27.5348 905.725 27.4091 905.18 27.4091C904.579 27.4091 904.059 27.5582 903.62 27.8565C903.185 28.1506 902.851 28.5341 902.617 29.0071C902.382 29.4801 902.265 29.9872 902.265 30.5284V31.3977C902.265 32.1392 902.393 32.7678 902.649 33.2834C902.909 33.7947 903.269 34.1847 903.729 34.4531C904.189 34.7173 904.724 34.8494 905.333 34.8494C905.73 34.8494 906.087 34.794 906.407 34.6832C906.731 34.5682 907.01 34.3977 907.244 34.1719C907.479 33.9418 907.66 33.6562 907.788 33.3153L909.245 33.7244C909.092 34.2188 908.834 34.6534 908.472 35.0284C908.109 35.3991 907.662 35.6889 907.129 35.8977C906.597 36.1023 905.998 36.2045 905.333 36.2045ZM915.682 36.2045C914.761 36.2045 913.969 35.9872 913.304 35.5526C912.639 35.1179 912.128 34.5192 911.77 33.7564C911.412 32.9936 911.233 32.1222 911.233 31.142C911.233 30.1449 911.416 29.2649 911.783 28.5021C912.154 27.7351 912.669 27.1364 913.33 26.706C913.994 26.2713 914.77 26.054 915.656 26.054C916.347 26.054 916.969 26.1818 917.523 26.4375C918.077 26.6932 918.531 27.0511 918.884 27.5114C919.238 27.9716 919.458 28.5085 919.543 29.1222H918.034C917.919 28.6747 917.663 28.2784 917.267 27.9332C916.875 27.5838 916.347 27.4091 915.682 27.4091C915.094 27.4091 914.578 27.5625 914.135 27.8693C913.696 28.1719 913.353 28.6001 913.106 29.1541C912.863 29.7038 912.742 30.3494 912.742 31.0909C912.742 31.8494 912.861 32.5099 913.1 33.0724C913.342 33.6349 913.683 34.0717 914.122 34.3828C914.565 34.6939 915.085 34.8494 915.682 34.8494C916.074 34.8494 916.43 34.7812 916.749 34.6449C917.069 34.5085 917.34 34.3125 917.561 34.0568C917.783 33.8011 917.94 33.4943 918.034 33.1364H919.543C919.458 33.7159 919.247 34.2379 918.91 34.7024C918.578 35.1626 918.136 35.5291 917.587 35.8018C917.041 36.0703 916.406 36.2045 915.682 36.2045ZM926.018 26.1818V27.4602H920.93V26.1818H926.018ZM922.413 23.8295H923.921V33.1875C923.921 33.6136 923.983 33.9332 924.107 34.1463C924.234 34.3551 924.396 34.4957 924.592 34.5682C924.793 34.6364 925.004 34.6705 925.225 34.6705C925.391 34.6705 925.528 34.6619 925.634 34.6449C925.741 34.6236 925.826 34.6065 925.89 34.5938L926.197 35.9489C926.095 35.9872 925.952 36.0256 925.769 36.0639C925.585 36.1065 925.353 36.1278 925.072 36.1278C924.646 36.1278 924.228 36.0362 923.819 35.853C923.414 35.6697 923.078 35.3906 922.809 35.0156C922.545 34.6406 922.413 34.1676 922.413 33.5966V23.8295ZM935.066 28.3807L933.711 28.7642C933.625 28.5384 933.5 28.3189 933.334 28.1058C933.172 27.8885 932.95 27.7095 932.669 27.5689C932.388 27.4283 932.027 27.358 931.589 27.358C930.988 27.358 930.487 27.4964 930.086 27.7734C929.69 28.0462 929.492 28.3935 929.492 28.8153C929.492 29.1903 929.628 29.4865 929.901 29.7038C930.174 29.9212 930.6 30.1023 931.179 30.2472L932.637 30.6051C933.515 30.8182 934.169 31.1442 934.599 31.5831C935.03 32.0178 935.245 32.5781 935.245 33.2642C935.245 33.8267 935.083 34.3295 934.759 34.7727C934.439 35.2159 933.992 35.5653 933.417 35.821C932.841 36.0767 932.172 36.2045 931.41 36.2045C930.408 36.2045 929.579 35.9872 928.923 35.5526C928.267 35.1179 927.851 34.483 927.677 33.6477L929.108 33.2898C929.245 33.8182 929.503 34.2145 929.882 34.4787C930.265 34.7429 930.766 34.875 931.384 34.875C932.087 34.875 932.645 34.7259 933.059 34.4276C933.476 34.125 933.685 33.7628 933.685 33.3409C933.685 33 933.566 32.7145 933.327 32.4844C933.089 32.25 932.722 32.0753 932.228 31.9602L930.591 31.5767C929.692 31.3636 929.032 31.0334 928.61 30.5859C928.192 30.1342 927.983 29.5696 927.983 28.892C927.983 28.3381 928.139 27.848 928.45 27.4219C928.765 26.9957 929.194 26.6612 929.735 26.4183C930.28 26.1754 930.898 26.054 931.589 26.054C932.56 26.054 933.323 26.267 933.877 26.6932C934.435 27.1193 934.831 27.6818 935.066 28.3807Z" fill="#070127"/>
<path d="M747.744 26.1818C747.668 25.5341 747.357 25.0312 746.811 24.6733C746.266 24.3153 745.597 24.1364 744.804 24.1364C744.225 24.1364 743.717 24.2301 743.283 24.4176C742.852 24.6051 742.516 24.8629 742.273 25.1911C742.034 25.5192 741.915 25.892 741.915 26.3097C741.915 26.6591 741.998 26.9595 742.164 27.2109C742.335 27.4581 742.552 27.6648 742.816 27.831C743.08 27.9929 743.357 28.1271 743.647 28.2337C743.937 28.3359 744.203 28.419 744.446 28.483L745.776 28.8409C746.117 28.9304 746.496 29.054 746.913 29.2116C747.335 29.3693 747.738 29.5845 748.122 29.8572C748.509 30.1257 748.829 30.4709 749.08 30.8928C749.332 31.3146 749.458 31.8324 749.458 32.446C749.458 33.1534 749.272 33.7926 748.901 34.3636C748.535 34.9347 747.998 35.3885 747.291 35.7251C746.587 36.0618 745.733 36.2301 744.727 36.2301C743.79 36.2301 742.978 36.0788 742.292 35.7763C741.61 35.4737 741.073 35.0518 740.681 34.5107C740.293 33.9695 740.074 33.3409 740.023 32.625H741.659C741.702 33.1193 741.868 33.5284 742.158 33.8523C742.452 34.1719 742.823 34.4105 743.27 34.5682C743.722 34.7216 744.208 34.7983 744.727 34.7983C745.333 34.7983 745.876 34.7003 746.357 34.5043C746.839 34.304 747.22 34.027 747.502 33.6733C747.783 33.3153 747.923 32.8977 747.923 32.4205C747.923 31.9858 747.802 31.6321 747.559 31.3594C747.316 31.0866 746.997 30.8651 746.6 30.6946C746.204 30.5241 745.776 30.375 745.315 30.2472L743.705 29.7869C742.682 29.4929 741.872 29.0732 741.276 28.5277C740.679 27.9822 740.381 27.2685 740.381 26.3864C740.381 25.6534 740.579 25.0142 740.975 24.4688C741.376 23.919 741.913 23.4929 742.586 23.1903C743.264 22.8835 744.02 22.7301 744.855 22.7301C745.699 22.7301 746.449 22.8814 747.105 23.1839C747.761 23.4822 748.281 23.8913 748.665 24.4112C749.053 24.9311 749.257 25.5213 749.279 26.1818H747.744ZM755.976 36.2045C755.03 36.2045 754.214 35.9957 753.528 35.5781C752.846 35.1562 752.32 34.5682 751.949 33.8139C751.582 33.0554 751.399 32.1733 751.399 31.1676C751.399 30.1619 751.582 29.2756 751.949 28.5085C752.32 27.7372 752.835 27.1364 753.496 26.706C754.16 26.2713 754.936 26.054 755.822 26.054C756.334 26.054 756.839 26.1392 757.337 26.3097C757.836 26.4801 758.29 26.7571 758.699 27.1406C759.108 27.5199 759.434 28.0227 759.677 28.6491C759.92 29.2756 760.041 30.0469 760.041 30.9631V31.6023H752.473V30.2983H758.507C758.507 29.7443 758.396 29.25 758.175 28.8153C757.957 28.3807 757.646 28.0376 757.241 27.7862C756.841 27.5348 756.368 27.4091 755.822 27.4091C755.222 27.4091 754.702 27.5582 754.263 27.8565C753.828 28.1506 753.494 28.5341 753.259 29.0071C753.025 29.4801 752.908 29.9872 752.908 30.5284V31.3977C752.908 32.1392 753.035 32.7678 753.291 33.2834C753.551 33.7947 753.911 34.1847 754.371 34.4531C754.832 34.7173 755.366 34.8494 755.976 34.8494C756.372 34.8494 756.73 34.794 757.05 34.6832C757.374 34.5682 757.653 34.3977 757.887 34.1719C758.121 33.9418 758.303 33.6562 758.43 33.3153L759.888 33.7244C759.734 34.2188 759.477 34.6534 759.114 35.0284C758.752 35.3991 758.305 35.6889 757.772 35.8977C757.239 36.1023 756.641 36.2045 755.976 36.2045ZM762.336 36V26.1818H763.793V27.6648H763.896C764.075 27.179 764.398 26.7848 764.867 26.4822C765.336 26.1797 765.864 26.0284 766.452 26.0284C766.563 26.0284 766.702 26.0305 766.868 26.0348C767.034 26.0391 767.16 26.0455 767.245 26.054V27.5881C767.194 27.5753 767.077 27.5561 766.893 27.5305C766.714 27.5007 766.525 27.4858 766.325 27.4858C765.847 27.4858 765.421 27.5859 765.046 27.7862C764.675 27.9822 764.381 28.255 764.164 28.6044C763.951 28.9496 763.844 29.3437 763.844 29.7869V36H762.336ZM777.36 26.1818L773.73 36H772.196L768.565 26.1818H770.201L772.912 34.0057H773.014L775.724 26.1818H777.36ZM779.352 36V26.1818H780.86V36H779.352ZM780.119 24.5455C779.825 24.5455 779.571 24.4453 779.358 24.245C779.149 24.0447 779.045 23.804 779.045 23.5227C779.045 23.2415 779.149 23.0007 779.358 22.8004C779.571 22.6001 779.825 22.5 780.119 22.5C780.413 22.5 780.664 22.6001 780.873 22.8004C781.086 23.0007 781.192 23.2415 781.192 23.5227C781.192 23.804 781.086 24.0447 780.873 24.245C780.664 24.4453 780.413 24.5455 780.119 24.5455ZM787.612 36.2045C786.691 36.2045 785.899 35.9872 785.234 35.5526C784.569 35.1179 784.058 34.5192 783.7 33.7564C783.342 32.9936 783.163 32.1222 783.163 31.142C783.163 30.1449 783.346 29.2649 783.712 28.5021C784.083 27.7351 784.599 27.1364 785.259 26.706C785.924 26.2713 786.7 26.054 787.586 26.054C788.276 26.054 788.899 26.1818 789.453 26.4375C790.007 26.6932 790.46 27.0511 790.814 27.5114C791.168 27.9716 791.387 28.5085 791.472 29.1222H789.964C789.849 28.6747 789.593 28.2784 789.197 27.9332C788.805 27.5838 788.276 27.4091 787.612 27.4091C787.024 27.4091 786.508 27.5625 786.065 27.8693C785.626 28.1719 785.283 28.6001 785.036 29.1541C784.793 29.7038 784.671 30.3494 784.671 31.0909C784.671 31.8494 784.791 32.5099 785.029 33.0724C785.272 33.6349 785.613 34.0717 786.052 34.3828C786.495 34.6939 787.015 34.8494 787.612 34.8494C788.004 34.8494 788.359 34.7812 788.679 34.6449C788.999 34.5085 789.269 34.3125 789.491 34.0568C789.712 33.8011 789.87 33.4943 789.964 33.1364H791.472C791.387 33.7159 791.176 34.2379 790.84 34.7024C790.507 35.1626 790.066 35.5291 789.516 35.8018C788.971 36.0703 788.336 36.2045 787.612 36.2045ZM797.794 36.2045C796.848 36.2045 796.032 35.9957 795.346 35.5781C794.664 35.1562 794.138 34.5682 793.767 33.8139C793.401 33.0554 793.217 32.1733 793.217 31.1676C793.217 30.1619 793.401 29.2756 793.767 28.5085C794.138 27.7372 794.654 27.1364 795.314 26.706C795.979 26.2713 796.754 26.054 797.641 26.054C798.152 26.054 798.657 26.1392 799.156 26.3097C799.654 26.4801 800.108 26.7571 800.517 27.1406C800.926 27.5199 801.252 28.0227 801.495 28.6491C801.738 29.2756 801.859 30.0469 801.859 30.9631V31.6023H794.291V30.2983H800.325C800.325 29.7443 800.215 29.25 799.993 28.8153C799.776 28.3807 799.465 28.0376 799.06 27.7862C798.659 27.5348 798.186 27.4091 797.641 27.4091C797.04 27.4091 796.52 27.5582 796.081 27.8565C795.646 28.1506 795.312 28.5341 795.078 29.0071C794.843 29.4801 794.726 29.9872 794.726 30.5284V31.3977C794.726 32.1392 794.854 32.7678 795.109 33.2834C795.369 33.7947 795.73 34.1847 796.19 34.4531C796.65 34.7173 797.185 34.8494 797.794 34.8494C798.19 34.8494 798.548 34.794 798.868 34.6832C799.192 34.5682 799.471 34.3977 799.705 34.1719C799.94 33.9418 800.121 33.6562 800.249 33.3153L801.706 33.7244C801.553 34.2188 801.295 34.6534 800.933 35.0284C800.57 35.3991 800.123 35.6889 799.59 35.8977C799.058 36.1023 798.459 36.2045 797.794 36.2045ZM811.109 28.3807L809.754 28.7642C809.668 28.5384 809.543 28.3189 809.377 28.1058C809.215 27.8885 808.993 27.7095 808.712 27.5689C808.431 27.4283 808.07 27.358 807.632 27.358C807.031 27.358 806.53 27.4964 806.129 27.7734C805.733 28.0462 805.535 28.3935 805.535 28.8153C805.535 29.1903 805.671 29.4865 805.944 29.7038C806.217 29.9212 806.643 30.1023 807.222 30.2472L808.68 30.6051C809.558 30.8182 810.212 31.1442 810.642 31.5831C811.073 32.0178 811.288 32.5781 811.288 33.2642C811.288 33.8267 811.126 34.3295 810.802 34.7727C810.482 35.2159 810.035 35.5653 809.46 35.821C808.884 36.0767 808.215 36.2045 807.453 36.2045C806.451 36.2045 805.622 35.9872 804.966 35.5526C804.31 35.1179 803.894 34.483 803.72 33.6477L805.151 33.2898C805.288 33.8182 805.546 34.2145 805.925 34.4787C806.308 34.7429 806.809 34.875 807.427 34.875C808.13 34.875 808.688 34.7259 809.102 34.4276C809.519 34.125 809.728 33.7628 809.728 33.3409C809.728 33 809.609 32.7145 809.37 32.4844C809.132 32.25 808.765 32.0753 808.271 31.9602L806.634 31.5767C805.735 31.3636 805.075 31.0334 804.653 30.5859C804.235 30.1342 804.026 29.5696 804.026 28.892C804.026 28.3381 804.182 27.848 804.493 27.4219C804.808 26.9957 805.237 26.6612 805.778 26.4183C806.323 26.1754 806.941 26.054 807.632 26.054C808.603 26.054 809.366 26.267 809.92 26.6932C810.478 27.1193 810.874 27.6818 811.109 28.3807Z" fill="#070127"/>
<path d="M1124.12 27H1122.53C1122.44 26.544 1122.28 26.1435 1122.04 25.7983C1121.81 25.4531 1121.53 25.1634 1121.2 24.929C1120.87 24.6903 1120.51 24.5114 1120.11 24.392C1119.7 24.2727 1119.29 24.2131 1118.85 24.2131C1118.06 24.2131 1117.34 24.4134 1116.7 24.8139C1116.06 25.2145 1115.55 25.8047 1115.17 26.5845C1114.8 27.3643 1114.61 28.321 1114.61 29.4545C1114.61 30.5881 1114.8 31.5447 1115.17 32.3246C1115.55 33.1044 1116.06 33.6946 1116.7 34.0952C1117.34 34.4957 1118.06 34.696 1118.85 34.696C1119.29 34.696 1119.7 34.6364 1120.11 34.517C1120.51 34.3977 1120.87 34.2209 1121.2 33.9865C1121.53 33.7479 1121.81 33.456 1122.04 33.1108C1122.28 32.7614 1122.44 32.3608 1122.53 31.9091H1124.12C1124 32.5781 1123.78 33.1768 1123.47 33.7053C1123.15 34.2337 1122.76 34.6832 1122.29 35.054C1121.82 35.4205 1121.3 35.6996 1120.71 35.8913C1120.13 36.0831 1119.51 36.179 1118.85 36.179C1117.74 36.179 1116.74 35.9062 1115.87 35.3608C1115 34.8153 1114.32 34.0398 1113.82 33.0341C1113.32 32.0284 1113.07 30.8352 1113.07 29.4545C1113.07 28.0739 1113.32 26.8807 1113.82 25.875C1114.32 24.8693 1115 24.0938 1115.87 23.5483C1116.74 23.0028 1117.74 22.7301 1118.85 22.7301C1119.51 22.7301 1120.13 22.826 1120.71 23.0178C1121.3 23.2095 1121.82 23.4908 1122.29 23.8615C1122.76 24.228 1123.15 24.6754 1123.47 25.2038C1123.78 25.728 1124 26.3267 1124.12 27ZM1130.47 36.2045C1129.58 36.2045 1128.8 35.9936 1128.13 35.5717C1127.47 35.1499 1126.95 34.5597 1126.57 33.8011C1126.2 33.0426 1126.02 32.1562 1126.02 31.142C1126.02 30.1193 1126.2 29.2266 1126.57 28.4638C1126.95 27.701 1127.47 27.1087 1128.13 26.6868C1128.8 26.2649 1129.58 26.054 1130.47 26.054C1131.35 26.054 1132.13 26.2649 1132.79 26.6868C1133.46 27.1087 1133.98 27.701 1134.35 28.4638C1134.73 29.2266 1134.91 30.1193 1134.91 31.142C1134.91 32.1562 1134.73 33.0426 1134.35 33.8011C1133.98 34.5597 1133.46 35.1499 1132.79 35.5717C1132.13 35.9936 1131.35 36.2045 1130.47 36.2045ZM1130.47 34.8494C1131.14 34.8494 1131.69 34.6768 1132.13 34.3317C1132.56 33.9865 1132.88 33.5327 1133.09 32.9702C1133.3 32.4077 1133.41 31.7983 1133.41 31.142C1133.41 30.4858 1133.3 29.8743 1133.09 29.3075C1132.88 28.7408 1132.56 28.2827 1132.13 27.9332C1131.69 27.5838 1131.14 27.4091 1130.47 27.4091C1129.79 27.4091 1129.24 27.5838 1128.8 27.9332C1128.37 28.2827 1128.05 28.7408 1127.84 29.3075C1127.63 29.8743 1127.52 30.4858 1127.52 31.142C1127.52 31.7983 1127.63 32.4077 1127.84 32.9702C1128.05 33.5327 1128.37 33.9865 1128.8 34.3317C1129.24 34.6768 1129.79 34.8494 1130.47 34.8494ZM1138.73 30.0938V36H1137.22V26.1818H1138.67V27.7159H1138.8C1139.03 27.2173 1139.38 26.8168 1139.85 26.5142C1140.32 26.2074 1140.92 26.054 1141.67 26.054C1142.33 26.054 1142.91 26.1903 1143.41 26.4631C1143.91 26.7315 1144.3 27.1406 1144.57 27.6903C1144.85 28.2358 1144.99 28.9261 1144.99 29.7614V36H1143.48V29.8636C1143.48 29.0923 1143.28 28.4915 1142.88 28.0611C1142.48 27.6264 1141.93 27.4091 1141.23 27.4091C1140.75 27.4091 1140.32 27.5135 1139.94 27.7223C1139.56 27.9311 1139.27 28.2358 1139.05 28.6364C1138.83 29.0369 1138.73 29.5227 1138.73 30.0938ZM1152.02 26.1818V27.4602H1146.93V26.1818H1152.02ZM1148.41 23.8295H1149.92V33.1875C1149.92 33.6136 1149.98 33.9332 1150.1 34.1463C1150.23 34.3551 1150.39 34.4957 1150.59 34.5682C1150.79 34.6364 1151 34.6705 1151.22 34.6705C1151.39 34.6705 1151.53 34.6619 1151.63 34.6449C1151.74 34.6236 1151.82 34.6065 1151.89 34.5938L1152.19 35.9489C1152.09 35.9872 1151.95 36.0256 1151.77 36.0639C1151.58 36.1065 1151.35 36.1278 1151.07 36.1278C1150.64 36.1278 1150.23 36.0362 1149.82 35.853C1149.41 35.6697 1149.08 35.3906 1148.81 35.0156C1148.54 34.6406 1148.41 34.1676 1148.41 33.5966V23.8295ZM1157.17 36.2301C1156.55 36.2301 1155.99 36.1129 1155.48 35.8786C1154.97 35.6399 1154.57 35.2969 1154.27 34.8494C1153.97 34.3977 1153.82 33.8523 1153.82 33.2131C1153.82 32.6506 1153.94 32.1946 1154.16 31.8452C1154.38 31.4915 1154.67 31.2145 1155.05 31.0142C1155.42 30.8139 1155.83 30.6648 1156.27 30.5668C1156.72 30.4645 1157.18 30.3835 1157.63 30.3239C1158.23 30.2472 1158.71 30.1896 1159.09 30.1513C1159.46 30.1087 1159.73 30.0384 1159.9 29.9403C1160.08 29.8423 1160.17 29.6719 1160.17 29.429V29.3778C1160.17 28.7472 1159.99 28.2571 1159.65 27.9077C1159.31 27.5582 1158.79 27.3835 1158.09 27.3835C1157.37 27.3835 1156.81 27.5412 1156.4 27.8565C1155.99 28.1719 1155.7 28.5085 1155.54 28.8665L1154.11 28.3551C1154.36 27.7585 1154.7 27.294 1155.13 26.9616C1155.56 26.625 1156.03 26.3906 1156.53 26.2585C1157.05 26.1222 1157.55 26.054 1158.04 26.054C1158.36 26.054 1158.72 26.0923 1159.13 26.169C1159.54 26.2415 1159.94 26.3928 1160.33 26.6229C1160.71 26.853 1161.03 27.2003 1161.29 27.6648C1161.55 28.1293 1161.67 28.7514 1161.67 29.5312V36H1160.17V34.6705H1160.09C1159.99 34.8835 1159.82 35.1115 1159.58 35.3544C1159.34 35.5973 1159.02 35.804 1158.63 35.9744C1158.23 36.1449 1157.75 36.2301 1157.17 36.2301ZM1157.4 34.875C1158 34.875 1158.5 34.7578 1158.91 34.5234C1159.33 34.2891 1159.64 33.9865 1159.85 33.6158C1160.06 33.245 1160.17 32.8551 1160.17 32.446V31.0653C1160.1 31.142 1159.96 31.2124 1159.74 31.2763C1159.53 31.3359 1159.28 31.3892 1159 31.4361C1158.73 31.4787 1158.45 31.517 1158.19 31.5511C1157.93 31.581 1157.72 31.6065 1157.56 31.6278C1157.17 31.679 1156.8 31.7621 1156.46 31.8771C1156.12 31.9879 1155.85 32.1562 1155.64 32.3821C1155.44 32.6037 1155.33 32.9062 1155.33 33.2898C1155.33 33.8139 1155.53 34.2102 1155.91 34.4787C1156.31 34.7429 1156.8 34.875 1157.4 34.875ZM1168.42 36.2045C1167.5 36.2045 1166.7 35.9872 1166.04 35.5526C1165.37 35.1179 1164.86 34.5192 1164.5 33.7564C1164.15 32.9936 1163.97 32.1222 1163.97 31.142C1163.97 30.1449 1164.15 29.2649 1164.52 28.5021C1164.89 27.7351 1165.4 27.1364 1166.06 26.706C1166.73 26.2713 1167.5 26.054 1168.39 26.054C1169.08 26.054 1169.7 26.1818 1170.26 26.4375C1170.81 26.6932 1171.26 27.0511 1171.62 27.5114C1171.97 27.9716 1172.19 28.5085 1172.28 29.1222H1170.77C1170.65 28.6747 1170.4 28.2784 1170 27.9332C1169.61 27.5838 1169.08 27.4091 1168.42 27.4091C1167.83 27.4091 1167.31 27.5625 1166.87 27.8693C1166.43 28.1719 1166.09 28.6001 1165.84 29.1541C1165.6 29.7038 1165.48 30.3494 1165.48 31.0909C1165.48 31.8494 1165.6 32.5099 1165.83 33.0724C1166.08 33.6349 1166.42 34.0717 1166.86 34.3828C1167.3 34.6939 1167.82 34.8494 1168.42 34.8494C1168.81 34.8494 1169.16 34.7812 1169.48 34.6449C1169.8 34.5085 1170.07 34.3125 1170.3 34.0568C1170.52 33.8011 1170.67 33.4943 1170.77 33.1364H1172.28C1172.19 33.7159 1171.98 34.2379 1171.64 34.7024C1171.31 35.1626 1170.87 35.5291 1170.32 35.8018C1169.78 36.0703 1169.14 36.2045 1168.42 36.2045ZM1178.75 26.1818V27.4602H1173.66V26.1818H1178.75ZM1175.15 23.8295H1176.66V33.1875C1176.66 33.6136 1176.72 33.9332 1176.84 34.1463C1176.97 34.3551 1177.13 34.4957 1177.33 34.5682C1177.53 34.6364 1177.74 34.6705 1177.96 34.6705C1178.13 34.6705 1178.26 34.6619 1178.37 34.6449C1178.48 34.6236 1178.56 34.6065 1178.62 34.5938L1178.93 35.9489C1178.83 35.9872 1178.69 36.0256 1178.5 36.0639C1178.32 36.1065 1178.09 36.1278 1177.81 36.1278C1177.38 36.1278 1176.96 36.0362 1176.55 35.853C1176.15 35.6697 1175.81 35.3906 1175.54 35.0156C1175.28 34.6406 1175.15 34.1676 1175.15 33.5966V23.8295ZM1194.88 22.9091H1196.46V31.5767C1196.46 32.4716 1196.25 33.2706 1195.83 33.9737C1195.41 34.6726 1194.82 35.2244 1194.06 35.6293C1193.3 36.0298 1192.4 36.2301 1191.38 36.2301C1190.35 36.2301 1189.45 36.0298 1188.69 35.6293C1187.93 35.2244 1187.34 34.6726 1186.91 33.9737C1186.5 33.2706 1186.29 32.4716 1186.29 31.5767V22.9091H1187.87V31.4489C1187.87 32.0881 1188.01 32.657 1188.3 33.1555C1188.58 33.6499 1188.98 34.0398 1189.5 34.3253C1190.02 34.6065 1190.65 34.7472 1191.38 34.7472C1192.11 34.7472 1192.73 34.6065 1193.26 34.3253C1193.78 34.0398 1194.18 33.6499 1194.46 33.1555C1194.74 32.657 1194.88 32.0881 1194.88 31.4489V22.9091ZM1206.38 28.3807L1205.03 28.7642C1204.94 28.5384 1204.81 28.3189 1204.65 28.1058C1204.49 27.8885 1204.26 27.7095 1203.98 27.5689C1203.7 27.4283 1203.34 27.358 1202.9 27.358C1202.3 27.358 1201.8 27.4964 1201.4 27.7734C1201 28.0462 1200.81 28.3935 1200.81 28.8153C1200.81 29.1903 1200.94 29.4865 1201.22 29.7038C1201.49 29.9212 1201.91 30.1023 1202.49 30.2472L1203.95 30.6051C1204.83 30.8182 1205.48 31.1442 1205.91 31.5831C1206.34 32.0178 1206.56 32.5781 1206.56 33.2642C1206.56 33.8267 1206.4 34.3295 1206.07 34.7727C1205.75 35.2159 1205.31 35.5653 1204.73 35.821C1204.16 36.0767 1203.49 36.2045 1202.72 36.2045C1201.72 36.2045 1200.89 35.9872 1200.24 35.5526C1199.58 35.1179 1199.17 34.483 1198.99 33.6477L1200.42 33.2898C1200.56 33.8182 1200.82 34.2145 1201.2 34.4787C1201.58 34.7429 1202.08 34.875 1202.7 34.875C1203.4 34.875 1203.96 34.7259 1204.37 34.4276C1204.79 34.125 1205 33.7628 1205 33.3409C1205 33 1204.88 32.7145 1204.64 32.4844C1204.4 32.25 1204.04 32.0753 1203.54 31.9602L1201.91 31.5767C1201.01 31.3636 1200.35 31.0334 1199.92 30.5859C1199.51 30.1342 1199.3 29.5696 1199.3 28.892C1199.3 28.3381 1199.45 27.848 1199.76 27.4219C1200.08 26.9957 1200.51 26.6612 1201.05 26.4183C1201.59 26.1754 1202.21 26.054 1202.9 26.054C1203.87 26.054 1204.64 26.267 1205.19 26.6932C1205.75 27.1193 1206.15 27.6818 1206.38 28.3807Z" fill="#070127"/>
<path fill-rule="evenodd" clip-rule="evenodd" d="M21.689 6.3556C21.4251 6.55123 21.096 6.78054 20.958 6.86518C20.8197 6.94959 20.6079 7.10867 20.4871 7.21834C20.3665 7.32801 20.2234 7.41774 20.1691 7.41774C20.1148 7.41774 19.9705 7.52741 19.8483 7.66145C19.7262 7.79549 19.4824 8.0248 19.3061 8.17103C19.1301 8.31726 18.8593 8.54657 18.7042 8.68061C18.5491 8.81465 18.3721 8.92432 18.3103 8.92432C18.2488 8.92432 18.113 9.02402 18.0087 9.14588C17.9045 9.26773 17.7876 9.36743 17.7492 9.36743C17.7108 9.36743 17.5378 9.50701 17.3649 9.67761C17.192 9.84821 17.0146 9.98779 16.9708 9.98779C16.927 9.98779 16.8892 10.0376 16.8873 10.0986C16.8853 10.1595 16.6293 10.3689 16.3183 10.5638C16.0073 10.7588 15.6263 11.0289 15.4714 11.164C15.3166 11.2992 15.0721 11.5128 14.9281 11.6386C14.1984 12.2762 14.0453 12.391 13.8621 12.4378C13.7526 12.4657 13.6632 12.5375 13.6632 12.5975C13.6632 12.6575 13.5657 12.7517 13.4464 12.8071C13.3271 12.8623 13.0425 13.0882 12.814 13.3091C12.1896 13.9129 11.6561 14.3303 11.5091 14.3303C11.4369 14.3303 11.2716 14.44 11.1418 14.574C10.6047 15.1288 9.19448 16.28 9.05229 16.28C9.01194 16.28 8.76702 16.4778 8.50771 16.7198C7.77208 17.4059 7.28966 17.7866 7.15531 17.7866C7.08749 17.7866 6.9466 17.8863 6.84235 18.0081C6.7381 18.13 6.60768 18.2297 6.55229 18.2297C6.49711 18.2297 6.3994 18.3294 6.33528 18.4512C6.27116 18.5731 6.18414 18.6728 6.14205 18.6728C6.09996 18.6728 5.95951 18.7816 5.82974 18.9147C5.5484 19.2032 4.80471 19.7363 4.68345 19.7363C4.63634 19.7363 4.48803 19.836 4.35412 19.958C3.81064 20.453 3.48895 20.6872 3.28198 20.739C3.16203 20.7689 2.8676 20.9781 2.6277 21.2034C2.3878 21.4289 2.09337 21.6653 1.9732 21.7291C1.85325 21.793 1.6803 21.929 1.58892 22.0314C1.49754 22.1339 1.34968 22.2177 1.26004 22.2177C1.17062 22.2177 1.05634 22.309 1.00618 22.4206C0.956236 22.5323 0.829741 22.6619 0.725057 22.7086C0.62059 22.7554 0.521141 22.8735 0.503912 22.971C0.486901 23.0685 0.398791 23.23 0.308282 23.3301C-0.0851579 23.7644 -0.108058 25.6265 0.27535 26.0025C0.38505 26.1102 0.500421 26.3167 0.531826 26.4614C0.563013 26.606 0.684273 26.7882 0.801171 26.8659C0.918069 26.9437 1.01381 27.0678 1.01381 27.1413C1.01381 27.2151 1.18131 27.3483 1.38588 27.4375C1.59045 27.5266 1.81029 27.6637 1.87441 27.7422C1.93853 27.8206 2.13416 27.9117 2.30929 27.9442C2.48441 27.977 2.73871 28.0976 2.87436 28.2125C3.01154 28.3286 3.23574 28.4212 3.38012 28.4212C3.53998 28.4212 3.71293 28.5015 3.83136 28.6302C3.95349 28.7631 4.1718 28.8615 4.43068 28.9005C4.65466 28.9342 4.88562 29.0199 4.94385 29.0912C5.00186 29.1624 5.27012 29.2847 5.53968 29.3626C5.80946 29.4408 6.11108 29.58 6.2101 29.6719C6.30911 29.7639 6.45043 29.8392 6.52415 29.8392C6.78477 29.8392 7.20765 30.0355 7.20765 30.1565C7.20765 30.2783 7.301 30.3118 7.93194 30.415C8.11448 30.4449 8.28481 30.5251 8.31033 30.5932C8.3546 30.7101 8.62766 30.824 9.13254 30.9366C9.25577 30.964 9.44812 31.0673 9.56022 31.1661C9.67254 31.2649 9.87057 31.3458 10.0006 31.3458C10.1318 31.3458 10.3833 31.4639 10.5663 31.6117C10.7475 31.7579 11.0003 31.8775 11.1283 31.8775C11.2563 31.8775 11.4888 31.9732 11.645 32.0902C11.8009 32.2072 12.0735 32.3299 12.2506 32.3632C12.4277 32.3964 12.6513 32.4959 12.7472 32.5841C12.8432 32.6725 13.0591 32.7726 13.227 32.8067C13.395 32.8411 13.6698 32.9612 13.8377 33.0739C14.0056 33.1867 14.2804 33.3068 14.4483 33.3411C14.6163 33.3752 14.8383 33.482 14.9417 33.5784C15.045 33.6748 15.2906 33.7904 15.4876 33.8354C15.6843 33.8802 15.9176 33.9905 16.006 34.0802C16.0943 34.17 16.3353 34.2708 16.5416 34.3042C16.7479 34.3379 17.026 34.4586 17.1595 34.5725C17.2927 34.6866 17.5503 34.8083 17.7315 34.8428C17.9125 34.8774 18.1736 35.0019 18.3114 35.1198C18.4493 35.2374 18.654 35.3338 18.7666 35.3338C18.8791 35.3338 19.0822 35.4273 19.2178 35.5416C19.3535 35.6559 19.596 35.7754 19.7567 35.807C19.9175 35.8387 20.1659 35.9646 20.3087 36.0866C20.4564 36.2129 20.6784 36.3086 20.8239 36.3086C20.9874 36.3086 21.1475 36.388 21.2681 36.5291C21.3719 36.6501 21.5972 36.775 21.7691 36.8065C22.1922 36.8836 22.2997 36.9886 22.2997 37.3236C22.2997 37.7175 20.0697 40.0308 19.69 40.0308C19.613 40.0308 19.5011 40.1105 19.4411 40.208C19.3812 40.3055 19.285 40.3853 19.2272 40.3853C19.1694 40.3853 19.0224 40.4863 18.9007 40.6097C18.4737 41.0424 18.0656 41.3358 17.7415 41.443C17.5616 41.5024 17.4144 41.5846 17.4144 41.6253C17.4144 41.7084 16.636 42.2244 16.2435 42.4014C16.1032 42.4648 15.9377 42.59 15.876 42.6797C15.814 42.7694 15.6093 42.868 15.4206 42.8986C15.2309 42.9294 15.0549 43.0158 15.0259 43.0922C14.9973 43.1682 14.8019 43.3076 14.5918 43.402C14.3816 43.4964 14.1605 43.6339 14.1003 43.7075C14.0401 43.7813 13.9151 43.8415 13.8229 43.8415C13.7304 43.8415 13.5681 43.9368 13.4619 44.0531C13.3557 44.1695 13.1265 44.3046 12.9524 44.3533C12.7782 44.4023 12.5529 44.5264 12.4517 44.6292C12.3503 44.7322 12.178 44.8164 12.0687 44.8164C11.9595 44.8164 11.7412 44.936 11.5835 45.0823C11.4025 45.2502 11.2036 45.3481 11.0428 45.3481C10.8699 45.3481 10.744 45.4168 10.6498 45.5628C10.56 45.7022 10.3936 45.7979 10.1759 45.8351C9.99139 45.8668 9.77068 45.9709 9.68563 46.0664C9.60057 46.1619 9.36394 46.2826 9.15981 46.3349C8.95567 46.3872 8.72078 46.5062 8.63769 46.5993C8.5546 46.6925 8.33781 46.7929 8.15549 46.8226C7.94176 46.8574 7.77622 46.9511 7.68855 47.0871C7.59717 47.2287 7.4698 47.2978 7.29947 47.2978C7.16033 47.2978 6.93569 47.39 6.80004 47.5025C6.66438 47.6151 6.39286 47.7544 6.19679 47.8121C6.00073 47.8697 5.7689 47.9968 5.68166 48.0948C5.59442 48.1925 5.41449 48.2727 5.28168 48.2727C5.14886 48.2727 4.9288 48.3679 4.79271 48.4843C4.65662 48.6006 4.39905 48.7366 4.22022 48.7869C4.0416 48.837 3.79123 48.961 3.66408 49.0627C3.53693 49.1644 3.33323 49.2475 3.21132 49.2475C2.87458 49.2475 2.01355 50.1975 1.94289 50.6471C1.91323 50.8358 1.80963 51.0627 1.71302 51.1518C1.46199 51.3824 1.46156 52.3163 1.71258 52.6404C1.80876 52.7647 1.91192 52.9996 1.9418 53.162C1.97146 53.3241 2.07898 53.5408 2.18083 53.6434C2.28268 53.7458 2.49445 53.9751 2.65169 54.153C2.80872 54.3307 2.97752 54.4762 3.02659 54.4762C3.07567 54.4762 3.2159 54.5859 3.33825 54.7199C3.65557 55.0678 5.76235 55.1019 6.07204 54.7643C6.17258 54.6546 6.30344 54.5648 6.36276 54.5648C6.4223 54.5648 6.59983 54.4452 6.75751 54.299C6.91497 54.1528 7.12194 54.0331 7.21725 54.0331C7.31256 54.0331 7.477 53.9392 7.58256 53.8242C7.68833 53.7094 7.8953 53.5526 8.04273 53.4757C8.19016 53.3988 8.3618 53.2734 8.42418 53.197C8.48655 53.1208 8.62962 53.0583 8.74194 53.0583C8.85993 53.0583 8.98751 52.9801 9.044 52.8726C9.09787 52.7707 9.31094 52.6112 9.51748 52.5183C9.72423 52.4253 9.91593 52.2895 9.94363 52.2164C9.97111 52.1432 10.0503 52.0834 10.1192 52.0834C10.1881 52.0834 10.406 51.9463 10.6036 51.7786C10.8012 51.6109 11.0404 51.4487 11.1353 51.4181C11.2302 51.3875 11.3078 51.3301 11.3078 51.2907C11.3078 51.251 11.4354 51.166 11.5913 51.1013C11.7473 51.0368 11.9789 50.8724 12.106 50.7361C12.2334 50.5999 12.3941 50.4882 12.4633 50.4882C12.5326 50.4882 12.6604 50.4085 12.7472 50.311C12.834 50.2135 12.9583 50.1337 13.0233 50.1337C13.0883 50.1337 13.2645 50.0141 13.4152 49.8679C13.5659 49.7216 13.7171 49.602 13.7513 49.602C13.7856 49.602 13.9618 49.4824 14.143 49.3361C14.3242 49.1899 14.5297 49.0703 14.5999 49.0703C14.6699 49.0703 14.8383 48.9606 14.9739 48.8266C15.5238 48.2831 15.7726 48.0954 15.9436 48.0954C16.0424 48.0954 16.231 47.9858 16.3632 47.8517C16.862 47.3452 17.8619 46.5888 18.0327 46.5888C18.0744 46.5888 18.3132 46.3903 18.5638 46.1475C18.8141 45.9049 19.1487 45.6437 19.3072 45.5672C19.4658 45.491 19.5953 45.3931 19.5953 45.3499C19.5953 45.3067 19.6837 45.2444 19.7916 45.2112C19.8996 45.1782 20.086 45.053 20.206 44.9329C20.8289 44.3101 21.5023 43.7372 21.7545 43.6156C21.9104 43.5402 22.038 43.4399 22.038 43.3924C22.038 43.3448 22.1444 43.2571 22.2746 43.197C22.4556 43.114 24.4041 41.2675 24.9604 40.652C25.0084 40.5991 25.2481 40.3478 25.493 40.0937C25.7379 39.8398 25.968 39.5323 26.0047 39.4104C26.0411 39.2886 26.1484 39.1029 26.2428 38.9979C26.3372 38.8929 26.4531 38.6337 26.4997 38.4218C26.5466 38.21 26.6709 37.9439 26.7758 37.8303C27.0969 37.4833 27.065 35.3094 26.7331 34.9084C26.6044 34.7529 26.4751 34.5486 26.4456 34.4544C26.4162 34.3603 26.2476 34.1966 26.071 34.0906C25.8943 33.985 25.6987 33.8241 25.6361 33.7333C25.5737 33.6427 25.3896 33.5432 25.2272 33.5122C25.0647 33.4811 24.8525 33.3806 24.7554 33.2888C24.6581 33.1969 24.4154 33.0843 24.2161 33.0389C24.0165 32.9933 23.7688 32.877 23.6654 32.7806C23.5563 32.6787 23.2833 32.5787 23.0146 32.5424C22.7193 32.5025 22.491 32.4137 22.3843 32.2974C22.2724 32.1753 22.0415 32.0902 21.6888 32.0413C21.3833 31.9989 21.055 31.8884 20.9096 31.7792C20.7438 31.6546 20.4592 31.5696 20.0721 31.5288C19.6435 31.4838 19.4529 31.4216 19.3639 31.2979C19.2704 31.1679 19.0905 31.116 18.5888 31.0744C18.0829 31.0323 17.8892 30.9758 17.7304 30.8242C17.5712 30.6723 17.3813 30.6173 16.881 30.5783C16.4164 30.542 16.1516 30.4713 15.9314 30.3246C15.7209 30.1844 15.4295 30.102 14.9942 30.0599C14.5703 30.0187 14.2909 29.9416 14.1452 29.825C14.006 29.714 13.714 29.6283 13.3343 29.5871C12.9114 29.5412 12.6894 29.4703 12.5612 29.34C12.4323 29.2091 12.2138 29.14 11.7874 29.0957C11.4182 29.0573 11.1019 28.9678 10.9525 28.8597C10.8201 28.764 10.5281 28.6601 10.3033 28.6288C10.0677 28.5961 9.79097 28.4837 9.65073 28.3636C9.5166 28.2491 9.31443 28.1552 9.20146 28.1549C8.8656 28.1541 8.36246 27.9837 8.31339 27.8538C8.28831 27.7876 8.07261 27.6857 7.83402 27.6274C7.59215 27.5685 7.31234 27.4267 7.20155 27.3068C7.09228 27.1887 6.95074 27.0919 6.88706 27.0919C6.82359 27.0919 6.69884 27.0221 6.61008 26.9368C6.52132 26.8515 6.29559 26.6951 6.10847 26.5892C5.69409 26.3546 5.66508 26.0185 6.02036 25.5647C6.1451 25.4054 6.33572 25.1575 6.44389 25.0137C6.55207 24.8699 6.74857 24.6517 6.88051 24.5287C7.01246 24.4058 7.12042 24.2655 7.12042 24.2172C7.12042 24.1155 7.22161 23.9999 8.0761 23.1261C8.42156 22.7727 8.74129 22.4835 8.78665 22.4835C8.83179 22.4835 9.08522 22.2742 9.34955 22.0183C10.2296 21.1664 10.3722 21.0479 10.6228 20.9592C10.7595 20.9107 10.8716 20.8361 10.8716 20.7933C10.8716 20.7505 10.9879 20.6546 11.1298 20.5799C11.2718 20.5055 11.4858 20.3548 11.6055 20.2454C12.0746 19.8162 12.4085 19.5834 12.6356 19.5271C12.7662 19.4948 12.9147 19.3891 12.966 19.292C13.017 19.1952 13.1064 19.1148 13.1646 19.1135C13.2229 19.1121 13.4248 18.9925 13.6133 18.8476C13.8017 18.7027 14.0187 18.5842 14.0955 18.5842C14.1722 18.5842 14.3384 18.4645 14.4647 18.3183C14.6261 18.1313 14.7737 18.0524 14.962 18.0524C15.151 18.0524 15.2714 17.9875 15.3724 17.8309C15.4509 17.709 15.5597 17.6082 15.6143 17.6069C15.6688 17.6055 15.8675 17.4859 16.0559 17.341C16.2443 17.1961 16.4705 17.0776 16.5582 17.0776C16.6458 17.0776 16.8024 16.9783 16.9062 16.8571C17.0101 16.7362 17.2266 16.6119 17.3876 16.5811C17.5485 16.5505 17.7285 16.4559 17.7873 16.371C17.846 16.2862 18.0584 16.132 18.2591 16.0281C18.4597 15.9244 18.6466 15.8021 18.6743 15.7562C18.7022 15.7106 18.8368 15.6483 18.9738 15.6177C19.1105 15.5872 19.3061 15.4644 19.4082 15.345C19.5116 15.2243 19.6898 15.1279 19.8093 15.1279C19.9277 15.1279 20.1144 15.0315 20.2243 14.9134C20.3342 14.7956 20.5868 14.6555 20.7859 14.6024C20.9848 14.5492 21.1695 14.4475 21.1964 14.3764C21.2234 14.3055 21.3844 14.1883 21.5545 14.116C21.7244 14.0438 21.8635 13.9463 21.8635 13.8989C21.8635 13.8517 22.0402 13.7447 22.2561 13.661C22.472 13.5772 22.6486 13.4826 22.6486 13.4507C22.6486 13.3696 23.6977 12.6821 23.9354 12.6075C24.0433 12.5736 24.1317 12.4898 24.1317 12.4211C24.1317 12.3527 24.2396 12.2377 24.3716 12.1655C24.5035 12.0935 24.8392 11.7835 25.1177 11.4764C25.396 11.1696 25.7096 10.8259 25.814 10.7127C25.9942 10.5184 26.0044 10.426 26.006 9.00253L26.0073 7.49794L25.3966 6.92234C25.0607 6.60574 24.7033 6.26853 24.6023 6.17326C24.4396 6.01972 24.2898 5.99978 23.2938 6H22.1688L21.689 6.3556Z" fill="#FF5900"/>
</svg>
