<svg width="107" height="108" viewBox="0 0 107 108" fill="none" xmlns="http://www.w3.org/2000/svg">
<path opacity="0.45" fill-rule="evenodd" clip-rule="evenodd" d="M3.97039 0.410523C2.99385 0.404059 3.08925 1.26794 3.22881 2.53172C3.28839 3.07125 3.35602 3.68367 3.35173 4.33237L0.785277 102.663C0.770928 104.831 1.87404 106.596 3.26748 106.605C4.66091 106.614 5.78729 104.864 5.80164 102.696L4.57238 4.34045C4.57656 3.70798 4.64565 3.11088 4.70684 2.5821C4.8554 1.29817 4.95735 0.417056 3.97039 0.410523ZM41.2393 0.656862C40.2628 0.650403 40.3582 1.51428 40.4977 2.77806C40.5573 3.31759 40.625 3.93001 40.6207 4.57871L38.0542 102.909C38.0399 105.077 39.143 106.842 40.5364 106.851C41.9298 106.861 43.0562 105.11 43.0706 102.942L41.8413 4.58679C41.8455 3.95445 41.9146 3.35746 41.9757 2.82877L41.9758 2.82855L41.9758 2.82844C42.1243 1.54451 42.2263 0.663395 41.2393 0.656862ZM21.8517 104.004C22.1658 105.236 22.3805 106.079 21.4126 106.208C20.4343 106.339 20.4126 105.452 20.381 104.16C20.368 103.628 20.3534 103.027 20.2695 102.4L5.36375 5.17295C5.07621 3.02387 5.94805 1.13393 7.3292 0.949132C8.71036 0.764336 10.0484 2.35861 10.3359 4.50769L21.4794 102.238C21.5654 102.881 21.7176 103.478 21.8517 104.004ZM58.6803 106.455C59.6482 106.326 59.4335 105.483 59.1194 104.251C58.9853 103.725 58.8331 103.128 58.7471 102.485L47.6036 4.75469C47.3161 2.60561 45.9781 1.01134 44.5969 1.19614C43.2158 1.38093 42.3439 3.27087 42.6315 5.41995L57.5372 102.647C57.6211 103.274 57.6358 103.875 57.6488 104.407C57.6803 105.699 57.702 106.586 58.6803 106.455ZM92.8038 104.474C93.1179 105.706 93.3326 106.549 92.3646 106.678C91.3864 106.809 91.3647 105.922 91.3331 104.63L91.3332 104.63C91.3201 104.098 91.3054 103.497 91.2216 102.87L76.3158 5.64311C76.0283 3.49403 76.9001 1.60409 78.2813 1.4193C79.6624 1.2345 81.0005 2.82877 81.288 4.97785L92.4315 102.708C92.5175 103.351 92.6697 103.948 92.8037 104.474L92.8038 104.474ZM32.8515 106.801C33.828 106.807 33.7326 105.943 33.5931 104.679C33.5335 104.14 33.4659 103.528 33.4702 102.879L36.0366 4.54848C36.051 2.38029 34.9478 0.615322 33.5544 0.606103C32.161 0.59688 31.0346 2.34709 31.0202 4.51527L32.2495 102.871C32.2453 103.503 32.1762 104.1 32.115 104.629C31.9665 105.913 31.8645 106.794 32.8515 106.801ZM14.9709 3.20673C14.6568 1.97468 14.4421 1.13249 15.41 1.00298C16.3883 0.872093 16.41 1.75882 16.4415 3.05093C16.4545 3.58307 16.4692 4.18398 16.5531 4.81088L31.4588 102.038C31.7464 104.187 30.8745 106.077 29.4934 106.262C28.1122 106.447 26.7742 104.852 26.4867 102.703L15.3432 4.97276C15.2572 4.32978 15.105 3.73273 14.9709 3.20673ZM70.1192 107.048C71.0957 107.054 71.0003 106.19 70.8608 104.927C70.8012 104.387 70.7336 103.775 70.7379 103.126L73.3043 4.79549C73.3187 2.62731 72.2156 0.862336 70.8221 0.853113C69.4287 0.84389 68.3023 2.59411 68.2879 4.76229L69.5172 103.118C69.513 103.75 69.4439 104.347 69.3828 104.876C69.2342 106.16 69.1322 107.041 70.1192 107.048ZM52.2392 3.45318C51.9252 2.22113 51.7105 1.37893 52.6784 1.24942C53.6567 1.11853 53.6783 2.00526 53.7099 3.29738C53.7229 3.82952 53.7376 4.43042 53.8215 5.05732L68.7272 102.285C69.0147 104.434 68.1429 106.324 66.7617 106.508C65.3806 106.693 64.0426 105.099 63.755 102.95L52.6116 5.2192C52.5256 4.57643 52.3734 3.97959 52.2394 3.45372L52.2393 3.45335L52.2392 3.45318ZM103.804 107.271C104.78 107.277 104.685 106.413 104.545 105.149C104.486 104.61 104.418 103.997 104.422 103.349L106.989 5.01839C107.003 2.8502 105.9 1.08524 104.506 1.07601C103.113 1.06679 101.987 2.817 101.972 4.98519L103.202 103.341C103.197 103.973 103.128 104.57 103.067 105.099C102.919 106.383 102.817 107.264 103.804 107.271ZM85.9234 3.67634C85.6093 2.44428 85.3946 1.60208 86.3626 1.47258C87.3408 1.34169 87.3625 2.22842 87.3941 3.52053C87.4071 4.05268 87.4218 4.65358 87.5056 5.28048L102.411 102.508C102.699 104.657 101.827 106.547 100.446 106.731C99.0648 106.916 97.7268 105.322 97.4392 103.173L86.2958 5.44236C86.2097 4.79937 86.0575 4.20233 85.9234 3.67634Z" fill="#FF5900"/>
</svg>
