<svg width="1110" height="39" viewBox="0 0 1110 39" fill="none" xmlns="http://www.w3.org/2000/svg">
<path d="M72.2388 3.96212C71.709 2.22639 69.8549 1.29177 68.1332 1.82584C66.4115 2.35991 65.4845 4.22915 66.0142 5.96488L74.4902 32.2678C75.0862 33.87 76.8079 34.8046 78.4634 34.3373C80.1851 33.8032 81.2446 32.0007 80.7148 30.265C80.7148 30.1983 72.2388 3.96212 72.2388 3.96212Z" fill="#AEC0CE"/>
<path d="M59.1275 8.30141C58.5977 6.56569 56.7436 5.63107 55.0219 6.16514C53.3002 6.69921 52.3731 8.56845 52.9029 10.3042L61.3789 36.6071C61.9749 38.2093 63.6966 39.1439 65.352 38.6766C67.0737 38.1425 68.1332 36.34 67.6035 34.6043C67.6035 34.5376 59.1275 8.30141 59.1275 8.30141Z" fill="#AEC0CE"/>
<path d="M82.9663 25.7922C84.688 25.2581 85.6151 23.3889 85.0853 21.6532C84.5556 19.9174 82.7014 18.9828 80.9798 19.5169L54.8233 27.9952C53.234 28.5961 52.307 30.3318 52.7705 32.0007C53.3002 33.7365 55.0882 34.8046 56.8099 34.2705C56.9423 34.2705 82.9663 25.7922 82.9663 25.7922Z" fill="#AEC0CE"/>
<path d="M60.2532 33.2024C61.9749 32.6683 64.1601 31.934 66.4778 31.1329C65.9481 29.3971 65.2196 27.1941 64.425 24.8575L58.2004 26.9271L60.2532 33.2024Z" fill="#AEC0CE"/>
<path d="M73.4307 28.8631C75.8146 28.062 77.9998 27.3944 79.6553 26.7936C79.1255 25.0578 78.3971 22.8548 77.6025 20.5182L71.3779 22.5878L73.4307 28.8631Z" fill="#AEC0CE"/>
<path d="M78.6621 12.5072C80.3838 11.9732 81.3108 10.1039 80.7811 8.36819C80.2513 6.63246 78.3972 5.69784 76.6755 6.23191L50.5852 14.777C48.996 15.3778 48.0689 17.1136 48.5325 18.7825C49.0622 20.585 50.8501 21.6532 52.5718 21.0523C52.638 21.0523 78.6621 12.5072 78.6621 12.5072Z" fill="#AEC0CE"/>
<path d="M56.0152 19.9174C57.7369 19.3833 59.9221 18.649 62.2398 17.8479C61.4451 15.4446 60.7829 13.2415 60.187 11.5726L53.9624 13.6421L56.0152 19.9174Z" fill="#AEC0CE"/>
<path d="M69.1265 15.6449C71.5104 14.8438 73.6956 14.1762 75.3511 13.5754C74.5565 11.172 73.8943 8.96901 73.2983 7.30005L67.0737 9.36957L69.1265 15.6449Z" fill="#AEC0CE"/>
<path d="M109.388 10.905C110.513 11.439 110.646 11.7728 109.719 13.5086C108.792 15.311 108.593 15.3778 107.401 14.9105C105.944 14.3097 104.156 13.8424 102.964 13.8424C101.044 13.8424 99.7859 14.5099 99.7859 15.5781C99.7859 19.0495 110.844 17.1803 110.844 24.6573C110.844 28.3957 107.666 30.8658 102.898 30.8658C100.382 30.8658 97.2696 29.9979 95.1506 28.9298C94.0911 28.3957 94.0249 28.0619 94.9519 26.2595C95.7466 24.724 96.0114 24.5237 97.1371 24.991C98.9913 25.7921 101.243 26.393 102.832 26.393C104.62 26.393 105.746 25.6586 105.746 24.5905C105.746 21.1858 94.4884 22.788 94.4884 15.5781C94.4884 11.7728 97.6669 9.16925 102.368 9.16925C104.62 9.36953 107.467 10.0371 109.388 10.905Z" fill="#AEC0CE"/>
<path d="M118.327 2.09286V29.8644C118.327 30.265 117.864 30.7323 117.268 30.7323H114.354C113.692 30.7323 113.295 30.265 113.295 29.8644V2.09286C113.295 0.69093 113.692 0.624171 115.811 0.624171C118.195 0.557412 118.327 0.757688 118.327 2.09286Z" fill="#AEC0CE"/>
<path fill-rule="evenodd" clip-rule="evenodd" d="M138.855 29.5974V17.6476C138.855 12.4405 135.345 9.36957 129.783 9.36957C127.267 9.36957 124.486 10.1707 122.499 11.5058C121.439 12.1734 121.439 12.5072 122.499 14.1762C123.625 15.8452 123.823 15.9119 124.883 15.3111C126.207 14.51 127.863 13.9759 129.253 13.9759C132.167 13.9759 133.889 15.3111 133.889 17.5141V18.9161C132.498 18.3152 130.776 17.9814 128.922 17.9814C123.956 17.9814 120.711 20.6518 120.711 24.6573C120.711 28.3958 123.625 30.9326 127.929 30.9326C130.18 30.9326 132.432 29.998 133.955 28.2623L133.889 29.5307C133.822 30.1983 134.286 30.6656 134.948 30.6656H137.796C138.392 30.6656 138.855 30.265 138.855 29.5974ZM128.525 26.9271C126.737 26.9271 125.545 25.9925 125.545 24.5905C125.545 22.8548 127.333 21.5196 129.982 21.5196C131.24 21.5196 132.697 21.7199 133.822 22.1872V24.0565C132.697 25.8589 130.71 26.9271 128.525 26.9271Z" fill="#AEC0CE"/>
<path d="M158.522 10.9717C159.582 11.5726 159.582 11.9064 158.456 13.7089C157.396 15.3778 157.198 15.5113 156.006 14.9105C155.145 14.4432 153.688 14.0426 152.562 14.0426C148.92 14.0426 146.536 16.446 146.536 20.1177C146.536 23.9229 148.92 26.4597 152.562 26.4597C153.82 26.4597 155.41 25.9924 156.403 25.3916C157.463 24.7908 157.661 24.7908 158.787 26.4597C159.78 27.9952 159.78 28.329 158.853 28.9966C157.264 30.1315 154.681 30.9993 152.43 30.9993C145.742 30.9993 141.239 26.66 141.239 20.1844C141.239 13.7089 145.742 9.4363 152.496 9.4363C154.615 9.36954 156.999 10.0371 158.522 10.9717Z" fill="#AEC0CE"/>
<path d="M180.44 28.0619C181.301 29.1301 180.97 29.5306 178.851 30.265C176.732 31.0661 176.401 30.9993 175.673 29.9979L169.647 21.9201L166.932 24.5237V29.7977C166.932 30.1982 166.468 30.6655 165.872 30.6655H162.959C162.296 30.6655 161.899 30.1982 161.899 29.7977V2.09284C161.899 0.690904 162.296 0.624146 164.415 0.624146C166.866 0.624146 166.932 0.824421 166.932 2.09284V17.8479L175.143 9.90359C176.07 9.03573 176.534 9.10249 178.189 10.1706C179.977 11.3055 180.109 11.6393 179.249 12.5072L173.156 18.5155L180.44 28.0619Z" fill="#AEC0CE"/>
<path fill-rule="evenodd" clip-rule="evenodd" d="M289.89 33.1833L289.889 33.1833L289.889 33.1833C289.221 33.2518 288.542 33.3214 287.847 33.4069L282.271 17.2765V34.0933C280.529 34.2649 278.961 34.4937 277.277 34.7797V3.94891H281.923L288.254 21.4521V3.94891H293.191V32.7777C292.1 32.9568 291.009 33.0685 289.89 33.1833L289.89 33.1833L289.89 33.1833L289.89 33.1833ZM306.263 15.2153H306.263L306.263 15.2153C307.417 15.1874 308.544 15.1601 309.395 15.1601V19.9649C307.246 19.9649 304.69 19.9649 302.832 20.0793V27.2293C303.737 27.1747 304.648 27.1144 305.563 27.0538L305.563 27.0538L305.563 27.0537H305.563H305.563H305.563H305.563C307.525 26.9237 309.505 26.7925 311.486 26.7145V31.3477L297.953 32.3773V3.94891H311.486V8.75371H302.832V15.2745C303.813 15.2745 305.053 15.2445 306.263 15.2153H306.263H306.263H306.263H306.263ZM324.554 8.81091H329.607C329.607 8.81091 329.607 3.94891 329.665 3.94891H314.622V8.81091H319.675V31.0045C321.243 30.9473 322.927 30.9473 324.554 30.9473V8.81091ZM337.564 14.9313H344.243V19.7361H337.564V30.6613H332.743V3.94891H346.392V8.75371H337.564V14.9313ZM359.414 26.6585C357.734 26.5612 356.041 26.4632 354.349 26.4285V3.94891H349.47V30.9473C353.942 31.0617 358.298 31.2905 362.654 31.5765V26.8289C361.582 26.784 360.5 26.7214 359.414 26.6585ZM368.426 32.0251L368.427 32.0252C369.473 32.0875 370.536 32.1508 371.599 32.2629V3.94891H366.778V31.9197C367.321 31.9593 367.871 31.9921 368.426 32.0251ZM386.757 18.5921L392.972 3.94891H387.571L384.144 12.0141L380.949 3.94891H375.722L381.414 18.4205L375.141 32.4917C375.838 32.5832 376.535 32.6565 377.232 32.7297C378.278 32.8395 379.323 32.9493 380.369 33.1209L383.97 24.9413L387.454 33.8645C388.105 33.9647 388.749 34.0719 389.391 34.1787C390.581 34.3769 391.764 34.5738 392.972 34.7225L386.757 18.5921Z" fill="#AEC0CE"/>
<path d="M525.459 13.552H511.917V17.545H521.546C521.065 23.1715 516.37 25.652 511.977 25.652C506.319 25.652 501.384 21.175 501.384 14.9435C501.384 8.83299 506.079 4.11399 511.977 4.11399C516.551 4.11399 519.199 7.01799 519.199 7.01799L521.968 4.11399C521.968 4.11399 518.357 0.120991 511.796 0.120991C503.43 0.0604905 496.99 7.13899 496.99 14.8225C496.99 22.3245 503.069 29.645 512.037 29.645C519.921 29.645 525.699 24.2605 525.699 16.214C525.699 14.52 525.459 13.552 525.459 13.552Z" fill="#AEC0CE"/>
<path fill-rule="evenodd" clip-rule="evenodd" d="M526.963 20.0255C526.963 14.9435 530.936 10.5875 536.473 10.5875C541.047 10.5875 545.982 13.8545 546.042 20.1465C546.042 25.7125 541.829 29.645 536.593 29.645C530.815 29.645 526.963 25.2285 526.963 20.0255ZM541.829 20.1465C541.829 16.6375 539.241 14.399 536.533 14.399C533.463 14.399 531.116 16.819 531.176 20.086C531.176 23.474 533.524 25.894 536.533 25.894C539.301 25.894 541.829 23.6555 541.829 20.1465Z" fill="#AEC0CE"/>
<path fill-rule="evenodd" clip-rule="evenodd" d="M547.667 20.0255C547.667 14.9435 551.64 10.5875 557.177 10.5875C561.751 10.5875 566.686 13.8545 566.746 20.1465C566.746 25.7125 562.533 29.645 557.297 29.645C551.519 29.645 547.667 25.2285 547.667 20.0255ZM562.533 20.1465C562.533 16.6375 559.945 14.399 557.237 14.399C554.168 14.399 551.82 16.819 551.88 20.086C551.88 23.474 554.228 25.894 557.237 25.894C560.006 25.894 562.533 23.6555 562.533 20.1465Z" fill="#AEC0CE"/>
<path fill-rule="evenodd" clip-rule="evenodd" d="M568.372 20.1465C568.372 15.125 572.344 10.648 577.46 10.648C579.687 10.648 581.372 11.495 582.455 12.826V11.1925H586.428V28.314C586.428 35.0295 582.576 38.236 577.52 38.236C572.886 38.236 570.298 35.3925 569.034 32.67L572.705 31.1575C573.247 32.3675 574.691 34.5455 577.58 34.5455C580.589 34.5455 582.576 32.549 582.576 29.282V27.4065C581.432 28.677 580.048 29.7055 577.339 29.7055C573.006 29.7055 568.372 25.8335 568.372 20.1465ZM582.877 20.207C582.877 16.577 580.289 14.399 577.821 14.399C575.173 14.399 572.585 16.5165 572.524 20.2675C572.524 23.716 575.052 25.9545 577.761 25.9545C580.349 25.9545 582.877 23.958 582.877 20.207Z" fill="#AEC0CE"/>
<path fill-rule="evenodd" clip-rule="evenodd" d="M595.395 20.086C595.395 14.399 599.428 10.5875 604.243 10.5875C607.974 10.5875 610.803 13.1285 612.067 16.0325L612.729 17.6055L600.03 22.9295C600.812 24.3815 602.016 25.8335 604.664 25.8335C607.011 25.8335 608.456 24.563 609.298 23.232L612.609 25.4705C611.164 27.4065 608.636 29.645 604.664 29.645C599.909 29.645 595.395 26.0755 595.395 20.086ZM607.914 16.335C607.312 15.1855 606.109 14.278 604.363 14.278C601.655 14.278 599.007 17.1215 599.488 19.9045L607.914 16.335Z" fill="#AEC0CE"/>
<path d="M589.377 29.1005H593.53V1.0285H589.377V29.1005Z" fill="#AEC0CE"/>
<path fill-rule="evenodd" clip-rule="evenodd" d="M750.042 26.998L750.042 26.9982C750.562 28.3234 750.678 29.5911 750.504 30.8587C750.1 33.5092 748.366 35.8139 745.823 36.8511C744.899 37.2544 743.916 37.4272 742.876 37.4272C742.587 37.4272 742.24 37.4272 741.951 37.3696C740.738 37.2544 739.524 36.8511 738.31 36.1596C736.866 35.353 735.421 34.143 733.803 32.4144C732.185 34.143 730.798 35.353 729.295 36.1596C728.081 36.8511 726.868 37.1968 725.654 37.3696C725.51 37.3696 725.351 37.384 725.192 37.3984C725.033 37.4128 724.874 37.4272 724.73 37.4272C723.689 37.4272 722.707 37.2544 721.782 36.8511C719.297 35.8139 717.448 33.5668 717.043 30.8587C716.87 29.5334 717.043 28.2658 717.506 26.9982C717.679 26.4796 717.852 26.0763 718.026 25.673L718.026 25.6729C718.315 25.0391 718.604 24.4053 718.835 23.8292L718.893 23.7715C721.435 18.3553 724.094 12.8815 726.868 7.46534L726.983 7.23487C727.272 6.71632 727.561 6.14015 727.85 5.56399L727.85 5.56392C727.928 5.44198 728.006 5.31791 728.085 5.19253C728.415 4.66619 728.759 4.11674 729.179 3.60487C730.393 2.22201 732.011 1.41534 733.803 1.41534C735.537 1.41534 737.212 2.22201 738.368 3.66249C738.946 4.2963 739.351 4.98773 739.697 5.62153C739.986 6.19773 740.275 6.77392 740.564 7.29249L740.68 7.52296C743.512 12.9392 746.17 18.413 748.655 23.8292H748.713C748.944 24.4053 749.233 25.0391 749.522 25.6729L749.522 25.673C749.695 26.0762 749.869 26.5371 750.042 26.998ZM777.955 10.4615C777.955 11.7868 776.915 12.8239 775.586 12.8239C774.257 12.8239 773.216 11.7868 773.216 10.4615C773.216 9.1363 774.257 8.09915 775.586 8.09915C776.973 8.15677 777.955 9.19392 777.955 10.4615ZM768.304 15.1863V15.7625C768.304 15.7625 767.206 14.322 764.779 14.322C760.849 14.322 757.786 17.3182 757.786 21.4668C757.786 25.5577 760.849 28.6115 764.779 28.6115C767.206 28.6115 768.304 27.1134 768.304 27.1134V27.7472C768.304 28.0353 768.535 28.2658 768.824 28.2658H771.771V14.6677H768.824C768.477 14.6677 768.304 14.8982 768.304 15.1863ZM765.357 25.3272C766.686 25.3272 767.784 24.6358 768.304 23.8292V18.9892C767.784 18.2401 766.628 17.4911 765.357 17.4911C763.045 17.4911 761.254 18.9315 761.254 21.4092C761.254 23.8868 763.045 25.3272 765.357 25.3272ZM773.852 14.6677H777.319V28.2082H773.852V14.6677ZM822.165 15.7625C822.165 15.7625 823.321 14.322 825.691 14.322C829.62 14.322 832.683 17.3182 832.683 21.4092C832.683 25.5001 829.62 28.5539 825.691 28.5539C823.263 28.5539 822.165 27.0558 822.165 27.0558V27.6896C822.165 27.9777 821.934 28.2082 821.645 28.2082H818.698V8.15677H822.165V15.7625ZM825.113 25.2696C823.783 25.2696 822.743 24.5782 822.165 23.7715V18.9315C822.685 18.1825 823.841 17.4334 825.113 17.4334C827.424 17.4334 829.216 18.8739 829.216 21.3515C829.216 23.8292 827.424 25.2696 825.113 25.2696ZM816.906 28.2658V20.1992C816.906 17.8944 816.444 16.6268 815.288 15.6472C814.248 14.783 812.977 14.322 811.474 14.322C810.145 14.322 808.816 14.7253 807.775 15.7625V15.1863C807.775 14.8982 807.544 14.6677 807.255 14.6677H804.481V28.2658H807.949V18.8163C808.642 18.0096 809.74 17.4911 810.78 17.4911C812.688 17.4911 813.439 18.3553 813.439 20.6025V28.2658H816.906ZM796.044 14.322C793.674 14.322 792.518 15.7625 792.518 15.7625V8.15677H789.051V28.2082H791.998C792.287 28.2082 792.518 27.9777 792.518 27.6896V27.0558C792.518 27.0558 793.617 28.5539 796.044 28.5539C799.974 28.5539 803.036 25.5001 803.036 21.4092C803.094 17.3182 800.031 14.322 796.044 14.322ZM792.518 23.7715C793.096 24.5782 794.137 25.2696 795.466 25.2696C797.777 25.2696 799.569 23.8292 799.569 21.3515C799.569 18.8739 797.777 17.4334 795.466 17.4334C794.194 17.4334 793.039 18.1825 792.518 18.9315V23.7715ZM786.104 14.322C787.144 14.322 787.722 14.4949 787.722 14.4949V17.7215C787.722 17.7215 784.832 16.742 783.041 18.8163V28.2658H779.573V14.6677H782.521C782.81 14.6677 783.041 14.8982 783.041 15.1863V15.7625C783.619 15.0134 785.006 14.322 786.104 14.322ZM733.745 28.842C731.78 26.3644 730.509 24.0596 730.104 22.1582C729.931 21.3515 729.873 20.6025 729.989 19.9687C730.046 19.3925 730.278 18.8739 730.566 18.4706C731.26 17.4911 732.416 16.8572 733.745 16.8572C735.074 16.8572 736.288 17.4334 736.923 18.4706C737.212 18.9315 737.444 19.3925 737.501 19.9687C737.617 20.6025 737.559 21.3515 737.386 22.1582C736.981 24.0596 735.71 26.3644 733.745 28.842ZM744.899 34.7768C746.69 34.0853 747.962 32.472 748.193 30.5706C748.308 29.5911 748.193 28.7268 748.019 27.8049C747.957 27.6177 747.877 27.4305 747.79 27.2251C747.716 27.0511 747.637 26.8639 747.557 26.6525C747.413 26.3644 747.283 26.0619 747.153 25.7594C747.022 25.4569 746.892 25.1544 746.748 24.8663V24.8087C744.263 19.4501 741.605 13.9763 738.831 8.61773L738.715 8.38725C738.426 7.81106 738.137 7.23487 737.848 6.7163C737.559 6.14011 737.212 5.56392 736.808 5.10296C736.057 4.23868 735.016 3.77773 733.918 3.77773C732.82 3.77773 731.78 4.23868 731.029 5.10296C730.624 5.62153 730.278 6.14011 729.989 6.7163L729.989 6.71641C729.7 7.29256 729.411 7.86871 729.122 8.38725L729.006 8.61773C726.174 13.9763 723.516 19.4501 721.031 24.8087L720.973 24.8663C720.684 25.4425 720.395 26.0763 720.164 26.6525L720.164 26.6525C719.991 27.0558 719.817 27.4592 719.702 27.8049C719.297 28.842 719.239 29.7063 719.355 30.6282C719.586 32.472 720.858 34.0853 722.649 34.8344C723.458 35.1225 724.383 35.2953 725.365 35.1801C726.29 35.0649 727.215 34.7768 728.139 34.2582C729.411 33.5092 730.74 32.4144 732.242 30.7434C729.873 27.8049 728.37 25.0968 727.85 22.7344C727.561 21.6396 727.504 20.6025 727.677 19.6806C727.85 18.7587 728.139 17.952 728.659 17.203C729.757 15.6472 731.664 14.6677 733.745 14.6677C735.825 14.6677 737.733 15.5896 738.831 17.203C739.351 17.952 739.64 18.7587 739.813 19.6806C739.929 20.6025 739.871 21.6396 739.64 22.7344C739.062 25.0968 737.617 27.7472 735.248 30.6858C736.75 32.3568 738.022 33.4515 739.351 34.2006C740.333 34.7192 741.2 35.0073 742.125 35.1225C743.107 35.2377 744.032 35.1225 744.899 34.7768Z" fill="#AEC0CE"/>
<path d="M955.074 8.2365V21.887C955.074 26.4372 953.109 28.3281 948.486 28.3281C943.863 28.3281 941.898 26.4372 941.898 21.887V7.64557H937.448C937.043 7.64557 936.87 7.82285 936.87 8.2365V22.0643C936.87 29.6873 941.609 32.3465 948.486 32.3465C955.363 32.3465 960.102 29.6873 960.102 22.0643V7.64557H955.652C955.305 7.64557 955.074 7.82285 955.074 8.2365Z" fill="#AEC0CE"/>
<path d="M1019.63 11.6048C1019.97 11.6048 1020.15 11.4866 1020.26 11.1912L1021.53 7.94103C1021.59 7.76375 1021.53 7.64557 1021.36 7.64557H1003.45C1001.77 7.64557 1001.13 8.17741 1001.13 9.35927V30.5146C1001.13 31.5192 1001.6 31.9328 1002.93 31.9328H1019.63C1019.97 31.9328 1020.15 31.8146 1020.26 31.5192L1021.53 28.269C1021.59 28.0918 1021.53 27.9736 1021.36 27.9736H1006.05V23.6598C1006.05 22.1825 1006.86 21.4733 1008.99 21.4733H1015.64C1015.99 21.4733 1016.16 21.3552 1016.28 21.0597L1017.49 17.9278C1017.55 17.7505 1017.49 17.6323 1017.32 17.6323H1005.99V11.6048H1019.63Z" fill="#AEC0CE"/>
<path fill-rule="evenodd" clip-rule="evenodd" d="M990.847 13.7912C990.847 16.0959 990.038 18.0459 988.073 19.1096C990.731 19.8778 991.945 22.3006 991.887 25.1962C991.887 30.0418 988.535 31.9328 983.854 31.9328H971.429C970.1 31.9328 969.638 31.5192 969.638 30.5146V9.35927C969.638 8.17741 970.273 7.64557 971.949 7.64557H982.121C986.57 7.64557 990.847 8.41378 990.847 13.7912ZM974.608 11.5457H982.467C985.068 11.5457 985.819 12.5503 985.819 14.6776C985.819 16.7459 985.068 17.8096 982.467 17.8096H974.608V11.5457ZM983.392 28.0327H974.608V23.6007C974.608 22.1234 975.417 21.4142 977.555 21.4142H983.392C986.166 21.4142 986.975 22.537 986.975 24.7235C986.975 26.969 986.166 28.0327 983.392 28.0327Z" fill="#AEC0CE"/>
<path fill-rule="evenodd" clip-rule="evenodd" d="M1047.31 22.1825L1052.63 31.5192C1052.74 31.6373 1052.74 31.9328 1052.34 31.9328H1047.83C1047.5 31.9328 1047.38 31.769 1047.21 31.5464C1047.21 31.5374 1047.2 31.5283 1047.19 31.5192L1042.4 22.6552H1038C1035.87 22.6552 1035.06 23.3643 1035.06 24.8416V31.9328H1030.72C1030.32 31.9328 1030.14 31.7555 1030.14 31.3419V9.35927C1030.14 8.17741 1030.78 7.64557 1032.46 7.64557H1042.63C1048.52 7.64557 1052.11 9.24108 1052.11 15.1504C1052.11 19.7005 1049.97 21.4733 1047.31 22.1825ZM1035.06 18.9323H1043.32C1046.44 18.9323 1047.08 17.6914 1047.08 15.2095C1047.08 12.7867 1046.38 11.5457 1043.32 11.5457H1035.06V18.9323Z" fill="#AEC0CE"/>
</svg>
