<svg width="178" height="58" viewBox="0 0 178 58" fill="none" xmlns="http://www.w3.org/2000/svg">
<rect x="0.5" y="0.5" width="177" height="57" rx="6.5" stroke="#070127"/>
<path d="M31.4084 26.7464C31.3686 26.3454 31.1979 26.0339 30.8963 25.8118C30.5947 25.5897 30.1854 25.4787 29.6683 25.4787C29.317 25.4787 29.0204 25.5284 28.7784 25.6278C28.5365 25.724 28.3509 25.8582 28.2216 26.0305C28.0956 26.2029 28.0327 26.3984 28.0327 26.6172C28.026 26.7995 28.0642 26.9586 28.147 27.0945C28.2332 27.2304 28.3509 27.348 28.5 27.4474C28.6491 27.5436 28.8215 27.6281 29.017 27.701C29.2126 27.7706 29.4214 27.8303 29.6435 27.88L30.5582 28.0987C31.0024 28.1982 31.41 28.3307 31.7812 28.4964C32.1525 28.6622 32.474 28.866 32.7457 29.108C33.0175 29.3499 33.228 29.6349 33.3771 29.9631C33.5296 30.2912 33.6075 30.6674 33.6108 31.0916C33.6075 31.7147 33.4484 32.255 33.1335 32.7124C32.822 33.1664 32.3712 33.5194 31.7812 33.7713C31.1946 34.0199 30.487 34.1442 29.6584 34.1442C28.8364 34.1442 28.1205 34.0182 27.5107 33.7663C26.9041 33.5144 26.4302 33.1416 26.0888 32.6477C25.7507 32.1506 25.5734 31.5357 25.5568 30.8033H27.6399C27.6631 31.1446 27.7609 31.4297 27.9332 31.6584C28.1089 31.8838 28.3426 32.0545 28.6342 32.1705C28.9292 32.2831 29.2623 32.3395 29.6335 32.3395C29.9981 32.3395 30.3146 32.2865 30.5831 32.1804C30.8549 32.0743 31.0653 31.9268 31.2145 31.7379C31.3636 31.549 31.4382 31.3319 31.4382 31.0866C31.4382 30.858 31.3703 30.6657 31.2344 30.5099C31.1018 30.3542 30.9063 30.2216 30.6477 30.1122C30.3925 30.0028 30.0793 29.9034 29.7081 29.8139L28.5994 29.5355C27.741 29.3267 27.0632 29.0002 26.5661 28.5561C26.0689 28.112 25.822 27.5137 25.8253 26.7614C25.822 26.1449 25.986 25.6063 26.3175 25.1456C26.6522 24.6849 27.1113 24.3253 27.6946 24.0668C28.2779 23.8082 28.9408 23.679 29.6832 23.679C30.4389 23.679 31.0985 23.8082 31.6619 24.0668C32.2287 24.3253 32.6695 24.6849 32.9844 25.1456C33.2992 25.6063 33.4616 26.1399 33.4716 26.7464H31.4084ZM41.5813 34H39.2745L42.7894 23.8182H45.5636L49.0735 34H46.7667L44.2163 26.1449H44.1367L41.5813 34ZM41.4371 29.9979H46.886V31.6783H41.4371V29.9979ZM53.6634 23.8182H56.0746L58.3963 28.2031H58.4957L60.8175 23.8182H63.2287L59.5149 30.4006V34H57.3771V30.4006L53.6634 23.8182ZM77.6447 34V23.8182H79.7974V28.0192H84.1674V23.8182H86.3152V34H84.1674V29.794H79.7974V34H77.6447ZM93.09 34V23.8182H99.9508V25.593H95.2427V28.0192H99.5978V29.794H95.2427V32.2251H99.9707V34H93.09ZM106.662 34V23.8182H108.815V32.2251H113.18V34H106.662ZM119.606 34V23.8182H121.758V32.2251H126.123V34H119.606ZM141.509 28.9091C141.509 30.0194 141.299 30.964 140.878 31.7429C140.46 32.5218 139.89 33.1167 139.167 33.5277C138.448 33.9354 137.64 34.1392 136.741 34.1392C135.836 34.1392 135.024 33.9337 134.305 33.5227C133.586 33.1117 133.018 32.5168 132.6 31.7379C132.182 30.959 131.974 30.0161 131.974 28.9091C131.974 27.7988 132.182 26.8542 132.6 26.0753C133.018 25.2964 133.586 24.7031 134.305 24.2955C135.024 23.8845 135.836 23.679 136.741 23.679C137.64 23.679 138.448 23.8845 139.167 24.2955C139.89 24.7031 140.46 25.2964 140.878 26.0753C141.299 26.8542 141.509 27.7988 141.509 28.9091ZM139.327 28.9091C139.327 28.1899 139.219 27.5833 139.003 27.0895C138.791 26.5956 138.491 26.2211 138.104 25.9659C137.716 25.7107 137.262 25.5831 136.741 25.5831C136.221 25.5831 135.767 25.7107 135.379 25.9659C134.991 26.2211 134.69 26.5956 134.474 27.0895C134.262 27.5833 134.156 28.1899 134.156 28.9091C134.156 29.6283 134.262 30.2348 134.474 30.7287C134.69 31.2225 134.991 31.5971 135.379 31.8523C135.767 32.1075 136.221 32.2351 136.741 32.2351C137.262 32.2351 137.716 32.1075 138.104 31.8523C138.491 31.5971 138.791 31.2225 139.003 30.7287C139.219 30.2348 139.327 29.6283 139.327 28.9091ZM150.594 23.8182L150.401 30.9474H148.581L148.382 23.8182H150.594ZM149.491 34.1293C149.163 34.1293 148.881 34.0133 148.646 33.7812C148.41 33.5459 148.294 33.2642 148.298 32.9361C148.294 32.6113 148.41 32.3329 148.646 32.1009C148.881 31.8688 149.163 31.7528 149.491 31.7528C149.806 31.7528 150.082 31.8688 150.321 32.1009C150.56 32.3329 150.681 32.6113 150.684 32.9361C150.681 33.1548 150.623 33.3554 150.51 33.5376C150.401 33.7166 150.256 33.8608 150.077 33.9702C149.898 34.0762 149.703 34.1293 149.491 34.1293Z" fill="#070127"/>
</svg>
