<svg width="438" height="45" viewBox="0 0 438 45" fill="none" xmlns="http://www.w3.org/2000/svg">
<path d="M124 0H428C433.523 0 438 4.47715 438 10V35C438 40.5228 433.523 45 428 45H124V0Z" fill="#E7F2FF"/>
<path d="M146.47 27V17.2H147.618L152.014 24.606H151.398L155.738 17.2H156.886L156.9 27H155.556L155.542 19.314H155.864L152 25.81H151.356L147.464 19.314H147.814V27H146.47ZM158.357 27L162.795 17.2H164.181L168.633 27H167.163L163.201 17.984H163.761L159.799 27H158.357ZM160.247 24.55L160.625 23.43H166.141L166.547 24.55H160.247ZM170.095 27V17.2H173.917C174.776 17.2 175.508 17.3353 176.115 17.606C176.722 17.8767 177.188 18.2687 177.515 18.782C177.842 19.2953 178.005 19.9067 178.005 20.616C178.005 21.3253 177.842 21.9367 177.515 22.45C177.188 22.954 176.722 23.3413 176.115 23.612C175.508 23.8827 174.776 24.018 173.917 24.018H170.865L171.495 23.374V27H170.095ZM176.647 27L174.155 23.444H175.653L178.173 27H176.647ZM171.495 23.514L170.865 22.828H173.875C174.771 22.828 175.448 22.6367 175.905 22.254C176.372 21.862 176.605 21.316 176.605 20.616C176.605 19.916 176.372 19.3747 175.905 18.992C175.448 18.6093 174.771 18.418 173.875 18.418H170.865L171.495 17.718V23.514ZM181.499 24.634L181.429 22.926L186.987 17.2H188.583L184.285 21.736L183.501 22.604L181.499 24.634ZM180.267 27V17.2H181.667V27H180.267ZM187.211 27L183.193 22.324L184.131 21.288L188.849 27H187.211ZM191.603 21.428H196.643V22.618H191.603V21.428ZM191.729 25.782H197.441V27H190.329V17.2H197.245V18.418H191.729V25.782ZM201.654 27V18.418H198.294V17.2H206.4V18.418H203.04V27H201.654ZM207.925 27V17.2H209.325V27H207.925ZM212.259 27V17.2H213.407L219.889 25.25H219.287V17.2H220.687V27H219.539L213.057 18.95H213.659V27H212.259ZM228.044 27.112C227.288 27.112 226.593 26.9907 225.958 26.748C225.324 26.496 224.773 26.146 224.306 25.698C223.84 25.2407 223.476 24.7087 223.214 24.102C222.953 23.4953 222.822 22.828 222.822 22.1C222.822 21.372 222.953 20.7047 223.214 20.098C223.476 19.4913 223.84 18.964 224.306 18.516C224.782 18.0587 225.338 17.7087 225.972 17.466C226.607 17.214 227.307 17.088 228.072 17.088C228.847 17.088 229.556 17.214 230.2 17.466C230.844 17.718 231.39 18.096 231.838 18.6L230.97 19.468C230.569 19.076 230.13 18.7913 229.654 18.614C229.188 18.4273 228.679 18.334 228.128 18.334C227.568 18.334 227.046 18.4273 226.56 18.614C226.084 18.8007 225.669 19.062 225.314 19.398C224.969 19.734 224.698 20.1353 224.502 20.602C224.316 21.0593 224.222 21.5587 224.222 22.1C224.222 22.632 224.316 23.1313 224.502 23.598C224.698 24.0553 224.969 24.4567 225.314 24.802C225.669 25.138 226.084 25.3993 226.56 25.586C227.036 25.7727 227.554 25.866 228.114 25.866C228.637 25.866 229.136 25.7867 229.612 25.628C230.098 25.46 230.546 25.1847 230.956 24.802L231.754 25.866C231.269 26.2767 230.7 26.5893 230.046 26.804C229.402 27.0093 228.735 27.112 228.044 27.112ZM230.41 25.684V22.044H231.754V25.866L230.41 25.684ZM241.051 27.112C240.304 27.112 239.59 27 238.909 26.776C238.227 26.5427 237.691 26.244 237.299 25.88L237.817 24.788C238.19 25.1147 238.666 25.3853 239.245 25.6C239.823 25.8147 240.425 25.922 241.051 25.922C241.62 25.922 242.082 25.8567 242.437 25.726C242.791 25.5953 243.053 25.418 243.221 25.194C243.389 24.9607 243.473 24.6993 243.473 24.41C243.473 24.074 243.361 23.8033 243.137 23.598C242.922 23.3927 242.637 23.2293 242.283 23.108C241.937 22.9773 241.555 22.8653 241.135 22.772C240.715 22.6787 240.29 22.5713 239.861 22.45C239.441 22.3193 239.053 22.156 238.699 21.96C238.353 21.764 238.073 21.5027 237.859 21.176C237.644 20.84 237.537 20.4107 237.537 19.888C237.537 19.384 237.667 18.922 237.929 18.502C238.199 18.0727 238.61 17.732 239.161 17.48C239.721 17.2187 240.43 17.088 241.289 17.088C241.858 17.088 242.423 17.1627 242.983 17.312C243.543 17.4613 244.028 17.676 244.439 17.956L243.977 19.076C243.557 18.796 243.113 18.5953 242.647 18.474C242.18 18.3433 241.727 18.278 241.289 18.278C240.738 18.278 240.285 18.348 239.931 18.488C239.576 18.628 239.315 18.8147 239.147 19.048C238.988 19.2813 238.909 19.5427 238.909 19.832C238.909 20.1773 239.016 20.4527 239.231 20.658C239.455 20.8633 239.739 21.0267 240.085 21.148C240.439 21.2693 240.827 21.3813 241.247 21.484C241.667 21.5773 242.087 21.6847 242.507 21.806C242.936 21.9273 243.323 22.086 243.669 22.282C244.023 22.478 244.308 22.7393 244.523 23.066C244.737 23.3927 244.845 23.8127 244.845 24.326C244.845 24.8207 244.709 25.2827 244.439 25.712C244.168 26.132 243.748 26.4727 243.179 26.734C242.619 26.986 241.909 27.112 241.051 27.112ZM251.314 27.112C250.567 27.112 249.872 26.986 249.228 26.734C248.593 26.482 248.043 26.132 247.576 25.684C247.109 25.2267 246.745 24.6947 246.484 24.088C246.223 23.4813 246.092 22.8187 246.092 22.1C246.092 21.3813 246.223 20.7187 246.484 20.112C246.745 19.5053 247.109 18.978 247.576 18.53C248.043 18.0727 248.593 17.718 249.228 17.466C249.863 17.214 250.558 17.088 251.314 17.088C252.061 17.088 252.747 17.214 253.372 17.466C254.007 17.7087 254.557 18.0587 255.024 18.516C255.5 18.964 255.864 19.4913 256.116 20.098C256.377 20.7047 256.508 21.372 256.508 22.1C256.508 22.828 256.377 23.4953 256.116 24.102C255.864 24.7087 255.5 25.2407 255.024 25.698C254.557 26.146 254.007 26.496 253.372 26.748C252.747 26.9907 252.061 27.112 251.314 27.112ZM251.314 25.866C251.855 25.866 252.355 25.7727 252.812 25.586C253.279 25.3993 253.68 25.138 254.016 24.802C254.361 24.4567 254.627 24.0553 254.814 23.598C255.01 23.1407 255.108 22.6413 255.108 22.1C255.108 21.5587 255.01 21.0593 254.814 20.602C254.627 20.1447 254.361 19.748 254.016 19.412C253.68 19.0667 253.279 18.8007 252.812 18.614C252.355 18.4273 251.855 18.334 251.314 18.334C250.763 18.334 250.255 18.4273 249.788 18.614C249.331 18.8007 248.929 19.0667 248.584 19.412C248.239 19.748 247.968 20.1447 247.772 20.602C247.585 21.0593 247.492 21.5587 247.492 22.1C247.492 22.6413 247.585 23.1407 247.772 23.598C247.968 24.0553 248.239 24.4567 248.584 24.802C248.929 25.138 249.331 25.3993 249.788 25.586C250.255 25.7727 250.763 25.866 251.314 25.866ZM259.908 21.834H264.962V23.038H259.908V21.834ZM260.048 27H258.648V17.2H265.564V18.418H260.048V27ZM269.549 27V18.418H266.189V17.2H274.295V18.418H270.935V27H269.549ZM277.964 27L274.688 17.2H276.13L279.14 26.244H278.412L281.534 17.2H282.822L285.874 26.244H285.174L288.226 17.2H289.556L286.28 27H284.81L281.954 18.614H282.332L279.462 27H277.964ZM289.47 27L293.908 17.2H295.294L299.746 27H298.276L294.314 17.984H294.874L290.912 27H289.47ZM291.36 24.55L291.738 23.43H297.254L297.66 24.55H291.36ZM301.208 27V17.2H305.03C305.889 17.2 306.622 17.3353 307.228 17.606C307.835 17.8767 308.302 18.2687 308.628 18.782C308.955 19.2953 309.118 19.9067 309.118 20.616C309.118 21.3253 308.955 21.9367 308.628 22.45C308.302 22.954 307.835 23.3413 307.228 23.612C306.622 23.8827 305.889 24.018 305.03 24.018H301.978L302.608 23.374V27H301.208ZM307.76 27L305.268 23.444H306.766L309.286 27H307.76ZM302.608 23.514L301.978 22.828H304.988C305.884 22.828 306.561 22.6367 307.018 22.254C307.485 21.862 307.718 21.316 307.718 20.616C307.718 19.916 307.485 19.3747 307.018 18.992C306.561 18.6093 305.884 18.418 304.988 18.418H301.978L302.608 17.718V23.514ZM312.654 21.428H317.694V22.618H312.654V21.428ZM312.78 25.782H318.492V27H311.38V17.2H318.296V18.418H312.78V25.782ZM325.779 21.834H330.833V23.038H325.779V21.834ZM325.919 27H324.519V17.2H331.435V18.418H325.919V27ZM337.72 27.112C336.974 27.112 336.278 26.986 335.634 26.734C335 26.482 334.449 26.132 333.982 25.684C333.516 25.2267 333.152 24.6947 332.89 24.088C332.629 23.4813 332.498 22.8187 332.498 22.1C332.498 21.3813 332.629 20.7187 332.89 20.112C333.152 19.5053 333.516 18.978 333.982 18.53C334.449 18.0727 335 17.718 335.634 17.466C336.269 17.214 336.964 17.088 337.72 17.088C338.467 17.088 339.153 17.214 339.778 17.466C340.413 17.7087 340.964 18.0587 341.43 18.516C341.906 18.964 342.27 19.4913 342.522 20.098C342.784 20.7047 342.914 21.372 342.914 22.1C342.914 22.828 342.784 23.4953 342.522 24.102C342.27 24.7087 341.906 25.2407 341.43 25.698C340.964 26.146 340.413 26.496 339.778 26.748C339.153 26.9907 338.467 27.112 337.72 27.112ZM337.72 25.866C338.262 25.866 338.761 25.7727 339.218 25.586C339.685 25.3993 340.086 25.138 340.422 24.802C340.768 24.4567 341.034 24.0553 341.22 23.598C341.416 23.1407 341.514 22.6413 341.514 22.1C341.514 21.5587 341.416 21.0593 341.22 20.602C341.034 20.1447 340.768 19.748 340.422 19.412C340.086 19.0667 339.685 18.8007 339.218 18.614C338.761 18.4273 338.262 18.334 337.72 18.334C337.17 18.334 336.661 18.4273 336.194 18.614C335.737 18.8007 335.336 19.0667 334.99 19.412C334.645 19.748 334.374 20.1447 334.178 20.602C333.992 21.0593 333.898 21.5587 333.898 22.1C333.898 22.6413 333.992 23.1407 334.178 23.598C334.374 24.0553 334.645 24.4567 334.99 24.802C335.336 25.138 335.737 25.3993 336.194 25.586C336.661 25.7727 337.17 25.866 337.72 25.866ZM345.054 27V17.2H348.876C349.735 17.2 350.467 17.3353 351.074 17.606C351.681 17.8767 352.147 18.2687 352.474 18.782C352.801 19.2953 352.964 19.9067 352.964 20.616C352.964 21.3253 352.801 21.9367 352.474 22.45C352.147 22.954 351.681 23.3413 351.074 23.612C350.467 23.8827 349.735 24.018 348.876 24.018H345.824L346.454 23.374V27H345.054ZM351.606 27L349.114 23.444H350.612L353.132 27H351.606ZM346.454 23.514L345.824 22.828H348.834C349.73 22.828 350.407 22.6367 350.864 22.254C351.331 21.862 351.564 21.316 351.564 20.616C351.564 19.916 351.331 19.3747 350.864 18.992C350.407 18.6093 349.73 18.418 348.834 18.418H345.824L346.454 17.718V23.514ZM358.986 27V17.2H363.382C364.511 17.2 365.379 17.4287 365.986 17.886C366.592 18.334 366.896 18.95 366.896 19.734C366.896 20.266 366.774 20.714 366.532 21.078C366.298 21.442 365.981 21.722 365.58 21.918C365.178 22.114 364.744 22.212 364.278 22.212L364.53 21.792C365.09 21.792 365.584 21.89 366.014 22.086C366.443 22.282 366.784 22.5713 367.036 22.954C367.288 23.3273 367.414 23.794 367.414 24.354C367.414 25.194 367.096 25.8473 366.462 26.314C365.836 26.7713 364.903 27 363.662 27H358.986ZM360.386 25.866H363.606C364.38 25.866 364.973 25.7353 365.384 25.474C365.794 25.2127 366 24.802 366 24.242C366 23.6727 365.794 23.2573 365.384 22.996C364.973 22.7347 364.38 22.604 363.606 22.604H360.26V21.47H363.256C363.965 21.47 364.516 21.3393 364.908 21.078C365.3 20.8167 365.496 20.4247 365.496 19.902C365.496 19.3793 365.3 18.9873 364.908 18.726C364.516 18.4647 363.965 18.334 363.256 18.334H360.386V25.866ZM369.581 27V17.2H373.403C374.262 17.2 374.995 17.3353 375.601 17.606C376.208 17.8767 376.675 18.2687 377.001 18.782C377.328 19.2953 377.491 19.9067 377.491 20.616C377.491 21.3253 377.328 21.9367 377.001 22.45C376.675 22.954 376.208 23.3413 375.601 23.612C374.995 23.8827 374.262 24.018 373.403 24.018H370.351L370.981 23.374V27H369.581ZM376.133 27L373.641 23.444H375.139L377.659 27H376.133ZM370.981 23.514L370.351 22.828H373.361C374.257 22.828 374.934 22.6367 375.391 22.254C375.858 21.862 376.091 21.316 376.091 20.616C376.091 19.916 375.858 19.3747 375.391 18.992C374.934 18.6093 374.257 18.418 373.361 18.418H370.351L370.981 17.718V23.514ZM378.269 27L382.707 17.2H384.093L388.545 27H387.075L383.113 17.984H383.673L379.711 27H378.269ZM380.159 24.55L380.537 23.43H386.053L386.459 24.55H380.159ZM390.007 27V17.2H391.155L397.637 25.25H397.035V17.2H398.435V27H397.287L390.805 18.95H391.407V27H390.007ZM401.368 27V17.2H405.498C406.544 17.2 407.463 17.4053 408.256 17.816C409.059 18.2267 409.68 18.8007 410.118 19.538C410.566 20.2753 410.79 21.1293 410.79 22.1C410.79 23.0707 410.566 23.9247 410.118 24.662C409.68 25.3993 409.059 25.9733 408.256 26.384C407.463 26.7947 406.544 27 405.498 27H401.368ZM402.768 25.782H405.414C406.226 25.782 406.926 25.628 407.514 25.32C408.112 25.012 408.574 24.5827 408.9 24.032C409.227 23.472 409.39 22.828 409.39 22.1C409.39 21.3627 409.227 20.7187 408.9 20.168C408.574 19.6173 408.112 19.188 407.514 18.88C406.926 18.572 406.226 18.418 405.414 18.418H402.768V25.782ZM415.791 27.112C415.044 27.112 414.33 27 413.649 26.776C412.968 26.5427 412.431 26.244 412.039 25.88L412.557 24.788C412.93 25.1147 413.406 25.3853 413.985 25.6C414.564 25.8147 415.166 25.922 415.791 25.922C416.36 25.922 416.822 25.8567 417.177 25.726C417.532 25.5953 417.793 25.418 417.961 25.194C418.129 24.9607 418.213 24.6993 418.213 24.41C418.213 24.074 418.101 23.8033 417.877 23.598C417.662 23.3927 417.378 23.2293 417.023 23.108C416.678 22.9773 416.295 22.8653 415.875 22.772C415.455 22.6787 415.03 22.5713 414.601 22.45C414.181 22.3193 413.794 22.156 413.439 21.96C413.094 21.764 412.814 21.5027 412.599 21.176C412.384 20.84 412.277 20.4107 412.277 19.888C412.277 19.384 412.408 18.922 412.669 18.502C412.94 18.0727 413.35 17.732 413.901 17.48C414.461 17.2187 415.17 17.088 416.029 17.088C416.598 17.088 417.163 17.1627 417.723 17.312C418.283 17.4613 418.768 17.676 419.179 17.956L418.717 19.076C418.297 18.796 417.854 18.5953 417.387 18.474C416.92 18.3433 416.468 18.278 416.029 18.278C415.478 18.278 415.026 18.348 414.671 18.488C414.316 18.628 414.055 18.8147 413.887 19.048C413.728 19.2813 413.649 19.5427 413.649 19.832C413.649 20.1773 413.756 20.4527 413.971 20.658C414.195 20.8633 414.48 21.0267 414.825 21.148C415.18 21.2693 415.567 21.3813 415.987 21.484C416.407 21.5773 416.827 21.6847 417.247 21.806C417.676 21.9273 418.064 22.086 418.409 22.282C418.764 22.478 419.048 22.7393 419.263 23.066C419.478 23.3927 419.585 23.8127 419.585 24.326C419.585 24.8207 419.45 25.2827 419.179 25.712C418.908 26.132 418.488 26.4727 417.919 26.734C417.359 26.986 416.65 27.112 415.791 27.112Z" fill="#4F4D5C"/>
<path d="M0 10C0 4.47715 4.47715 0 10 0H124V45H10C4.47715 45 0 40.5228 0 35V10Z" fill="#FF5900"/>
<path d="M35.298 27.084C34.57 27.084 33.87 26.9673 33.198 26.734C32.5353 26.4913 32.022 26.1833 31.658 25.81L32.064 25.012C32.4093 25.348 32.8713 25.6327 33.45 25.866C34.038 26.09 34.654 26.202 35.298 26.202C35.914 26.202 36.4133 26.1273 36.796 25.978C37.188 25.8193 37.4727 25.6093 37.65 25.348C37.8367 25.0867 37.93 24.7973 37.93 24.48C37.93 24.0973 37.818 23.7893 37.594 23.556C37.3793 23.3227 37.0947 23.1407 36.74 23.01C36.3853 22.87 35.9933 22.7487 35.564 22.646C35.1347 22.5433 34.7053 22.436 34.276 22.324C33.8467 22.2027 33.45 22.044 33.086 21.848C32.7313 21.652 32.442 21.3953 32.218 21.078C32.0033 20.7513 31.896 20.3267 31.896 19.804C31.896 19.3187 32.022 18.8753 32.274 18.474C32.5353 18.0633 32.932 17.7367 33.464 17.494C33.996 17.242 34.6773 17.116 35.508 17.116C36.0587 17.116 36.6047 17.1953 37.146 17.354C37.6873 17.5033 38.154 17.7133 38.546 17.984L38.196 18.81C37.776 18.53 37.328 18.3247 36.852 18.194C36.3853 18.0633 35.9327 17.998 35.494 17.998C34.906 17.998 34.4207 18.0773 34.038 18.236C33.6553 18.3947 33.3707 18.6093 33.184 18.88C33.0067 19.1413 32.918 19.44 32.918 19.776C32.918 20.1587 33.0253 20.4667 33.24 20.7C33.464 20.9333 33.7533 21.1153 34.108 21.246C34.472 21.3767 34.8687 21.4933 35.298 21.596C35.7273 21.6987 36.152 21.8107 36.572 21.932C37.0013 22.0533 37.3933 22.212 37.748 22.408C38.112 22.5947 38.4013 22.8467 38.616 23.164C38.84 23.4813 38.952 23.8967 38.952 24.41C38.952 24.886 38.8213 25.3293 38.56 25.74C38.2987 26.1413 37.8973 26.468 37.356 26.72C36.824 26.9627 36.138 27.084 35.298 27.084ZM43.3233 27.07C42.6326 27.07 42.1006 26.8833 41.7273 26.51C41.3539 26.1367 41.1673 25.6093 41.1673 24.928V18.026H42.1613V24.872C42.1613 25.3013 42.2686 25.6327 42.4833 25.866C42.7073 26.0993 43.0246 26.216 43.4353 26.216C43.8739 26.216 44.2379 26.09 44.5273 25.838L44.8773 26.552C44.6813 26.7293 44.4433 26.86 44.1633 26.944C43.8926 27.028 43.6126 27.07 43.3233 27.07ZM39.8513 20.476V19.65H44.4013V20.476H39.8513ZM51.2928 27V25.376L51.2508 25.11V22.394C51.2508 21.7687 51.0734 21.288 50.7188 20.952C50.3734 20.616 49.8554 20.448 49.1648 20.448C48.6888 20.448 48.2361 20.5273 47.8068 20.686C47.3774 20.8447 47.0134 21.0547 46.7148 21.316L46.2668 20.574C46.6401 20.2567 47.0881 20.014 47.6108 19.846C48.1334 19.6687 48.6841 19.58 49.2628 19.58C50.2148 19.58 50.9474 19.818 51.4608 20.294C51.9834 20.7607 52.2448 21.4747 52.2448 22.436V27H51.2928ZM48.7588 27.07C48.2081 27.07 47.7274 26.9813 47.3168 26.804C46.9154 26.6173 46.6074 26.3653 46.3928 26.048C46.1781 25.7213 46.0708 25.348 46.0708 24.928C46.0708 24.5453 46.1594 24.2 46.3368 23.892C46.5234 23.5747 46.8221 23.3227 47.2328 23.136C47.6528 22.94 48.2128 22.842 48.9128 22.842H51.4468V23.584H48.9408C48.2314 23.584 47.7368 23.71 47.4568 23.962C47.1861 24.214 47.0508 24.5267 47.0508 24.9C47.0508 25.32 47.2141 25.656 47.5408 25.908C47.8674 26.16 48.3248 26.286 48.9128 26.286C49.4728 26.286 49.9534 26.16 50.3548 25.908C50.7654 25.6467 51.0641 25.2733 51.2508 24.788L51.4748 25.474C51.2881 25.9593 50.9614 26.3467 50.4948 26.636C50.0374 26.9253 49.4588 27.07 48.7588 27.07ZM54.9446 27V19.65H55.8966V21.652L55.7986 21.302C56.0039 20.742 56.3493 20.3173 56.8346 20.028C57.3199 19.7293 57.9219 19.58 58.6406 19.58V20.546C58.6033 20.546 58.5659 20.546 58.5286 20.546C58.4913 20.5367 58.4539 20.532 58.4166 20.532C57.6419 20.532 57.0353 20.77 56.5966 21.246C56.1579 21.7127 55.9386 22.38 55.9386 23.248V27H54.9446ZM64.2484 27.07C63.6044 27.07 63.0257 26.9253 62.5124 26.636C61.999 26.3373 61.593 25.908 61.2944 25.348C60.9957 24.788 60.8464 24.1113 60.8464 23.318C60.8464 22.5153 60.9957 21.8387 61.2944 21.288C61.6024 20.728 62.013 20.3033 62.5264 20.014C63.0397 19.7247 63.6137 19.58 64.2484 19.58C64.9484 19.58 65.5737 19.7387 66.1244 20.056C66.6844 20.364 67.123 20.798 67.4404 21.358C67.7577 21.918 67.9164 22.5713 67.9164 23.318C67.9164 24.0553 67.7577 24.7087 67.4404 25.278C67.123 25.838 66.6844 26.2767 66.1244 26.594C65.5737 26.9113 64.9484 27.07 64.2484 27.07ZM60.4544 27V16.612H61.4484V21.82L61.3084 23.304L61.4064 24.788V27H60.4544ZM64.1784 26.188C64.701 26.188 65.1677 26.0713 65.5784 25.838C65.989 25.5953 66.3157 25.2593 66.5584 24.83C66.801 24.3913 66.9224 23.8873 66.9224 23.318C66.9224 22.7393 66.801 22.2353 66.5584 21.806C66.3157 21.3767 65.989 21.0453 65.5784 20.812C65.1677 20.5693 64.701 20.448 64.1784 20.448C63.6557 20.448 63.1844 20.5693 62.7644 20.812C62.3537 21.0453 62.027 21.3767 61.7844 21.806C61.551 22.2353 61.4344 22.7393 61.4344 23.318C61.4344 23.8873 61.551 24.3913 61.7844 24.83C62.027 25.2593 62.3537 25.5953 62.7644 25.838C63.1844 26.0713 63.6557 26.188 64.1784 26.188ZM72.9806 27.07C72.3553 27.07 71.8093 26.9533 71.3426 26.72C70.876 26.4867 70.512 26.1367 70.2506 25.67C69.9986 25.2033 69.8726 24.62 69.8726 23.92V19.65H70.8666V23.808C70.8666 24.592 71.058 25.1847 71.4406 25.586C71.8326 25.978 72.3786 26.174 73.0786 26.174C73.592 26.174 74.0353 26.0713 74.4086 25.866C74.7913 25.6513 75.0806 25.3433 75.2766 24.942C75.482 24.5407 75.5846 24.06 75.5846 23.5V19.65H76.5786V27H75.6266V24.984L75.7806 25.348C75.5473 25.8893 75.1833 26.314 74.6886 26.622C74.2033 26.9207 73.634 27.07 72.9806 27.07ZM78.5509 27V26.342L83.4509 20.14L83.6609 20.476H78.6349V19.65H84.4449V20.294L79.5589 26.51L79.3069 26.174H84.5429V27H78.5509ZM85.7013 27V26.342L90.6013 20.14L90.8113 20.476H85.7853V19.65H91.5953V20.294L86.7093 26.51L86.4573 26.174H91.6933V27H85.7013Z" fill="white"/>
</svg>
