<svg width="684" height="507" viewBox="0 0 684 507" fill="none" xmlns="http://www.w3.org/2000/svg">
<g filter="url(#filter0_d_480_2090)">
<rect x="160.81" y="96.5745" width="362.148" height="185.257" rx="14.3425" fill="white"/>
<path fill-rule="evenodd" clip-rule="evenodd" d="M369.972 152.716C369.972 152.716 376.782 157.922 381.534 156.912C386.286 155.903 389.792 149.78 394.437 149.78C399.082 149.78 403.194 151.286 408.986 147.942C414.779 144.598 415.736 140.002 422.709 140.002C429.682 140.002 438.646 149.871 448.001 142.326C457.356 134.78 476.996 148.539 476.996 148.539V178.446H369.972V152.716Z" fill="url(#paint0_linear_480_2090)"/>
<path d="M369.972 152.665C369.972 152.665 376.782 157.871 381.534 156.861C386.286 155.851 389.793 149.729 394.438 149.729C399.083 149.729 403.194 151.235 408.987 147.891C414.779 144.547 415.736 139.951 422.709 139.951C429.682 139.951 438.646 149.82 448.001 142.275C457.356 134.729 476.996 148.488 476.996 148.488" stroke="#ED5663" stroke-width="1.55377"/>
<path d="M210.323 234.486H208.85C208.763 234.062 208.61 233.689 208.392 233.369C208.178 233.048 207.917 232.778 207.608 232.56C207.303 232.339 206.964 232.172 206.592 232.061C206.219 231.95 205.831 231.895 205.427 231.895C204.69 231.895 204.023 232.081 203.425 232.454C202.83 232.826 202.357 233.375 202.005 234.099C201.656 234.824 201.482 235.714 201.482 236.767C201.482 237.821 201.656 238.711 202.005 239.435C202.357 240.16 202.83 240.709 203.425 241.081C204.023 241.454 204.69 241.64 205.427 241.64C205.831 241.64 206.219 241.585 206.592 241.474C206.964 241.363 207.303 241.198 207.608 240.98C207.917 240.759 208.178 240.487 208.392 240.166C208.61 239.842 208.763 239.469 208.85 239.049H210.323C210.213 239.671 210.01 240.228 209.717 240.719C209.424 241.21 209.06 241.628 208.624 241.973C208.188 242.313 207.699 242.573 207.156 242.751C206.618 242.929 206.041 243.019 205.427 243.019C204.389 243.019 203.466 242.765 202.658 242.258C201.85 241.751 201.214 241.03 200.751 240.095C200.287 239.16 200.056 238.051 200.056 236.767C200.056 235.484 200.287 234.375 200.751 233.44C201.214 232.505 201.85 231.784 202.658 231.277C203.466 230.77 204.389 230.516 205.427 230.516C206.041 230.516 206.618 230.606 207.156 230.784C207.699 230.962 208.188 231.224 208.624 231.568C209.06 231.909 209.424 232.325 209.717 232.816C210.01 233.303 210.213 233.86 210.323 234.486ZM216.222 243.042C215.398 243.042 214.676 242.846 214.054 242.454C213.436 242.062 212.952 241.513 212.604 240.808C212.259 240.103 212.087 239.279 212.087 238.336C212.087 237.385 212.259 236.556 212.604 235.846C212.952 235.137 213.436 234.587 214.054 234.195C214.676 233.802 215.398 233.606 216.222 233.606C217.046 233.606 217.767 233.802 218.385 234.195C219.007 234.587 219.491 235.137 219.835 235.846C220.184 236.556 220.358 237.385 220.358 238.336C220.358 239.279 220.184 240.103 219.835 240.808C219.491 241.513 219.007 242.062 218.385 242.454C217.767 242.846 217.046 243.042 216.222 243.042ZM216.222 241.783C216.848 241.783 217.363 241.622 217.767 241.301C218.171 240.98 218.471 240.559 218.665 240.036C218.859 239.513 218.956 238.946 218.956 238.336C218.956 237.726 218.859 237.158 218.665 236.631C218.471 236.104 218.171 235.678 217.767 235.353C217.363 235.028 216.848 234.866 216.222 234.866C215.597 234.866 215.082 235.028 214.677 235.353C214.273 235.678 213.974 236.104 213.78 236.631C213.586 237.158 213.489 237.726 213.489 238.336C213.489 238.946 213.586 239.513 213.78 240.036C213.974 240.559 214.273 240.98 214.677 241.301C215.082 241.622 215.597 241.783 216.222 241.783ZM222.499 242.852V233.725H223.854V235.151H223.972C224.163 234.664 224.47 234.286 224.893 234.016C225.317 233.743 225.826 233.606 226.421 233.606C227.023 233.606 227.524 233.743 227.924 234.016C228.328 234.286 228.643 234.664 228.869 235.151H228.964C229.197 234.68 229.548 234.305 230.015 234.028C230.483 233.747 231.043 233.606 231.697 233.606C232.513 233.606 233.181 233.862 233.7 234.373C234.219 234.88 234.478 235.67 234.478 236.744V242.852H233.076V236.744C233.076 236.07 232.891 235.589 232.523 235.3C232.155 235.011 231.721 234.866 231.222 234.866C230.58 234.866 230.083 235.06 229.73 235.448C229.378 235.833 229.201 236.32 229.201 236.91V242.852H227.775V236.601C227.775 236.082 227.607 235.664 227.27 235.347C226.934 235.026 226.5 234.866 225.969 234.866C225.604 234.866 225.264 234.963 224.947 235.157C224.634 235.351 224.38 235.621 224.186 235.965C223.996 236.306 223.901 236.7 223.901 237.148V242.852H222.499ZM237.042 246.275V233.725H238.397V235.175H238.563C238.666 235.017 238.809 234.815 238.991 234.569C239.177 234.319 239.443 234.098 239.787 233.903C240.136 233.705 240.607 233.606 241.201 233.606C241.97 233.606 242.647 233.798 243.234 234.183C243.82 234.567 244.277 235.112 244.606 235.817C244.935 236.522 245.099 237.354 245.099 238.312C245.099 239.279 244.935 240.117 244.606 240.826C244.277 241.531 243.822 242.078 243.24 242.466C242.657 242.85 241.986 243.042 241.225 243.042C240.639 243.042 240.169 242.945 239.817 242.751C239.464 242.553 239.193 242.329 239.003 242.08C238.813 241.826 238.666 241.616 238.563 241.45H238.444V246.275H237.042ZM238.421 238.289C238.421 238.978 238.522 239.586 238.724 240.113C238.926 240.636 239.221 241.046 239.609 241.343C239.997 241.636 240.473 241.783 241.035 241.783C241.621 241.783 242.111 241.628 242.503 241.319C242.899 241.006 243.196 240.586 243.394 240.059C243.596 239.529 243.697 238.938 243.697 238.289C243.697 237.647 243.598 237.069 243.4 236.554C243.206 236.035 242.911 235.625 242.515 235.324C242.122 235.019 241.629 234.866 241.035 234.866C240.465 234.866 239.985 235.011 239.597 235.3C239.209 235.585 238.916 235.985 238.718 236.5C238.52 237.011 238.421 237.607 238.421 238.289ZM249.924 243.066C249.346 243.066 248.821 242.957 248.35 242.739C247.878 242.517 247.504 242.199 247.227 241.783C246.949 241.363 246.811 240.856 246.811 240.261C246.811 239.739 246.914 239.315 247.12 238.99C247.326 238.661 247.601 238.404 247.946 238.217C248.29 238.031 248.671 237.893 249.087 237.801C249.506 237.706 249.928 237.631 250.352 237.576C250.907 237.504 251.356 237.451 251.701 237.415C252.05 237.376 252.303 237.31 252.462 237.219C252.624 237.128 252.705 236.97 252.705 236.744V236.696C252.705 236.11 252.545 235.654 252.224 235.33C251.907 235.005 251.426 234.842 250.78 234.842C250.111 234.842 249.586 234.989 249.205 235.282C248.825 235.575 248.558 235.888 248.403 236.221L247.072 235.745C247.31 235.191 247.627 234.759 248.023 234.45C248.423 234.137 248.859 233.919 249.33 233.796C249.806 233.67 250.273 233.606 250.733 233.606C251.026 233.606 251.362 233.642 251.743 233.713C252.127 233.781 252.497 233.921 252.854 234.135C253.214 234.349 253.513 234.672 253.751 235.104C253.989 235.535 254.108 236.114 254.108 236.839V242.852H252.705V241.616H252.634C252.539 241.814 252.38 242.026 252.159 242.252C251.937 242.478 251.642 242.67 251.273 242.828C250.905 242.987 250.455 243.066 249.924 243.066ZM250.138 241.806C250.693 241.806 251.16 241.697 251.541 241.48C251.925 241.262 252.214 240.98 252.408 240.636C252.606 240.291 252.705 239.929 252.705 239.548V238.265C252.646 238.336 252.515 238.402 252.313 238.461C252.115 238.516 251.885 238.566 251.624 238.61C251.366 238.649 251.115 238.685 250.869 238.716C250.628 238.744 250.431 238.768 250.281 238.788C249.916 238.835 249.576 238.913 249.259 239.02C248.946 239.123 248.692 239.279 248.498 239.489C248.308 239.695 248.213 239.976 248.213 240.333C248.213 240.82 248.393 241.188 248.754 241.438C249.118 241.684 249.58 241.806 250.138 241.806ZM256.667 242.852V233.725H258.022V235.104H258.117C258.283 234.652 258.584 234.286 259.02 234.004C259.456 233.723 259.947 233.583 260.494 233.583C260.597 233.583 260.726 233.585 260.88 233.588C261.035 233.592 261.151 233.598 261.231 233.606V235.032C261.183 235.021 261.074 235.003 260.904 234.979C260.738 234.951 260.561 234.937 260.375 234.937C259.931 234.937 259.535 235.03 259.187 235.217C258.842 235.399 258.569 235.652 258.367 235.977C258.169 236.298 258.07 236.664 258.07 237.076V242.852H256.667ZM266.442 243.042C265.562 243.042 264.804 242.848 264.166 242.46C263.532 242.068 263.043 241.521 262.698 240.82C262.358 240.115 262.187 239.295 262.187 238.36C262.187 237.425 262.358 236.601 262.698 235.888C263.043 235.171 263.522 234.612 264.136 234.212C264.754 233.808 265.475 233.606 266.299 233.606C266.775 233.606 267.244 233.686 267.708 233.844C268.171 234.002 268.593 234.26 268.973 234.616C269.354 234.969 269.657 235.436 269.882 236.019C270.108 236.601 270.221 237.318 270.221 238.17V238.764H263.186V237.552H268.795C268.795 237.037 268.692 236.577 268.486 236.173C268.284 235.769 267.995 235.45 267.618 235.217C267.246 234.983 266.806 234.866 266.299 234.866C265.741 234.866 265.257 235.005 264.849 235.282C264.445 235.555 264.134 235.912 263.917 236.352C263.699 236.791 263.59 237.263 263.59 237.766V238.574C263.59 239.263 263.709 239.847 263.946 240.327C264.188 240.802 264.523 241.165 264.95 241.414C265.378 241.66 265.875 241.783 266.442 241.783C266.81 241.783 267.143 241.731 267.44 241.628C267.741 241.521 268.001 241.363 268.219 241.153C268.436 240.939 268.605 240.673 268.724 240.357L270.078 240.737C269.936 241.196 269.696 241.6 269.359 241.949C269.023 242.294 268.607 242.563 268.112 242.757C267.616 242.947 267.06 243.042 266.442 243.042ZM275.801 243.042C275.04 243.042 274.369 242.85 273.786 242.466C273.204 242.078 272.748 241.531 272.42 240.826C272.091 240.117 271.926 239.279 271.926 238.312C271.926 237.354 272.091 236.522 272.42 235.817C272.748 235.112 273.206 234.567 273.792 234.183C274.379 233.798 275.056 233.606 275.824 233.606C276.419 233.606 276.888 233.705 277.233 233.903C277.581 234.098 277.847 234.319 278.029 234.569C278.215 234.815 278.36 235.017 278.463 235.175H278.582V230.683H279.984V242.852H278.629V241.45H278.463C278.36 241.616 278.213 241.826 278.023 242.08C277.833 242.329 277.562 242.553 277.209 242.751C276.856 242.945 276.387 243.042 275.801 243.042ZM275.991 241.783C276.553 241.783 277.029 241.636 277.417 241.343C277.805 241.046 278.1 240.636 278.302 240.113C278.504 239.586 278.605 238.978 278.605 238.289C278.605 237.607 278.506 237.011 278.308 236.5C278.11 235.985 277.817 235.585 277.429 235.3C277.041 235.011 276.561 234.866 275.991 234.866C275.397 234.866 274.901 235.019 274.505 235.324C274.113 235.625 273.818 236.035 273.62 236.554C273.426 237.069 273.329 237.647 273.329 238.289C273.329 238.938 273.428 239.529 273.626 240.059C273.828 240.586 274.125 241.006 274.517 241.319C274.913 241.628 275.405 241.783 275.991 241.783ZM291.422 233.725V234.914H286.693V233.725H291.422ZM288.071 231.538H289.473V240.238C289.473 240.634 289.531 240.931 289.646 241.129C289.765 241.323 289.915 241.454 290.097 241.521C290.284 241.585 290.48 241.616 290.686 241.616C290.84 241.616 290.967 241.608 291.066 241.592C291.165 241.573 291.244 241.557 291.304 241.545L291.589 242.805C291.494 242.84 291.361 242.876 291.191 242.912C291.02 242.951 290.804 242.971 290.543 242.971C290.147 242.971 289.759 242.886 289.378 242.716C289.002 242.545 288.689 242.286 288.439 241.937C288.194 241.588 288.071 241.149 288.071 240.618V231.538ZM297.142 243.042C296.318 243.042 295.595 242.846 294.973 242.454C294.355 242.062 293.872 241.513 293.523 240.808C293.178 240.103 293.006 239.279 293.006 238.336C293.006 237.385 293.178 236.556 293.523 235.846C293.872 235.137 294.355 234.587 294.973 234.195C295.595 233.802 296.318 233.606 297.142 233.606C297.966 233.606 298.687 233.802 299.305 234.195C299.926 234.587 300.41 235.137 300.754 235.846C301.103 236.556 301.277 237.385 301.277 238.336C301.277 239.279 301.103 240.103 300.754 240.808C300.41 241.513 299.926 242.062 299.305 242.454C298.687 242.846 297.966 243.042 297.142 243.042ZM297.142 241.783C297.768 241.783 298.283 241.622 298.687 241.301C299.091 240.98 299.39 240.559 299.584 240.036C299.778 239.513 299.875 238.946 299.875 238.336C299.875 237.726 299.778 237.158 299.584 236.631C299.39 236.104 299.091 235.678 298.687 235.353C298.283 235.028 297.768 234.866 297.142 234.866C296.516 234.866 296.001 235.028 295.597 235.353C295.193 235.678 294.894 236.104 294.699 236.631C294.505 237.158 294.408 237.726 294.408 238.336C294.408 238.946 294.505 239.513 294.699 240.036C294.894 240.559 295.193 240.98 295.597 241.301C296.001 241.622 296.516 241.783 297.142 241.783ZM308.623 236.767C308.623 235.27 308.817 233.893 309.206 232.638C309.598 231.378 310.156 230.219 310.881 229.162H312.117C311.832 229.554 311.565 230.037 311.315 230.611C311.069 231.182 310.853 231.81 310.667 232.495C310.481 233.176 310.335 233.882 310.228 234.611C310.125 235.339 310.073 236.058 310.073 236.767C310.073 237.71 310.164 238.667 310.346 239.638C310.529 240.608 310.774 241.509 311.083 242.341C311.392 243.173 311.737 243.85 312.117 244.373H310.881C310.156 243.316 309.598 242.159 309.206 240.903C308.817 239.643 308.623 238.265 308.623 236.767ZM317.752 244.373V229.162H318.726V244.373H317.752ZM321.032 233.725C320.96 233.123 320.671 232.656 320.164 232.323C319.657 231.99 319.035 231.824 318.298 231.824C317.76 231.824 317.288 231.911 316.884 232.085C316.484 232.259 316.171 232.499 315.945 232.804C315.724 233.109 315.613 233.456 315.613 233.844C315.613 234.169 315.69 234.448 315.844 234.682C316.003 234.912 316.205 235.104 316.45 235.258C316.696 235.409 316.954 235.534 317.223 235.633C317.492 235.728 317.74 235.805 317.966 235.864L319.202 236.197C319.519 236.28 319.871 236.395 320.259 236.542C320.651 236.688 321.026 236.888 321.382 237.142C321.743 237.391 322.04 237.712 322.274 238.104C322.507 238.497 322.624 238.978 322.624 239.548C322.624 240.206 322.452 240.8 322.107 241.331C321.767 241.862 321.267 242.284 320.61 242.597C319.956 242.91 319.162 243.066 318.227 243.066C317.356 243.066 316.601 242.925 315.963 242.644C315.329 242.363 314.83 241.971 314.466 241.468C314.105 240.965 313.901 240.38 313.854 239.715H315.375C315.415 240.174 315.569 240.555 315.838 240.856C316.112 241.153 316.456 241.375 316.872 241.521C317.292 241.664 317.744 241.735 318.227 241.735C318.79 241.735 319.295 241.644 319.742 241.462C320.19 241.276 320.545 241.018 320.806 240.689C321.067 240.357 321.198 239.968 321.198 239.525C321.198 239.121 321.085 238.792 320.859 238.538C320.634 238.285 320.337 238.079 319.968 237.92C319.6 237.762 319.202 237.623 318.774 237.504L317.276 237.076C316.326 236.803 315.573 236.413 315.018 235.906C314.464 235.399 314.186 234.735 314.186 233.915C314.186 233.234 314.371 232.64 314.739 232.133C315.111 231.622 315.611 231.226 316.237 230.944C316.866 230.659 317.57 230.516 318.346 230.516C319.13 230.516 319.828 230.657 320.438 230.938C321.048 231.216 321.531 231.596 321.887 232.079C322.248 232.562 322.438 233.111 322.458 233.725H321.032ZM329.112 230.683V242.852H327.638V232.228H327.567L324.596 234.201V232.703L327.638 230.683H329.112ZM336.723 243.019C335.939 243.019 335.24 242.884 334.626 242.614C334.016 242.345 333.53 241.971 333.17 241.491C332.813 241.008 332.619 240.448 332.588 239.81H334.085C334.117 240.202 334.251 240.541 334.489 240.826C334.727 241.107 335.038 241.325 335.422 241.48C335.806 241.634 336.232 241.711 336.7 241.711C337.222 241.711 337.686 241.62 338.09 241.438C338.494 241.256 338.811 241.002 339.041 240.677C339.27 240.353 339.385 239.976 339.385 239.548C339.385 239.101 339.274 238.707 339.053 238.366C338.831 238.021 338.506 237.752 338.078 237.558C337.65 237.364 337.127 237.267 336.509 237.267H335.535V235.959H336.509C336.993 235.959 337.417 235.872 337.781 235.698C338.149 235.524 338.437 235.278 338.643 234.961C338.853 234.644 338.958 234.272 338.958 233.844C338.958 233.432 338.866 233.073 338.684 232.768C338.502 232.463 338.244 232.226 337.912 232.055C337.583 231.885 337.195 231.8 336.747 231.8C336.327 231.8 335.931 231.877 335.559 232.032C335.19 232.182 334.889 232.402 334.655 232.691C334.422 232.976 334.295 233.321 334.275 233.725H332.849C332.873 233.087 333.065 232.529 333.425 232.049C333.786 231.566 334.257 231.19 334.84 230.92C335.426 230.651 336.07 230.516 336.771 230.516C337.524 230.516 338.169 230.669 338.708 230.974C339.247 231.275 339.661 231.673 339.95 232.168C340.239 232.663 340.384 233.198 340.384 233.773C340.384 234.458 340.203 235.042 339.843 235.526C339.486 236.009 339.001 236.344 338.387 236.53V236.625C339.156 236.752 339.756 237.078 340.188 237.605C340.619 238.128 340.835 238.776 340.835 239.548C340.835 240.21 340.655 240.804 340.294 241.331C339.938 241.854 339.451 242.266 338.833 242.567C338.215 242.868 337.512 243.019 336.723 243.019ZM347.164 243.019C346.347 243.019 345.627 242.874 345.001 242.585C344.379 242.292 343.893 241.89 343.545 241.379C343.196 240.864 343.024 240.277 343.028 239.62C343.024 239.105 343.125 238.629 343.331 238.194C343.537 237.754 343.818 237.387 344.175 237.094C344.535 236.797 344.937 236.609 345.381 236.53V236.458C344.799 236.308 344.335 235.981 343.99 235.478C343.646 234.971 343.475 234.395 343.479 233.749C343.475 233.131 343.632 232.578 343.949 232.091C344.266 231.604 344.702 231.22 345.256 230.938C345.815 230.657 346.45 230.516 347.164 230.516C347.869 230.516 348.499 230.657 349.053 230.938C349.608 231.22 350.043 231.604 350.36 232.091C350.681 232.578 350.844 233.131 350.848 233.749C350.844 234.395 350.667 234.971 350.319 235.478C349.974 235.981 349.517 236.308 348.946 236.458V236.53C349.386 236.609 349.782 236.797 350.135 237.094C350.487 237.387 350.768 237.754 350.978 238.194C351.188 238.629 351.295 239.105 351.299 239.62C351.295 240.277 351.117 240.864 350.764 241.379C350.416 241.89 349.931 242.292 349.309 242.585C348.691 242.874 347.976 243.019 347.164 243.019ZM347.164 241.711C347.714 241.711 348.19 241.622 348.59 241.444C348.99 241.266 349.299 241.014 349.517 240.689C349.734 240.364 349.845 239.984 349.849 239.548C349.845 239.089 349.727 238.683 349.493 238.33C349.259 237.978 348.94 237.7 348.536 237.498C348.136 237.296 347.679 237.195 347.164 237.195C346.645 237.195 346.181 237.296 345.773 237.498C345.369 237.7 345.05 237.978 344.816 238.33C344.587 238.683 344.474 239.089 344.478 239.548C344.474 239.984 344.579 240.364 344.793 240.689C345.011 241.014 345.321 241.266 345.726 241.444C346.13 241.622 346.609 241.711 347.164 241.711ZM347.164 235.936C347.599 235.936 347.986 235.848 348.322 235.674C348.663 235.5 348.93 235.256 349.124 234.943C349.319 234.63 349.418 234.264 349.422 233.844C349.418 233.432 349.321 233.073 349.13 232.768C348.94 232.459 348.677 232.222 348.34 232.055C348.003 231.885 347.611 231.8 347.164 231.8C346.708 231.8 346.31 231.885 345.969 232.055C345.629 232.222 345.365 232.459 345.179 232.768C344.993 233.073 344.902 233.432 344.906 233.844C344.902 234.264 344.995 234.63 345.185 234.943C345.379 235.256 345.646 235.5 345.987 235.674C346.328 235.848 346.72 235.936 347.164 235.936ZM357.379 243.019C356.682 243.019 356.054 242.88 355.496 242.603C354.937 242.325 354.49 241.945 354.153 241.462C353.816 240.978 353.632 240.428 353.6 239.81H355.026C355.082 240.36 355.331 240.816 355.775 241.177C356.223 241.533 356.758 241.711 357.379 241.711C357.879 241.711 358.322 241.594 358.71 241.361C359.103 241.127 359.41 240.806 359.632 240.398C359.857 239.986 359.97 239.521 359.97 239.002C359.97 238.471 359.853 237.997 359.62 237.582C359.39 237.162 359.073 236.831 358.669 236.589C358.265 236.348 357.803 236.225 357.284 236.221C356.912 236.217 356.53 236.274 356.138 236.393C355.745 236.508 355.423 236.657 355.169 236.839L353.79 236.672L354.527 230.683H360.85V231.99H355.763L355.335 235.579H355.407C355.656 235.381 355.969 235.217 356.346 235.086C356.722 234.955 357.114 234.89 357.522 234.89C358.267 234.89 358.93 235.068 359.513 235.425C360.099 235.777 360.558 236.26 360.891 236.874C361.228 237.488 361.396 238.19 361.396 238.978C361.396 239.754 361.222 240.448 360.873 241.058C360.529 241.664 360.053 242.143 359.447 242.496C358.841 242.844 358.152 243.019 357.379 243.019ZM367.726 243.019C366.831 243.019 366.068 242.775 365.438 242.288C364.809 241.796 364.327 241.085 363.994 240.154C363.662 239.22 363.495 238.091 363.495 236.767C363.495 235.452 363.662 234.329 363.994 233.398C364.331 232.463 364.814 231.75 365.444 231.259C366.078 230.764 366.839 230.516 367.726 230.516C368.613 230.516 369.372 230.764 370.002 231.259C370.636 231.75 371.119 232.463 371.452 233.398C371.788 234.329 371.957 235.452 371.957 236.767C371.957 238.091 371.79 239.22 371.458 240.154C371.125 241.085 370.644 241.796 370.014 242.288C369.384 242.775 368.621 243.019 367.726 243.019ZM367.726 241.711C368.613 241.711 369.303 241.283 369.794 240.428C370.285 239.572 370.531 238.352 370.531 236.767C370.531 235.714 370.418 234.817 370.192 234.076C369.97 233.335 369.649 232.77 369.229 232.382C368.813 231.994 368.312 231.8 367.726 231.8C366.847 231.8 366.159 232.234 365.664 233.101C365.169 233.965 364.921 235.187 364.921 236.767C364.921 237.821 365.032 238.716 365.254 239.453C365.476 240.19 365.795 240.751 366.211 241.135C366.631 241.519 367.136 241.711 367.726 241.711ZM380.347 230.683V242.852H378.945V230.683H380.347ZM385.601 243.066C385.023 243.066 384.498 242.957 384.027 242.739C383.555 242.517 383.181 242.199 382.904 241.783C382.626 241.363 382.488 240.856 382.488 240.261C382.488 239.739 382.591 239.315 382.797 238.99C383.003 238.661 383.278 238.404 383.623 238.217C383.967 238.031 384.348 237.893 384.764 237.801C385.183 237.706 385.605 237.631 386.029 237.576C386.584 237.504 387.033 237.451 387.378 237.415C387.727 237.376 387.98 237.31 388.139 237.219C388.301 237.128 388.382 236.97 388.382 236.744V236.696C388.382 236.11 388.222 235.654 387.901 235.33C387.584 235.005 387.103 234.842 386.457 234.842C385.788 234.842 385.263 234.989 384.882 235.282C384.502 235.575 384.235 235.888 384.08 236.221L382.749 235.745C382.987 235.191 383.304 234.759 383.7 234.45C384.1 234.137 384.536 233.919 385.007 233.796C385.483 233.67 385.95 233.606 386.409 233.606C386.703 233.606 387.039 233.642 387.42 233.713C387.804 233.781 388.174 233.921 388.531 234.135C388.891 234.349 389.19 234.672 389.428 235.104C389.666 235.535 389.785 236.114 389.785 236.839V242.852H388.382V241.616H388.311C388.216 241.814 388.057 242.026 387.836 242.252C387.614 242.478 387.319 242.67 386.95 242.828C386.582 242.987 386.132 243.066 385.601 243.066ZM385.815 241.806C386.37 241.806 386.837 241.697 387.218 241.48C387.602 241.262 387.891 240.98 388.085 240.636C388.283 240.291 388.382 239.929 388.382 239.548V238.265C388.323 238.336 388.192 238.402 387.99 238.461C387.792 238.516 387.562 238.566 387.301 238.61C387.043 238.649 386.792 238.685 386.546 238.716C386.305 238.744 386.108 238.768 385.958 238.788C385.593 238.835 385.253 238.913 384.936 239.02C384.623 239.123 384.369 239.279 384.175 239.489C383.985 239.695 383.89 239.976 383.89 240.333C383.89 240.82 384.07 241.188 384.431 241.438C384.795 241.684 385.257 241.806 385.815 241.806ZM398.809 235.769L397.549 236.126C397.47 235.916 397.353 235.712 397.199 235.514C397.048 235.312 396.842 235.145 396.581 235.015C396.319 234.884 395.985 234.818 395.577 234.818C395.018 234.818 394.553 234.947 394.18 235.205C393.812 235.458 393.628 235.781 393.628 236.173C393.628 236.522 393.754 236.797 394.008 236.999C394.261 237.201 394.658 237.37 395.196 237.504L396.551 237.837C397.367 238.035 397.975 238.338 398.375 238.746C398.775 239.15 398.975 239.671 398.975 240.309C398.975 240.832 398.825 241.299 398.524 241.711C398.227 242.123 397.811 242.448 397.276 242.686C396.741 242.923 396.119 243.042 395.41 243.042C394.479 243.042 393.709 242.84 393.099 242.436C392.489 242.032 392.102 241.442 391.94 240.665L393.271 240.333C393.398 240.824 393.638 241.192 393.99 241.438C394.347 241.684 394.812 241.806 395.386 241.806C396.04 241.806 396.559 241.668 396.943 241.39C397.332 241.109 397.526 240.772 397.526 240.38C397.526 240.063 397.415 239.798 397.193 239.584C396.971 239.366 396.63 239.204 396.171 239.097L394.65 238.74C393.814 238.542 393.2 238.235 392.808 237.819C392.419 237.399 392.225 236.874 392.225 236.245C392.225 235.73 392.37 235.274 392.659 234.878C392.952 234.482 393.35 234.171 393.853 233.945C394.36 233.719 394.935 233.606 395.577 233.606C396.48 233.606 397.189 233.804 397.704 234.201C398.223 234.597 398.591 235.12 398.809 235.769ZM405.056 233.725V234.914H400.326V233.725H405.056ZM401.704 231.538H403.107V240.238C403.107 240.634 403.164 240.931 403.279 241.129C403.398 241.323 403.548 241.454 403.731 241.521C403.917 241.585 404.113 241.616 404.319 241.616C404.473 241.616 404.6 241.608 404.699 241.592C404.798 241.573 404.877 241.557 404.937 241.545L405.222 242.805C405.127 242.84 404.994 242.876 404.824 242.912C404.654 242.951 404.438 242.971 404.176 242.971C403.78 242.971 403.392 242.886 403.012 242.716C402.635 242.545 402.322 242.286 402.073 241.937C401.827 241.588 401.704 241.149 401.704 240.618V231.538ZM412.774 246.275C412.537 246.275 412.325 246.255 412.139 246.215C411.952 246.18 411.824 246.144 411.752 246.108L412.109 244.872C412.45 244.96 412.751 244.991 413.012 244.968C413.274 244.944 413.505 244.827 413.707 244.617C413.913 244.411 414.102 244.076 414.272 243.613L414.533 242.9L411.158 233.725H412.679L415.199 240.998H415.294L417.813 233.725H419.335L415.46 244.183C415.286 244.655 415.07 245.045 414.813 245.354C414.555 245.667 414.256 245.898 413.915 246.049C413.579 246.2 413.198 246.275 412.774 246.275ZM424.685 243.042C423.806 243.042 423.047 242.848 422.41 242.46C421.776 242.068 421.286 241.521 420.942 240.82C420.601 240.115 420.431 239.295 420.431 238.36C420.431 237.425 420.601 236.601 420.942 235.888C421.286 235.171 421.766 234.612 422.38 234.212C422.998 233.808 423.719 233.606 424.543 233.606C425.018 233.606 425.488 233.686 425.951 233.844C426.415 234.002 426.836 234.26 427.217 234.616C427.597 234.969 427.9 235.436 428.126 236.019C428.352 236.601 428.465 237.318 428.465 238.17V238.764H421.429V237.552H427.038C427.038 237.037 426.935 236.577 426.729 236.173C426.527 235.769 426.238 235.45 425.862 235.217C425.49 234.983 425.05 234.866 424.543 234.866C423.984 234.866 423.501 235.005 423.093 235.282C422.689 235.555 422.378 235.912 422.16 236.352C421.942 236.791 421.833 237.263 421.833 237.766V238.574C421.833 239.263 421.952 239.847 422.19 240.327C422.431 240.802 422.766 241.165 423.194 241.414C423.622 241.66 424.119 241.783 424.685 241.783C425.054 241.783 425.387 241.731 425.684 241.628C425.985 241.521 426.244 241.363 426.462 241.153C426.68 240.939 426.848 240.673 426.967 240.357L428.322 240.737C428.179 241.196 427.94 241.6 427.603 241.949C427.266 242.294 426.85 242.563 426.355 242.757C425.86 242.947 425.303 243.042 424.685 243.042ZM433.284 243.066C432.705 243.066 432.18 242.957 431.709 242.739C431.238 242.517 430.863 242.199 430.586 241.783C430.309 241.363 430.17 240.856 430.17 240.261C430.17 239.739 430.273 239.315 430.479 238.99C430.685 238.661 430.96 238.404 431.305 238.217C431.649 238.031 432.03 237.893 432.446 237.801C432.866 237.706 433.288 237.631 433.711 237.576C434.266 237.504 434.716 237.451 435.06 237.415C435.409 237.376 435.662 237.31 435.821 237.219C435.983 237.128 436.064 236.97 436.064 236.744V236.696C436.064 236.11 435.904 235.654 435.583 235.33C435.266 235.005 434.785 234.842 434.139 234.842C433.47 234.842 432.945 234.989 432.565 235.282C432.184 235.575 431.917 235.888 431.762 236.221L430.431 235.745C430.669 235.191 430.986 234.759 431.382 234.45C431.782 234.137 432.218 233.919 432.689 233.796C433.165 233.67 433.632 233.606 434.092 233.606C434.385 233.606 434.722 233.642 435.102 233.713C435.486 233.781 435.856 233.921 436.213 234.135C436.573 234.349 436.873 234.672 437.11 235.104C437.348 235.535 437.467 236.114 437.467 236.839V242.852H436.064V241.616H435.993C435.898 241.814 435.74 242.026 435.518 242.252C435.296 242.478 435.001 242.67 434.632 242.828C434.264 242.987 433.814 243.066 433.284 243.066ZM433.497 241.806C434.052 241.806 434.52 241.697 434.9 241.48C435.284 241.262 435.573 240.98 435.767 240.636C435.965 240.291 436.064 239.929 436.064 239.548V238.265C436.005 238.336 435.874 238.402 435.672 238.461C435.474 238.516 435.244 238.566 434.983 238.61C434.726 238.649 434.474 238.685 434.228 238.716C433.987 238.744 433.791 238.768 433.64 238.788C433.276 238.835 432.935 238.913 432.618 239.02C432.305 239.123 432.052 239.279 431.857 239.489C431.667 239.695 431.572 239.976 431.572 240.333C431.572 240.82 431.752 241.188 432.113 241.438C432.477 241.684 432.939 241.806 433.497 241.806ZM440.026 242.852V233.725H441.381V235.104H441.476C441.643 234.652 441.944 234.286 442.379 234.004C442.815 233.723 443.306 233.583 443.853 233.583C443.956 233.583 444.085 233.585 444.239 233.588C444.394 233.592 444.511 233.598 444.59 233.606V235.032C444.542 235.021 444.433 235.003 444.263 234.979C444.097 234.951 443.92 234.937 443.734 234.937C443.291 234.937 442.894 235.03 442.546 235.217C442.201 235.399 441.928 235.652 441.726 235.977C441.528 236.298 441.429 236.664 441.429 237.076V242.852H440.026ZM449.247 237.718C449.247 239.216 449.051 240.594 448.659 241.854C448.27 243.11 447.714 244.266 446.989 245.324H445.753C446.038 244.932 446.304 244.449 446.549 243.874C446.799 243.304 447.017 242.678 447.203 241.997C447.389 241.311 447.534 240.604 447.637 239.875C447.744 239.142 447.797 238.423 447.797 237.718C447.797 236.775 447.706 235.819 447.524 234.848C447.342 233.878 447.096 232.976 446.787 232.145C446.478 231.313 446.133 230.635 445.753 230.112H446.989C447.714 231.17 448.27 232.329 448.659 233.588C449.051 234.844 449.247 236.221 449.247 237.718Z" fill="#AFAFBD"/>
<path fill-rule="evenodd" clip-rule="evenodd" d="M453.672 198.764C453.884 198.757 454.092 198.666 454.244 198.492L459.814 192.118C460.104 191.786 460.07 191.283 459.738 190.994C459.407 190.704 458.904 190.738 458.614 191.069L454.434 195.854V185.219C454.434 184.779 454.077 184.423 453.637 184.423C453.197 184.423 452.84 184.779 452.84 185.219V195.841L448.658 191.068C448.368 190.737 447.865 190.704 447.534 190.994C447.203 191.284 447.169 191.788 447.46 192.119L452.978 198.417C453.122 198.627 453.363 198.765 453.637 198.765C453.649 198.765 453.661 198.765 453.672 198.764Z" fill="#ED5663"/>
<path d="M394.29 188.481V190.504H388.029V188.481H394.29ZM402.008 196.637C401.03 196.637 400.161 196.469 399.401 196.134C398.644 195.799 398.047 195.333 397.608 194.735C397.169 194.138 396.935 193.447 396.908 192.664H399.462C399.484 193.04 399.609 193.368 399.835 193.649C400.061 193.925 400.363 194.14 400.738 194.294C401.114 194.448 401.535 194.525 402.001 194.525C402.499 194.525 402.941 194.439 403.326 194.267C403.71 194.09 404.012 193.846 404.229 193.533C404.446 193.221 404.553 192.861 404.548 192.453C404.553 192.032 404.444 191.661 404.222 191.34C404 191.018 403.679 190.767 403.258 190.586C402.841 190.405 402.339 190.314 401.75 190.314H400.521V188.372H401.75C402.235 188.372 402.658 188.288 403.02 188.121C403.387 187.953 403.674 187.718 403.883 187.415C404.091 187.107 404.193 186.751 404.188 186.348C404.193 185.955 404.104 185.613 403.923 185.323C403.747 185.029 403.495 184.8 403.169 184.637C402.848 184.474 402.47 184.393 402.035 184.393C401.61 184.393 401.216 184.47 400.854 184.623C400.492 184.777 400.2 184.997 399.978 185.282C399.756 185.563 399.638 185.898 399.625 186.287H397.2C397.218 185.509 397.442 184.825 397.873 184.236C398.307 183.643 398.887 183.182 399.611 182.851C400.335 182.516 401.148 182.349 402.049 182.349C402.977 182.349 403.783 182.523 404.467 182.871C405.155 183.216 405.687 183.68 406.062 184.264C406.438 184.848 406.626 185.493 406.626 186.199C406.631 186.982 406.4 187.639 405.933 188.168C405.472 188.698 404.865 189.044 404.113 189.207V189.316C405.091 189.452 405.841 189.814 406.361 190.403C406.886 190.987 407.147 191.713 407.142 192.582C407.142 193.361 406.92 194.058 406.477 194.674C406.038 195.285 405.431 195.765 404.657 196.114C403.887 196.462 403.004 196.637 402.008 196.637ZM410.903 196.596C410.491 196.596 410.138 196.451 409.843 196.161C409.549 195.872 409.404 195.518 409.409 195.102C409.404 194.694 409.549 194.346 409.843 194.056C410.138 193.766 410.491 193.621 410.903 193.621C411.301 193.621 411.647 193.766 411.942 194.056C412.24 194.346 412.392 194.694 412.397 195.102C412.392 195.378 412.32 195.629 412.179 195.856C412.044 196.082 411.862 196.263 411.636 196.399C411.414 196.53 411.17 196.596 410.903 196.596ZM415.206 196.447V194.627L420.035 189.893C420.497 189.427 420.881 189.013 421.189 188.651C421.497 188.288 421.728 187.937 421.882 187.598C422.036 187.258 422.113 186.896 422.113 186.511C422.113 186.072 422.013 185.696 421.814 185.384C421.615 185.067 421.341 184.823 420.992 184.651C420.644 184.479 420.248 184.393 419.804 184.393C419.347 184.393 418.946 184.488 418.602 184.678C418.258 184.863 417.991 185.128 417.801 185.472C417.615 185.816 417.522 186.226 417.522 186.702H415.125C415.125 185.819 415.326 185.051 415.729 184.399C416.132 183.747 416.687 183.243 417.393 182.885C418.104 182.527 418.919 182.349 419.838 182.349C420.77 182.349 421.59 182.523 422.296 182.871C423.002 183.22 423.55 183.698 423.94 184.304C424.333 184.911 424.53 185.604 424.53 186.382C424.53 186.903 424.431 187.415 424.232 187.917C424.032 188.42 423.682 188.976 423.179 189.588C422.681 190.199 421.982 190.939 421.081 191.808L418.683 194.246V194.341H424.741V196.447H415.206ZM434.819 193.839V193.105C434.819 192.567 434.932 192.071 435.158 191.618C435.389 191.165 435.724 190.801 436.163 190.525C436.602 190.249 437.134 190.111 437.759 190.111C438.402 190.111 438.941 190.249 439.375 190.525C439.81 190.796 440.138 191.159 440.36 191.611C440.586 192.064 440.7 192.562 440.7 193.105V193.839C440.7 194.378 440.586 194.873 440.36 195.326C440.134 195.779 439.801 196.143 439.362 196.419C438.927 196.696 438.393 196.834 437.759 196.834C437.125 196.834 436.589 196.696 436.15 196.419C435.711 196.143 435.378 195.779 435.151 195.326C434.93 194.873 434.819 194.378 434.819 193.839ZM436.591 193.105V193.839C436.591 194.196 436.677 194.525 436.849 194.823C437.021 195.122 437.325 195.272 437.759 195.272C438.198 195.272 438.499 195.125 438.662 194.83C438.83 194.531 438.914 194.201 438.914 193.839V193.105C438.914 192.743 438.834 192.413 438.676 192.114C438.517 191.811 438.212 191.659 437.759 191.659C437.334 191.659 437.033 191.811 436.856 192.114C436.679 192.413 436.591 192.743 436.591 193.105ZM427.749 185.88V185.146C427.749 184.603 427.865 184.105 428.096 183.652C428.327 183.2 428.662 182.837 429.101 182.566C429.54 182.29 430.072 182.152 430.697 182.152C431.335 182.152 431.871 182.29 432.306 182.566C432.745 182.837 433.076 183.2 433.298 183.652C433.519 184.105 433.63 184.603 433.63 185.146V185.88C433.63 186.423 433.517 186.921 433.291 187.374C433.069 187.822 432.738 188.182 432.299 188.454C431.86 188.725 431.326 188.861 430.697 188.861C430.058 188.861 429.519 188.725 429.08 188.454C428.646 188.182 428.315 187.82 428.089 187.367C427.862 186.914 427.749 186.419 427.749 185.88ZM429.535 185.146V185.88C429.535 186.242 429.619 186.572 429.787 186.871C429.959 187.166 430.262 187.313 430.697 187.313C431.131 187.313 431.43 187.166 431.593 186.871C431.76 186.572 431.844 186.242 431.844 185.88V185.146C431.844 184.784 431.765 184.454 431.607 184.155C431.448 183.852 431.145 183.7 430.697 183.7C430.266 183.7 429.965 183.852 429.793 184.155C429.621 184.458 429.535 184.789 429.535 185.146ZM428.523 196.447L438.085 182.539H439.783L430.221 196.447H428.523Z" fill="#ED5663"/>
<path d="M209.064 207.915V177.491H211.013V207.915H209.064ZM214.685 187.225C214.574 186.187 214.107 185.379 213.283 184.8C212.467 184.222 211.405 183.933 210.098 183.933C209.179 183.933 208.39 184.071 207.733 184.349C207.075 184.626 206.572 185.002 206.223 185.478C205.875 185.953 205.697 186.496 205.689 187.106C205.689 187.613 205.803 188.053 206.033 188.425C206.271 188.797 206.592 189.114 206.996 189.376C207.4 189.629 207.848 189.843 208.339 190.017C208.83 190.192 209.325 190.338 209.824 190.457L212.106 191.028C213.025 191.241 213.908 191.531 214.756 191.895C215.612 192.26 216.376 192.719 217.05 193.274C217.731 193.828 218.27 194.498 218.666 195.282C219.062 196.066 219.26 196.985 219.26 198.039C219.26 199.465 218.896 200.721 218.167 201.806C217.438 202.884 216.384 203.728 215.006 204.338C213.635 204.94 211.975 205.241 210.026 205.241C208.133 205.241 206.489 204.948 205.094 204.362C203.708 203.775 202.622 202.92 201.838 201.795C201.062 200.67 200.642 199.299 200.578 197.683H204.916C204.98 198.53 205.241 199.236 205.7 199.798C206.16 200.361 206.758 200.78 207.495 201.058C208.24 201.335 209.072 201.474 209.991 201.474C210.949 201.474 211.789 201.331 212.51 201.046C213.239 200.753 213.809 200.349 214.221 199.834C214.633 199.311 214.843 198.701 214.851 198.004C214.843 197.37 214.657 196.847 214.293 196.435C213.928 196.015 213.417 195.666 212.76 195.389C212.11 195.104 211.349 194.85 210.478 194.628L207.709 193.915C205.704 193.4 204.12 192.62 202.955 191.574C201.799 190.52 201.22 189.122 201.22 187.379C201.22 185.945 201.608 184.689 202.385 183.612C203.169 182.534 204.235 181.698 205.582 181.104C206.929 180.502 208.454 180.201 210.157 180.201C211.884 180.201 213.397 180.502 214.697 181.104C216.004 181.698 217.03 182.526 217.775 183.588C218.52 184.642 218.904 185.854 218.928 187.225H214.685ZM233.152 180.534V204.873H228.743V184.824H228.6L222.907 188.461V184.42L228.957 180.534H233.152ZM239.63 204.873V201.688L248.08 193.404C248.888 192.588 249.561 191.863 250.1 191.23C250.639 190.596 251.043 189.982 251.312 189.388C251.582 188.793 251.716 188.159 251.716 187.486C251.716 186.718 251.542 186.06 251.193 185.513C250.845 184.959 250.366 184.531 249.755 184.23C249.145 183.929 248.452 183.778 247.676 183.778C246.876 183.778 246.174 183.945 245.572 184.277C244.97 184.602 244.503 185.066 244.17 185.668C243.845 186.27 243.683 186.987 243.683 187.819H239.488C239.488 186.274 239.84 184.931 240.545 183.79C241.25 182.649 242.221 181.766 243.457 181.14C244.701 180.514 246.127 180.201 247.735 180.201C249.367 180.201 250.801 180.506 252.037 181.116C253.273 181.726 254.232 182.562 254.913 183.624C255.602 184.685 255.947 185.898 255.947 187.26C255.947 188.171 255.773 189.067 255.424 189.946C255.076 190.825 254.462 191.8 253.582 192.87C252.711 193.939 251.487 195.235 249.91 196.756L245.715 201.022V201.188H256.316V204.873H239.63ZM269.449 205.205C267.738 205.205 266.217 204.912 264.886 204.326C263.563 203.74 262.517 202.924 261.748 201.878C260.98 200.832 260.572 199.624 260.524 198.253H264.993C265.032 198.911 265.25 199.485 265.646 199.976C266.042 200.46 266.569 200.836 267.227 201.105C267.884 201.375 268.621 201.509 269.437 201.509C270.309 201.509 271.081 201.359 271.755 201.058C272.428 200.749 272.955 200.321 273.335 199.774C273.716 199.228 273.902 198.598 273.894 197.885C273.902 197.148 273.712 196.498 273.323 195.936C272.935 195.373 272.373 194.933 271.636 194.617C270.907 194.3 270.028 194.141 268.998 194.141H266.847V190.742H268.998C269.845 190.742 270.586 190.596 271.22 190.303C271.862 190.009 272.365 189.597 272.729 189.067C273.094 188.528 273.272 187.906 273.264 187.201C273.272 186.512 273.117 185.913 272.801 185.406C272.492 184.891 272.052 184.491 271.481 184.206C270.919 183.921 270.257 183.778 269.497 183.778C268.752 183.778 268.063 183.913 267.429 184.182C266.795 184.452 266.284 184.836 265.896 185.335C265.508 185.826 265.302 186.413 265.278 187.094H261.035C261.067 185.731 261.459 184.535 262.212 183.505C262.972 182.467 263.986 181.659 265.254 181.08C266.522 180.494 267.944 180.201 269.521 180.201C271.145 180.201 272.555 180.506 273.751 181.116C274.956 181.718 275.886 182.53 276.544 183.552C277.202 184.574 277.53 185.703 277.53 186.939C277.538 188.31 277.134 189.459 276.318 190.386C275.51 191.313 274.448 191.919 273.133 192.204V192.394C274.845 192.632 276.156 193.266 277.067 194.296C277.986 195.318 278.442 196.589 278.434 198.11C278.434 199.473 278.045 200.693 277.269 201.771C276.5 202.84 275.439 203.68 274.084 204.29C272.737 204.9 271.192 205.205 269.449 205.205ZM291.463 205.205C289.697 205.205 288.128 204.908 286.757 204.314C285.395 203.72 284.325 202.908 283.549 201.878C282.78 200.84 282.4 199.663 282.408 198.348C282.4 197.326 282.622 196.387 283.073 195.532C283.525 194.676 284.135 193.963 284.903 193.392C285.68 192.814 286.543 192.446 287.494 192.287V192.121C286.242 191.844 285.228 191.206 284.452 190.208C283.683 189.201 283.303 188.041 283.311 186.725C283.303 185.474 283.652 184.357 284.357 183.374C285.062 182.392 286.028 181.619 287.256 181.057C288.484 180.486 289.887 180.201 291.463 180.201C293.024 180.201 294.415 180.486 295.635 181.057C296.863 181.619 297.829 182.392 298.534 183.374C299.247 184.357 299.604 185.474 299.604 186.725C299.604 188.041 299.212 189.201 298.427 190.208C297.651 191.206 296.649 191.844 295.421 192.121V192.287C296.372 192.446 297.227 192.814 297.988 193.392C298.756 193.963 299.366 194.676 299.818 195.532C300.277 196.387 300.507 197.326 300.507 198.348C300.507 199.663 300.119 200.84 299.343 201.878C298.566 202.908 297.497 203.72 296.134 204.314C294.779 204.908 293.222 205.205 291.463 205.205ZM291.463 201.806C292.374 201.806 293.167 201.652 293.84 201.343C294.514 201.026 295.037 200.582 295.409 200.012C295.781 199.441 295.971 198.784 295.979 198.039C295.971 197.263 295.769 196.577 295.373 195.983C294.985 195.381 294.45 194.91 293.769 194.569C293.095 194.228 292.327 194.058 291.463 194.058C290.592 194.058 289.815 194.228 289.134 194.569C288.453 194.91 287.914 195.381 287.518 195.983C287.13 196.577 286.939 197.263 286.947 198.039C286.939 198.784 287.122 199.441 287.494 200.012C287.866 200.574 288.389 201.014 289.063 201.331C289.744 201.648 290.544 201.806 291.463 201.806ZM291.463 190.719C292.208 190.719 292.866 190.568 293.436 190.267C294.014 189.966 294.47 189.546 294.803 189.007C295.136 188.468 295.306 187.847 295.314 187.141C295.306 186.444 295.14 185.834 294.815 185.311C294.49 184.78 294.038 184.372 293.46 184.087C292.882 183.794 292.216 183.647 291.463 183.647C290.695 183.647 290.017 183.794 289.431 184.087C288.853 184.372 288.401 184.78 288.076 185.311C287.759 185.834 287.605 186.444 287.613 187.141C287.605 187.847 287.763 188.468 288.088 189.007C288.421 189.538 288.877 189.958 289.455 190.267C290.041 190.568 290.711 190.719 291.463 190.719ZM313.709 205.336C311.752 205.336 310.073 204.841 308.67 203.851C307.276 202.852 306.202 201.414 305.45 199.537C304.705 197.651 304.333 195.381 304.333 192.727C304.341 190.073 304.717 187.815 305.462 185.953C306.214 184.083 307.288 182.657 308.682 181.675C310.085 180.692 311.76 180.201 313.709 180.201C315.658 180.201 317.334 180.692 318.736 181.675C320.139 182.657 321.212 184.083 321.957 185.953C322.709 187.823 323.086 190.081 323.086 192.727C323.086 195.389 322.709 197.663 321.957 199.548C321.212 201.426 320.139 202.86 318.736 203.851C317.342 204.841 315.666 205.336 313.709 205.336ZM313.709 201.616C315.23 201.616 316.431 200.868 317.31 199.37C318.197 197.865 318.641 195.65 318.641 192.727C318.641 190.794 318.439 189.17 318.035 187.854C317.631 186.539 317.061 185.549 316.324 184.883C315.587 184.21 314.715 183.873 313.709 183.873C312.196 183.873 311 184.626 310.12 186.131C309.241 187.629 308.797 189.827 308.789 192.727C308.781 194.668 308.975 196.3 309.372 197.623C309.776 198.946 310.346 199.945 311.083 200.618C311.82 201.284 312.695 201.616 313.709 201.616Z" fill="#0D024C"/>
<path d="M207.987 128.394C207.924 127.801 207.657 127.339 207.186 127.009C206.72 126.678 206.113 126.513 205.366 126.513C204.841 126.513 204.39 126.592 204.015 126.751C203.639 126.909 203.351 127.124 203.152 127.396C202.953 127.668 202.851 127.978 202.847 128.326C202.847 128.616 202.912 128.867 203.044 129.08C203.179 129.293 203.363 129.474 203.594 129.623C203.824 129.768 204.08 129.89 204.361 129.99C204.642 130.09 204.925 130.173 205.21 130.241L206.514 130.567C207.039 130.69 207.544 130.855 208.028 131.063C208.517 131.271 208.954 131.534 209.339 131.851C209.728 132.168 210.036 132.55 210.262 132.998C210.489 133.447 210.602 133.972 210.602 134.574C210.602 135.389 210.394 136.106 209.977 136.727C209.561 137.342 208.958 137.825 208.171 138.173C207.387 138.517 206.439 138.689 205.325 138.689C204.243 138.689 203.304 138.522 202.507 138.187C201.715 137.852 201.095 137.363 200.646 136.72C200.203 136.077 199.963 135.294 199.926 134.37H202.405C202.441 134.855 202.591 135.258 202.853 135.579C203.116 135.9 203.458 136.14 203.879 136.299C204.304 136.457 204.78 136.537 205.305 136.537C205.853 136.537 206.333 136.455 206.745 136.292C207.161 136.125 207.487 135.894 207.722 135.599C207.958 135.301 208.078 134.952 208.082 134.554C208.078 134.191 207.971 133.893 207.763 133.657C207.555 133.417 207.263 133.218 206.887 133.06C206.516 132.897 206.081 132.752 205.583 132.625L204.001 132.218C202.856 131.923 201.95 131.477 201.285 130.88C200.624 130.278 200.293 129.478 200.293 128.482C200.293 127.663 200.515 126.945 200.959 126.33C201.407 125.714 202.016 125.236 202.785 124.897C203.555 124.553 204.427 124.381 205.4 124.381C206.387 124.381 207.252 124.553 207.994 124.897C208.741 125.236 209.327 125.71 209.753 126.316C210.179 126.918 210.398 127.611 210.412 128.394H207.987ZM218.247 128.048V129.949H212.25V128.048H218.247ZM213.731 125.549H216.189V135.341C216.189 135.672 216.239 135.925 216.339 136.102C216.443 136.274 216.578 136.392 216.746 136.455C216.913 136.518 217.099 136.55 217.303 136.55C217.457 136.55 217.597 136.539 217.724 136.516C217.855 136.494 217.955 136.473 218.023 136.455L218.437 138.377C218.306 138.422 218.118 138.472 217.873 138.526C217.633 138.581 217.339 138.612 216.99 138.621C216.375 138.639 215.82 138.547 215.327 138.343C214.833 138.135 214.442 137.813 214.152 137.379C213.867 136.944 213.726 136.401 213.731 135.749V125.549ZM223.603 138.689C222.942 138.689 222.347 138.572 221.817 138.336C221.292 138.096 220.875 137.743 220.568 137.277C220.264 136.81 220.113 136.235 220.113 135.552C220.113 134.963 220.221 134.477 220.439 134.092C220.656 133.707 220.952 133.399 221.328 133.168C221.704 132.937 222.127 132.763 222.598 132.645C223.073 132.523 223.565 132.435 224.072 132.38C224.683 132.317 225.179 132.261 225.559 132.211C225.939 132.156 226.215 132.075 226.387 131.966C226.564 131.853 226.652 131.679 226.652 131.443V131.403C226.652 130.891 226.501 130.495 226.197 130.214C225.894 129.933 225.457 129.793 224.887 129.793C224.284 129.793 223.807 129.924 223.454 130.187C223.105 130.45 222.87 130.76 222.747 131.117L220.452 130.791C220.633 130.158 220.932 129.628 221.349 129.202C221.765 128.772 222.274 128.451 222.876 128.238C223.479 128.021 224.144 127.912 224.873 127.912C225.376 127.912 225.876 127.971 226.374 128.089C226.872 128.206 227.327 128.401 227.739 128.673C228.151 128.94 228.481 129.304 228.73 129.766C228.984 130.228 229.111 130.805 229.111 131.498V138.479H226.747V137.046H226.666C226.516 137.336 226.306 137.607 226.034 137.861C225.767 138.11 225.43 138.311 225.022 138.465C224.62 138.615 224.146 138.689 223.603 138.689ZM224.241 136.883C224.735 136.883 225.163 136.786 225.525 136.591C225.887 136.392 226.166 136.129 226.36 135.803C226.559 135.477 226.659 135.122 226.659 134.737V133.508C226.582 133.571 226.451 133.63 226.265 133.684C226.084 133.739 225.88 133.786 225.654 133.827C225.428 133.868 225.204 133.904 224.982 133.936C224.76 133.967 224.567 133.994 224.404 134.017C224.038 134.067 223.71 134.148 223.42 134.262C223.13 134.375 222.901 134.533 222.734 134.737C222.566 134.936 222.483 135.194 222.483 135.511C222.483 135.964 222.648 136.306 222.978 136.537C223.309 136.767 223.73 136.883 224.241 136.883ZM237.09 128.048V129.949H231.094V128.048H237.09ZM232.574 125.549H235.032V135.341C235.032 135.672 235.082 135.925 235.182 136.102C235.286 136.274 235.422 136.392 235.589 136.455C235.757 136.518 235.942 136.55 236.146 136.55C236.3 136.55 236.44 136.539 236.567 136.516C236.698 136.494 236.798 136.473 236.866 136.455L237.28 138.377C237.149 138.422 236.961 138.472 236.716 138.526C236.476 138.581 236.182 138.612 235.834 138.621C235.218 138.639 234.663 138.547 234.17 138.343C233.676 138.135 233.285 137.813 232.995 137.379C232.71 136.944 232.569 136.401 232.574 135.749V125.549ZM239.445 138.479V128.048H241.903V138.479H239.445ZM240.681 126.567C240.291 126.567 239.956 126.438 239.676 126.18C239.395 125.918 239.255 125.603 239.255 125.236C239.255 124.865 239.395 124.551 239.676 124.292C239.956 124.03 240.291 123.899 240.681 123.899C241.075 123.899 241.41 124.03 241.686 124.292C241.966 124.551 242.107 124.865 242.107 125.236C242.107 125.603 241.966 125.918 241.686 126.18C241.41 126.438 241.075 126.567 240.681 126.567ZM252.974 130.805L250.733 131.049C250.67 130.823 250.559 130.61 250.4 130.411C250.246 130.212 250.038 130.051 249.775 129.929C249.513 129.807 249.191 129.746 248.811 129.746C248.3 129.746 247.869 129.857 247.521 130.078C247.177 130.3 247.007 130.588 247.012 130.941C247.007 131.244 247.118 131.491 247.344 131.681C247.575 131.871 247.955 132.027 248.485 132.15L250.264 132.53C251.251 132.743 251.985 133.08 252.465 133.542C252.949 134.004 253.194 134.608 253.198 135.355C253.194 136.011 253.001 136.591 252.621 137.093C252.245 137.591 251.722 137.981 251.052 138.261C250.382 138.542 249.612 138.682 248.743 138.682C247.467 138.682 246.439 138.415 245.66 137.881C244.881 137.342 244.417 136.593 244.268 135.633L246.665 135.402C246.774 135.873 247.005 136.229 247.358 136.469C247.711 136.709 248.171 136.829 248.736 136.829C249.32 136.829 249.789 136.709 250.142 136.469C250.5 136.229 250.679 135.932 250.679 135.579C250.679 135.28 250.563 135.033 250.332 134.839C250.106 134.644 249.753 134.495 249.273 134.391L247.494 134.017C246.493 133.809 245.753 133.458 245.273 132.965C244.793 132.467 244.555 131.837 244.56 131.077C244.555 130.434 244.73 129.877 245.083 129.406C245.441 128.931 245.936 128.564 246.57 128.306C247.208 128.043 247.944 127.912 248.777 127.912C250 127.912 250.962 128.172 251.663 128.693C252.37 129.214 252.806 129.918 252.974 130.805ZM260.733 128.048V129.949H254.736V128.048H260.733ZM256.217 125.549H258.675V135.341C258.675 135.672 258.725 135.925 258.824 136.102C258.928 136.274 259.064 136.392 259.232 136.455C259.399 136.518 259.585 136.55 259.789 136.55C259.943 136.55 260.083 136.539 260.21 136.516C260.341 136.494 260.441 136.473 260.509 136.455L260.923 138.377C260.791 138.422 260.604 138.472 260.359 138.526C260.119 138.581 259.825 138.612 259.476 138.621C258.861 138.639 258.306 138.547 257.813 138.343C257.319 138.135 256.927 137.813 256.638 137.379C256.352 136.944 256.212 136.401 256.217 135.749V125.549ZM263.087 138.479V128.048H265.546V138.479H263.087ZM264.323 126.567C263.934 126.567 263.599 126.438 263.318 126.18C263.038 125.918 262.897 125.603 262.897 125.236C262.897 124.865 263.038 124.551 263.318 124.292C263.599 124.03 263.934 123.899 264.323 123.899C264.717 123.899 265.052 124.03 265.328 124.292C265.609 124.551 265.749 124.865 265.749 125.236C265.749 125.603 265.609 125.918 265.328 126.18C265.052 126.438 264.717 126.567 264.323 126.567ZM272.922 138.682C271.881 138.682 270.987 138.454 270.24 137.997C269.497 137.539 268.925 136.908 268.522 136.102C268.123 135.292 267.924 134.359 267.924 133.304C267.924 132.245 268.128 131.31 268.535 130.499C268.943 129.684 269.518 129.051 270.26 128.598C271.007 128.141 271.89 127.912 272.909 127.912C273.755 127.912 274.505 128.068 275.157 128.381C275.813 128.688 276.336 129.125 276.725 129.691C277.115 130.253 277.336 130.909 277.391 131.661H275.041C274.946 131.158 274.72 130.739 274.362 130.404C274.009 130.065 273.536 129.895 272.943 129.895C272.44 129.895 271.999 130.031 271.619 130.302C271.238 130.57 270.942 130.954 270.729 131.457C270.521 131.959 270.417 132.562 270.417 133.263C270.417 133.974 270.521 134.585 270.729 135.097C270.937 135.604 271.229 135.996 271.605 136.272C271.985 136.543 272.431 136.679 272.943 136.679C273.305 136.679 273.629 136.611 273.914 136.475C274.204 136.335 274.446 136.134 274.64 135.871C274.835 135.608 274.969 135.289 275.041 134.914H277.391C277.332 135.651 277.115 136.306 276.739 136.876C276.363 137.442 275.852 137.886 275.204 138.207C274.557 138.524 273.796 138.682 272.922 138.682ZM287.952 130.805L285.711 131.049C285.648 130.823 285.537 130.61 285.379 130.411C285.225 130.212 285.016 130.051 284.754 129.929C284.491 129.807 284.17 129.746 283.79 129.746C283.278 129.746 282.848 129.857 282.499 130.078C282.155 130.3 281.985 130.588 281.99 130.941C281.985 131.244 282.096 131.491 282.323 131.681C282.554 131.871 282.934 132.027 283.464 132.15L285.243 132.53C286.23 132.743 286.963 133.08 287.443 133.542C287.928 134.004 288.172 134.608 288.177 135.355C288.172 136.011 287.98 136.591 287.599 137.093C287.224 137.591 286.701 137.981 286.031 138.261C285.361 138.542 284.591 138.682 283.722 138.682C282.445 138.682 281.417 138.415 280.639 137.881C279.86 137.342 279.396 136.593 279.246 135.633L281.644 135.402C281.752 135.873 281.983 136.229 282.336 136.469C282.689 136.709 283.149 136.829 283.715 136.829C284.299 136.829 284.767 136.709 285.121 136.469C285.478 136.229 285.657 135.932 285.657 135.579C285.657 135.28 285.542 135.033 285.311 134.839C285.084 134.644 284.731 134.495 284.251 134.391L282.472 134.017C281.472 133.809 280.731 133.458 280.251 132.965C279.772 132.467 279.534 131.837 279.538 131.077C279.534 130.434 279.708 129.877 280.061 129.406C280.419 128.931 280.915 128.564 281.549 128.306C282.187 128.043 282.923 127.912 283.756 127.912C284.978 127.912 285.94 128.172 286.642 128.693C287.348 129.214 287.785 129.918 287.952 130.805Z" fill="#0D024C"/>
</g>
<defs>
<filter id="filter0_d_480_2090" x="0.652649" y="0.957954" width="682.463" height="505.572" filterUnits="userSpaceOnUse" color-interpolation-filters="sRGB">
<feFlood flood-opacity="0" result="BackgroundImageFix"/>
<feColorMatrix in="SourceAlpha" type="matrix" values="0 0 0 0 0 0 0 0 0 0 0 0 0 0 0 0 0 0 127 0" result="hardAlpha"/>
<feOffset dy="64.5411"/>
<feGaussianBlur stdDeviation="80.0788"/>
<feColorMatrix type="matrix" values="0 0 0 0 0.541667 0 0 0 0 0.541667 0 0 0 0 0.541667 0 0 0 0.2 0"/>
<feBlend mode="normal" in2="BackgroundImageFix" result="effect1_dropShadow_480_2090"/>
<feBlend mode="normal" in="SourceGraphic" in2="effect1_dropShadow_480_2090" result="shape"/>
</filter>
<linearGradient id="paint0_linear_480_2090" x1="645.996" y1="159.9" x2="645.996" y2="75.7101" gradientUnits="userSpaceOnUse">
<stop stop-color="white"/>
<stop offset="1" stop-color="#FF808B"/>
</linearGradient>
</defs>
</svg>
