<svg width="21" height="21" viewBox="0 0 21 21" fill="none" xmlns="http://www.w3.org/2000/svg">
<path d="M9.14273 0.860175C9.85193 0.366111 10.7938 0.36611 11.503 0.860175L13.2699 2.09107C13.5145 2.2615 13.7932 2.37692 14.0867 2.42939L16.2064 2.80839C17.0573 2.96051 17.7233 3.62653 17.8754 4.47736L18.2544 6.59711C18.3069 6.8906 18.4223 7.16925 18.5927 7.41388L19.8236 9.18076C20.3177 9.88996 20.3177 10.8319 19.8236 11.5411L18.5927 13.3079C18.4223 13.5526 18.3069 13.8312 18.2544 14.1247L17.8754 16.2444C17.7233 17.0953 17.0573 17.7613 16.2064 17.9134L14.0867 18.2924C13.7932 18.3449 13.5145 18.4603 13.2699 18.6307L11.503 19.8616C10.7938 20.3557 9.85193 20.3557 9.14273 19.8616L7.37586 18.6307C7.13122 18.4603 6.85258 18.3449 6.55908 18.2924L4.43934 17.9134C3.5885 17.7613 2.92248 17.0953 2.77036 16.2444L2.39137 14.1247C2.33889 13.8312 2.22347 13.5526 2.05305 13.3079L0.82215 11.5411C0.328086 10.8319 0.328085 9.88996 0.82215 9.18076L2.05305 7.41388C2.22347 7.16925 2.33889 6.8906 2.39137 6.59711L2.77036 4.47736C2.92248 3.62653 3.5885 2.96051 4.43934 2.80839L6.55908 2.42939C6.85258 2.37692 7.13122 2.2615 7.37586 2.09107L9.14273 0.860175Z" fill="#070127"/>
<path d="M14.5638 8.62175L9.81008 13.3751C9.45806 13.7272 8.88703 13.7272 8.53468 13.3751L6.08077 10.9211C5.72861 10.569 5.72861 9.99787 6.08077 9.64572C6.43299 9.2935 7.00397 9.2935 7.35604 9.64559L9.17257 11.4621L13.2883 7.34634C13.6406 6.99412 14.2116 6.99439 14.5637 7.34634C14.9158 7.69849 14.9158 8.26939 14.5638 8.62175Z" fill="white"/>
</svg>
